<?xml version="1.0" encoding="utf-8" standalone="no"?>
<!DOCTYPE svg PUBLIC "-//W3C//DTD SVG 1.1//EN"
  "http://www.w3.org/Graphics/SVG/1.1/DTD/svg11.dtd">
<svg xmlns:xlink="http://www.w3.org/1999/xlink" width="612.165625pt" height="198.474375pt" viewBox="0 0 612.165625 198.474375" xmlns="http://www.w3.org/2000/svg" version="1.1">
 <metadata>
  <rdf:RDF xmlns:dc="http://purl.org/dc/elements/1.1/" xmlns:cc="http://creativecommons.org/ns#" xmlns:rdf="http://www.w3.org/1999/02/22-rdf-syntax-ns#">
   <cc:Work>
    <dc:type rdf:resource="http://purl.org/dc/dcmitype/StillImage"/>
    <dc:date>2026-07-03T02:44:43.032122</dc:date>
    <dc:format>image/svg+xml</dc:format>
    <dc:creator>
     <cc:Agent>
      <dc:title>Matplotlib v3.10.9, https://matplotlib.org/</dc:title>
     </cc:Agent>
    </dc:creator>
   </cc:Work>
  </rdf:RDF>
 </metadata>
 <defs>
  <style type="text/css">*{stroke-linejoin: round; stroke-linecap: butt}</style>
 </defs>
 <g id="figure_1">
  <g id="patch_1">
   <path d="M 0 198.474375 
L 612.165625 198.474375 
L 612.165625 0 
L 0 0 
z
" style="fill: #ffffff"/>
  </g>
  <g id="axes_1">
   <g id="patch_2">
    <path d="M 46.965625 160.918125 
L 604.965625 160.918125 
L 604.965625 22.318125 
L 46.965625 22.318125 
z
" style="fill: #ffffff"/>
   </g>
   <g id="line2d_1">
    <path d="M 46.965625 160.918125 
L 604.965625 160.918125 
" clip-path="url(#p4479202e9d)" style="fill: none; stroke: #000000; stroke-width: 0.5; stroke-linecap: square"/>
   </g>
   <g id="patch_3">
    <path d="M 47.582036 159.87602 
L 105.578264 159.87602 
L 105.578264 160.079259 
L 69.076017 160.079259 
L 69.076017 160.273119 
L 103.416359 160.273119 
L 103.416359 160.476358 
L 69.076017 160.476358 
L 69.076017 160.918125 
L 47.582036 160.918125 
L 47.582036 159.87602 
z
" clip-path="url(#p4479202e9d)" style="fill: #29fc2e"/>
   </g>
   <g id="patch_4">
    <path d="M 46.965625 158.833914 
L 64.437624 158.833914 
L 76.557326 159.391595 
L 88.756912 158.833914 
L 106.194675 158.833914 
L 106.194675 159.87602 
L 93.219063 159.87602 
L 93.219063 159.11376 
L 80.951003 159.675684 
L 72.243534 159.675684 
L 59.975474 159.11376 
L 59.975474 159.87602 
L 46.965625 159.87602 
L 46.965625 158.833914 
z
" clip-path="url(#p4479202e9d)" style="fill: #cc99cc"/>
   </g>
   <g id="patch_5">
    <path d="M 78.159591 158.678075 
L 76.999689 158.678075 
Q 62.772378 158.678075 54.862832 158.561288 
Q 46.965625 158.444317 46.965625 158.235859 
Q 46.965625 158.027768 54.850492 157.90988 
Q 62.73536 157.791809 76.58015 157.791809 
Q 90.573013 157.791809 98.383844 157.90878 
Q 106.194675 158.025568 106.194675 158.235859 
Q 106.194675 158.380148 102.048642 158.484468 
Q 97.902608 158.588789 90.116456 158.641407 
L 101.715478 158.833914 
L 87.562203 158.833914 
L 78.159591 158.678075 
z
M 76.58015 157.951682 
Q 69.793488 157.951682 66.054654 158.026118 
Q 62.315821 158.100554 62.315821 158.235859 
Q 62.315821 158.373364 65.968279 158.446517 
Q 69.633076 158.519486 76.58015 158.519486 
Q 83.40383 158.519486 87.142664 158.44505 
Q 90.881498 158.370431 90.881498 158.235859 
Q 90.881498 158.100554 87.142664 158.026118 
Q 83.40383 157.951682 76.58015 157.951682 
z
" clip-path="url(#p4479202e9d)" style="fill: #6669c9"/>
   </g>
   <g id="patch_6">
    <path d="M 101.25624 154.814673 
L 101.25624 155.452723 
Q 95.079175 155.341646 89.191659 155.285461 
Q 83.320229 155.228631 78.092244 155.228631 
Q 71.159132 155.228631 67.829307 155.305481 
Q 64.515569 155.381685 64.515569 155.543135 
Q 64.515569 155.664545 66.751538 155.732354 
Q 68.987507 155.799517 74.875023 155.847952 
L 83.11111 155.91447 
Q 95.626102 156.01586 100.902346 156.22187 
Q 106.194675 156.427235 106.194675 156.806965 
Q 106.194675 157.304876 98.827238 157.548343 
Q 91.4598 157.791809 76.322772 157.791809 
Q 69.196626 157.791809 62.006136 157.736916 
Q 54.815646 157.682669 47.625155 157.575466 
L 47.625155 156.91998 
Q 54.815646 157.073034 61.523553 157.151176 
Q 68.23146 157.228672 74.47287 157.228672 
Q 80.810797 157.228672 84.172793 157.144072 
Q 87.53479 157.058827 87.53479 156.901252 
Q 87.53479 156.760467 85.250562 156.683617 
Q 82.966335 156.606767 76.129739 156.546062 
L 68.633613 156.479544 
Q 57.373337 156.382675 52.161438 156.170852 
Q 46.965625 155.95903 46.965625 155.599965 
Q 46.965625 155.149843 54.204374 154.907668 
Q 61.443122 154.665493 75.019798 154.665493 
Q 81.212949 154.665493 87.743909 154.70295 
Q 94.274869 154.740406 101.25624 154.814673 
z
" clip-path="url(#p4479202e9d)" style="fill: #0a24fa"/>
   </g>
   <g id="patch_7">
    <path d="M 87.99364 153.716298 
L 65.215099 153.716298 
L 61.618488 154.665493 
L 46.965625 154.665493 
L 67.891366 149.454967 
L 85.268934 149.454967 
L 106.194675 154.665493 
L 91.553923 154.665493 
L 87.99364 153.716298 
z
M 68.84804 152.749235 
L 84.32437 152.749235 
L 76.598315 150.676638 
L 68.84804 152.749235 
z
" clip-path="url(#p4479202e9d)" style="fill: #fc996b"/>
   </g>
   <g id="patch_8">
    <path d="M 106.194675 148.707992 
Q 101.240267 149.078251 95.882941 149.265533 
Q 90.525614 149.454967 84.690755 149.454967 
Q 67.290635 149.454967 57.12813 148.051429 
Q 46.965625 146.647892 46.965625 144.24767 
Q 46.965625 141.838837 57.12813 140.437452 
Q 67.290635 139.033914 84.690755 139.033914 
Q 90.525614 139.033914 95.882941 139.223349 
Q 101.240267 139.410631 106.194675 139.780889 
L 106.194675 141.858211 
Q 101.195499 141.367404 96.345551 141.139221 
Q 91.495604 140.911039 86.138277 140.911039 
Q 76.52792 140.911039 71.021364 141.800089 
Q 65.529731 142.686987 65.529731 144.24767 
Q 65.529731 145.801894 71.021364 146.690945 
Q 76.52792 147.577843 86.138277 147.577843 
Q 91.495604 147.577843 96.345551 147.34966 
Q 101.195499 147.119325 106.194675 146.628518 
L 106.194675 148.707992 
z
" clip-path="url(#p4479202e9d)" style="fill: #179999"/>
   </g>
   <g id="patch_9">
    <path d="M 46.965625 126.528651 
L 106.194675 126.528651 
L 106.194675 128.967526 
L 84.885991 128.967526 
L 84.885991 139.033914 
L 68.315631 139.033914 
L 68.315631 128.967526 
L 46.965625 128.967526 
L 46.965625 126.528651 
z
" clip-path="url(#p4479202e9d)" style="fill: #2bffff"/>
   </g>
   <g id="patch_10">
    <path d="M 46.965625 109.854967 
L 61.618488 109.854967 
L 76.598315 122.161904 
L 91.553923 109.854967 
L 106.194675 109.854967 
L 85.268934 126.528651 
L 67.891366 126.528651 
L 46.965625 109.854967 
z
" clip-path="url(#p4479202e9d)" style="fill: #ffcc45"/>
   </g>
   <g id="patch_11">
    <path d="M 46.965625 90.054967 
L 68.459606 90.054967 
L 68.459606 105.997659 
L 106.194675 105.997659 
L 106.194675 109.854967 
L 46.965625 109.854967 
L 46.965625 90.054967 
z
" clip-path="url(#p4479202e9d)" style="fill: #fc9940"/>
   </g>
   <g id="patch_12">
    <path d="M 65.83316 25.444441 
L 87.327141 25.444441 
L 87.327141 90.054967 
L 65.83316 90.054967 
L 65.83316 25.444441 
z
" clip-path="url(#p4479202e9d)" style="fill: #cc993d"/>
   </g>
   <g id="patch_13">
    <path d="M 133.343914 160.338111 
Q 138.659341 160.338111 140.965506 160.306843 
Q 143.27167 160.275352 143.27167 160.203436 
Q 143.27167 160.132191 140.965506 160.101593 
Q 138.659341 160.070772 133.343914 160.070772 
L 126.228553 160.070772 
L 126.228553 160.338111 
L 133.343914 160.338111 
z
M 126.228553 160.523706 
L 126.228553 160.918125 
L 109.311994 160.918125 
L 109.311994 159.87602 
L 135.143847 159.87602 
Q 148.10899 159.87602 154.141579 159.945255 
Q 160.188229 160.014267 160.188229 160.163682 
Q 160.188229 160.266865 157.038346 160.333197 
Q 153.902525 160.399529 147.574635 160.43102 
Q 151.047944 160.443527 153.790029 160.487972 
Q 156.546177 160.532193 159.358573 160.622199 
L 168.541044 160.918125 
L 150.52765 160.918125 
L 142.526385 160.659274 
Q 140.107725 160.581105 137.618755 160.552517 
Q 135.143847 160.523706 131.009625 160.523706 
L 126.228553 160.523706 
z
" clip-path="url(#p4479202e9d)" style="fill: #96050a"/>
   </g>
   <g id="patch_14">
    <path d="M 125.542642 158.198288 
L 125.542642 159.469987 
L 131.357613 159.469987 
Q 141.301078 159.469987 146.549392 159.306502 
Q 151.811198 159.143017 151.811198 158.831681 
Q 151.811198 158.522132 146.576376 158.360433 
Q 141.355045 158.198288 131.357613 158.198288 
L 125.542642 158.198288 
z
M 109.311994 157.791809 
L 126.41961 157.791809 
Q 140.761405 157.791809 147.777147 157.859705 
Q 154.792889 157.927153 159.811842 158.089298 
Q 164.237156 158.230449 166.382354 158.414928 
Q 168.541044 158.598961 168.541044 158.831681 
Q 168.541044 159.067975 166.382354 159.252901 
Q 164.237156 159.437826 159.811842 159.578531 
Q 154.752413 159.740676 147.669212 159.808571 
Q 140.586012 159.87602 126.41961 159.87602 
L 109.311994 159.87602 
L 109.311994 157.791809 
z
" clip-path="url(#p4479202e9d)" style="fill: #fc0d1c"/>
   </g>
   <g id="patch_15">
    <path d="M 109.311994 155.707599 
L 126.783993 155.707599 
L 138.903695 156.82296 
L 151.103281 155.707599 
L 168.541044 155.707599 
L 168.541044 157.791809 
L 155.565431 157.791809 
L 155.565431 156.267289 
L 143.297372 157.391137 
L 134.589902 157.391137 
L 122.321843 156.267289 
L 122.321843 157.791809 
L 109.311994 157.791809 
L 109.311994 155.707599 
z
" clip-path="url(#p4479202e9d)" style="fill: #cc99cc"/>
   </g>
   <g id="patch_16">
    <path d="M 109.311994 153.623388 
L 128.337254 153.623388 
L 152.377364 155.052765 
L 152.377364 153.623388 
L 168.541044 153.623388 
L 168.541044 155.707599 
L 149.501617 155.707599 
L 125.461508 154.278222 
L 125.461508 155.707599 
L 109.311994 155.707599 
L 109.311994 153.623388 
z
" clip-path="url(#p4479202e9d)" style="fill: #366666"/>
   </g>
   <g id="patch_17">
    <path d="M 109.311994 150.497072 
L 168.541044 150.497072 
L 168.541044 151.106791 
L 147.23236 151.106791 
L 147.23236 153.623388 
L 130.662 153.623388 
L 130.662 151.106791 
L 109.311994 151.106791 
L 109.311994 150.497072 
z
" clip-path="url(#p4479202e9d)" style="fill: #2bffff"/>
   </g>
   <g id="patch_18">
    <path d="M 128.179528 147.370757 
L 149.673509 147.370757 
L 149.673509 150.497072 
L 128.179528 150.497072 
L 128.179528 147.370757 
z
" clip-path="url(#p4479202e9d)" style="fill: #cc993d"/>
   </g>
   <g id="patch_19">
    <path d="M 109.311994 143.202336 
L 119.55361 143.202336 
L 126.71297 146.231722 
L 133.819035 143.202336 
L 144.113946 143.202336 
L 151.220011 146.231722 
L 158.388254 143.202336 
L 168.541044 143.202336 
L 158.770205 147.370757 
L 146.450065 147.370757 
L 138.926519 144.202006 
L 131.491799 147.370757 
L 119.162776 147.370757 
L 109.311994 143.202336 
z
" clip-path="url(#p4479202e9d)" style="fill: #6bc96b"/>
   </g>
   <g id="patch_20">
    <path d="M 168.541044 142.828848 
Q 163.586636 143.013977 158.22931 143.107618 
Q 152.871983 143.202336 147.037123 143.202336 
Q 129.637004 143.202336 119.474499 142.500567 
Q 109.311994 141.798798 109.311994 140.598687 
Q 109.311994 139.394271 119.474499 138.693578 
Q 129.637004 137.991809 147.037123 137.991809 
Q 152.871983 137.991809 158.22931 138.086526 
Q 163.586636 138.180167 168.541044 138.365297 
L 168.541044 139.403958 
Q 163.541867 139.158554 158.69192 139.044463 
Q 153.841973 138.930371 148.484646 138.930371 
Q 138.874289 138.930371 133.367733 139.374897 
Q 127.8761 139.818346 127.8761 140.598687 
Q 127.8761 141.375799 133.367733 141.820324 
Q 138.874289 142.263773 148.484646 142.263773 
Q 153.841973 142.263773 158.69192 142.149682 
Q 163.541867 142.034515 168.541044 141.789111 
L 168.541044 142.828848 
z
" clip-path="url(#p4479202e9d)" style="fill: #179999"/>
   </g>
   <g id="patch_21">
    <path d="M 109.928405 131.739178 
L 167.924633 131.739178 
L 167.924633 132.958615 
L 131.422386 132.958615 
L 131.422386 134.121771 
L 165.762728 134.121771 
L 165.762728 135.341208 
L 131.422386 135.341208 
L 131.422386 137.991809 
L 109.928405 137.991809 
L 109.928405 131.739178 
z
" clip-path="url(#p4479202e9d)" style="fill: #29fc2e"/>
   </g>
   <g id="patch_22">
    <path d="M 140.50596 130.804143 
L 139.346058 130.804143 
Q 125.118747 130.804143 117.2092 130.103417 
Q 109.311994 129.401591 109.311994 128.150845 
Q 109.311994 126.902298 117.196861 126.194972 
Q 125.081728 125.486546 138.926519 125.486546 
Q 152.919382 125.486546 160.730213 126.188372 
Q 168.541044 126.889098 168.541044 128.150845 
Q 168.541044 129.016577 164.39501 129.6425 
Q 160.248977 130.268423 152.462825 130.584135 
L 164.061847 131.739178 
L 149.908572 131.739178 
L 140.50596 130.804143 
z
M 138.926519 126.445782 
Q 132.139857 126.445782 128.401023 126.892398 
Q 124.662189 127.339015 124.662189 128.150845 
Q 124.662189 128.975875 128.314647 129.414792 
Q 131.979445 129.852608 138.926519 129.852608 
Q 145.750199 129.852608 149.489033 129.405991 
Q 153.227867 128.958275 153.227867 128.150845 
Q 153.227867 127.339015 149.489033 126.892398 
Q 145.750199 126.445782 138.926519 126.445782 
z
" clip-path="url(#p4479202e9d)" style="fill: #6669c9"/>
   </g>
   <g id="patch_23">
    <path d="M 109.311994 117.149704 
L 123.964856 117.149704 
L 138.944684 123.303172 
L 153.900291 117.149704 
L 168.541044 117.149704 
L 147.615303 125.486546 
L 130.237735 125.486546 
L 109.311994 117.149704 
z
" clip-path="url(#p4479202e9d)" style="fill: #ffcc45"/>
   </g>
   <g id="patch_24">
    <path d="M 109.311994 108.812862 
L 130.805975 108.812862 
L 130.805975 115.525574 
L 168.541044 115.525574 
L 168.541044 117.149704 
L 109.311994 117.149704 
L 109.311994 108.812862 
z
" clip-path="url(#p4479202e9d)" style="fill: #fc9940"/>
   </g>
   <g id="patch_25">
    <path d="M 109.311994 99.433914 
L 167.308222 99.433914 
L 167.308222 101.263071 
L 130.805975 101.263071 
L 130.805975 103.007804 
L 165.146317 103.007804 
L 165.146317 104.83696 
L 130.805975 104.83696 
L 130.805975 106.985716 
L 168.541044 106.985716 
L 168.541044 108.812862 
L 109.311994 108.812862 
L 109.311994 99.433914 
z
" clip-path="url(#p4479202e9d)" style="fill: #c90a38"/>
   </g>
   <g id="patch_26">
    <path d="M 163.602609 86.532991 
L 163.602609 89.297875 
Q 157.425543 88.816539 151.538028 88.573072 
Q 145.666598 88.326807 140.438613 88.326807 
Q 133.5055 88.326807 130.175676 88.659825 
Q 126.861938 88.990044 126.861938 89.68966 
Q 126.861938 90.215771 129.097907 90.50961 
Q 131.333876 90.80065 137.221391 91.010535 
L 145.457479 91.298777 
Q 157.972471 91.738136 163.248714 92.630846 
Q 168.541044 93.520758 168.541044 95.166256 
Q 168.541044 97.323872 161.173606 98.378893 
Q 153.806169 99.433914 138.669141 99.433914 
Q 131.542995 99.433914 124.352505 99.196045 
Q 117.162015 98.960974 109.971524 98.496429 
L 109.971524 95.655987 
Q 117.162015 96.319223 123.869922 96.657837 
Q 130.577829 96.993653 136.819239 96.993653 
Q 143.157165 96.993653 146.519162 96.627054 
Q 149.881159 96.257657 149.881159 95.574831 
Q 149.881159 94.964766 147.596931 94.631749 
Q 145.312704 94.298731 138.476108 94.035676 
L 130.979981 93.747434 
Q 119.719706 93.327664 114.507807 92.409768 
Q 109.311994 91.491871 109.311994 89.935925 
Q 109.311994 87.985395 116.550742 86.93597 
Q 123.789491 85.886546 137.366166 85.886546 
Q 143.559318 85.886546 150.090278 86.048857 
Q 156.621238 86.211168 163.602609 86.532991 
z
" clip-path="url(#p4479202e9d)" style="fill: #0a24fa"/>
   </g>
   <g id="patch_27">
    <path d="M 150.340009 82.089763 
L 127.561468 82.089763 
L 123.964856 85.886546 
L 109.311994 85.886546 
L 130.237735 65.044441 
L 147.615303 65.044441 
L 168.541044 85.886546 
L 153.900291 85.886546 
L 150.340009 82.089763 
z
M 131.194409 78.221511 
L 146.670738 78.221511 
L 138.944684 69.931124 
L 131.194409 78.221511 
z
" clip-path="url(#p4479202e9d)" style="fill: #fc996b"/>
   </g>
   <g id="patch_28">
    <path d="M 168.541044 61.461545 
Q 162.567697 63.252993 156.143031 64.152807 
Q 149.718365 65.044441 142.868928 65.044441 
Q 127.391323 65.044441 118.351658 59.710997 
Q 109.311994 54.377554 109.311994 45.256711 
Q 109.311994 36.029527 118.510948 30.736984 
Q 127.723175 25.444441 143.745018 25.444441 
Q 149.917477 25.444441 155.572245 26.164292 
Q 161.240287 26.875963 166.257898 28.282945 
L 166.257898 36.176769 
Q 161.080998 34.368961 155.957194 33.477327 
Q 150.83339 32.577512 145.683038 32.577512 
Q 136.152231 32.577512 130.988605 35.865924 
Q 125.824979 39.146155 125.824979 45.256711 
Q 125.824979 51.310006 130.802767 54.614777 
Q 135.780556 57.911369 144.939688 57.911369 
Q 147.435219 57.911369 149.57235 57.723226 
Q 151.709481 57.526903 153.408566 57.117897 
L 153.408566 49.706701 
L 143.6521 49.706701 
L 143.6521 43.105337 
L 168.541044 43.105337 
L 168.541044 61.461545 
z
" clip-path="url(#p4479202e9d)" style="fill: #f2f038"/>
   </g>
   <g id="patch_29">
    <path d="M 172.274773 158.833914 
L 230.271002 158.833914 
L 230.271002 159.240394 
L 193.768755 159.240394 
L 193.768755 159.628112 
L 228.109097 159.628112 
L 228.109097 160.034591 
L 193.768755 160.034591 
L 193.768755 160.918125 
L 172.274773 160.918125 
L 172.274773 158.833914 
z
" clip-path="url(#p4479202e9d)" style="fill: #29fc2e"/>
   </g>
   <g id="patch_30">
    <path d="M 171.658362 155.707599 
L 190.683623 155.707599 
L 214.723733 157.851664 
L 214.723733 155.707599 
L 230.887413 155.707599 
L 230.887413 158.833914 
L 211.847986 158.833914 
L 187.807876 156.689849 
L 187.807876 158.833914 
L 171.658362 158.833914 
L 171.658362 155.707599 
z
" clip-path="url(#p4479202e9d)" style="fill: #366666"/>
   </g>
   <g id="patch_31">
    <path d="M 230.887413 155.330452 
Q 224.914066 155.519025 218.4894 155.613742 
Q 212.064734 155.707599 205.215296 155.707599 
Q 189.737692 155.707599 180.698027 155.146184 
Q 171.658362 154.584768 171.658362 153.62468 
Q 171.658362 152.653397 180.857316 152.096287 
Q 190.069544 151.539178 206.091387 151.539178 
Q 212.263845 151.539178 217.918613 151.614951 
Q 223.586656 151.689864 228.604267 151.837968 
L 228.604267 152.668896 
Q 223.427366 152.478601 218.303562 152.384745 
Q 213.179759 152.290027 208.029406 152.290027 
Q 198.4986 152.290027 193.334974 152.636176 
Q 188.171347 152.981463 188.171347 153.62468 
Q 188.171347 154.261869 193.149136 154.609739 
Q 198.126925 154.956749 207.286057 154.956749 
Q 209.781588 154.956749 211.918719 154.936945 
Q 214.055849 154.916279 215.754935 154.873226 
L 215.754935 154.0931 
L 205.998468 154.0931 
L 205.998468 153.398219 
L 230.887413 153.398219 
L 230.887413 155.330452 
z
" clip-path="url(#p4479202e9d)" style="fill: #f2f038"/>
   </g>
   <g id="patch_32">
    <path d="M 171.658362 144.244441 
L 230.887413 144.244441 
L 230.887413 145.667118 
L 209.578729 145.667118 
L 209.578729 151.539178 
L 193.008369 151.539178 
L 193.008369 145.667118 
L 171.658362 145.667118 
L 171.658362 144.244441 
z
" clip-path="url(#p4479202e9d)" style="fill: #2bffff"/>
   </g>
   <g id="patch_33">
    <path d="M 171.658362 135.907599 
L 186.311225 135.907599 
L 201.291052 142.061067 
L 216.24666 135.907599 
L 230.887413 135.907599 
L 209.961672 144.244441 
L 192.584103 144.244441 
L 171.658362 135.907599 
z
" clip-path="url(#p4479202e9d)" style="fill: #ffcc45"/>
   </g>
   <g id="patch_34">
    <path d="M 230.887413 135.235321 
Q 225.933005 135.568554 220.575678 135.737108 
Q 215.218352 135.907599 209.383492 135.907599 
Q 191.983373 135.907599 181.820868 134.644415 
Q 171.658362 133.381231 171.658362 131.221031 
Q 171.658362 129.053082 181.820868 127.791835 
Q 191.983373 126.528651 209.383492 126.528651 
Q 215.218352 126.528651 220.575678 126.699142 
Q 225.933005 126.867696 230.887413 127.200929 
L 230.887413 129.070518 
Q 225.888236 128.628792 221.038289 128.423427 
Q 216.188341 128.218063 210.831015 128.218063 
Q 201.220657 128.218063 195.714102 129.018209 
Q 190.222469 129.816417 190.222469 131.221031 
Q 190.222469 132.619833 195.714102 133.419979 
Q 201.220657 134.218187 210.831015 134.218187 
Q 216.188341 134.218187 221.038289 134.012823 
Q 225.888236 133.805521 230.887413 133.363794 
L 230.887413 135.235321 
z
" clip-path="url(#p4479202e9d)" style="fill: #179999"/>
   </g>
   <g id="patch_35">
    <path d="M 225.948978 113.627728 
L 225.948978 116.392612 
Q 219.771912 115.911276 213.884396 115.667809 
Q 208.012967 115.421544 202.784982 115.421544 
Q 195.851869 115.421544 192.522045 115.754562 
Q 189.208306 116.08478 189.208306 116.784397 
Q 189.208306 117.310508 191.444275 117.604347 
Q 193.680245 117.895387 199.56776 118.105272 
L 207.803847 118.393514 
Q 220.31884 118.832873 225.595083 119.725583 
Q 230.887413 120.615495 230.887413 122.260992 
Q 230.887413 124.418609 223.519975 125.47363 
Q 216.152538 126.528651 201.01551 126.528651 
Q 193.889364 126.528651 186.698874 126.290782 
Q 179.508383 126.055711 172.317893 125.591166 
L 172.317893 122.750724 
Q 179.508383 123.41396 186.21629 123.752574 
Q 192.924197 124.08839 199.165607 124.08839 
Q 205.503534 124.08839 208.865531 123.721791 
Q 212.227527 123.352394 212.227527 122.669568 
Q 212.227527 122.059503 209.9433 121.726486 
Q 207.659073 121.393468 200.822477 121.130413 
L 193.32635 120.842171 
Q 182.066074 120.422401 176.854175 119.504504 
Q 171.658362 118.586608 171.658362 117.030662 
Q 171.658362 115.080132 178.897111 114.030707 
Q 186.13586 112.981283 199.712535 112.981283 
Q 205.905687 112.981283 212.436647 113.143594 
Q 218.967607 113.305905 225.948978 113.627728 
z
" clip-path="url(#p4479202e9d)" style="fill: #0a24fa"/>
   </g>
   <g id="patch_36">
    <path d="M 190.525897 98.391809 
L 212.019878 98.391809 
L 212.019878 112.981283 
L 190.525897 112.981283 
L 190.525897 98.391809 
z
" clip-path="url(#p4479202e9d)" style="fill: #cc993d"/>
   </g>
   <g id="patch_37">
    <path d="M 212.686378 95.354383 
L 189.907837 95.354383 
L 186.311225 98.391809 
L 171.658362 98.391809 
L 192.584103 81.718125 
L 209.961672 81.718125 
L 230.887413 98.391809 
L 216.24666 98.391809 
L 212.686378 95.354383 
z
M 193.540778 92.259781 
L 209.017107 92.259781 
L 201.291052 85.627471 
L 193.540778 92.259781 
z
" clip-path="url(#p4479202e9d)" style="fill: #fc996b"/>
   </g>
   <g id="patch_38">
    <path d="M 171.658362 60.87602 
L 189.130362 60.87602 
L 201.250063 72.029628 
L 213.44965 60.87602 
L 230.887413 60.87602 
L 230.887413 81.718125 
L 217.9118 81.718125 
L 217.9118 66.472925 
L 205.64374 77.711402 
L 196.936271 77.711402 
L 184.668212 66.472925 
L 184.668212 81.718125 
L 171.658362 81.718125 
L 171.658362 60.87602 
z
" clip-path="url(#p4479202e9d)" style="fill: #cc99cc"/>
   </g>
   <g id="patch_39">
    <path d="M 171.658362 22.318125 
L 193.152344 22.318125 
L 193.152344 53.36442 
L 230.887413 53.36442 
L 230.887413 60.87602 
L 171.658362 60.87602 
L 171.658362 22.318125 
z
" clip-path="url(#p4479202e9d)" style="fill: #fc9940"/>
   </g>
   <g id="patch_40">
    <path d="M 288.295346 159.925746 
L 288.295346 160.13843 
Q 282.118281 160.101404 276.230765 160.082676 
Q 270.359336 160.063732 265.13135 160.063732 
Q 258.198238 160.063732 254.868413 160.089349 
Q 251.554675 160.11475 251.554675 160.168567 
Q 251.554675 160.209037 253.790644 160.23164 
Q 256.026613 160.254028 261.914129 160.270173 
L 270.150216 160.292345 
Q 282.665208 160.326142 287.941452 160.394812 
Q 293.233781 160.463267 293.233781 160.589844 
Q 293.233781 160.755814 285.866344 160.83697 
Q 278.498906 160.918125 263.361879 160.918125 
Q 256.235733 160.918125 249.045242 160.899827 
Q 241.854752 160.881745 234.664262 160.846011 
L 234.664262 160.627515 
Q 241.854752 160.678533 248.562659 160.704581 
Q 255.270566 160.730413 261.511976 160.730413 
Q 267.849903 160.730413 271.211899 160.702213 
Q 274.573896 160.673797 274.573896 160.621272 
Q 274.573896 160.574344 272.289669 160.548728 
Q 270.005441 160.523111 263.168845 160.502876 
L 255.672719 160.480703 
Q 244.412443 160.448413 239.200544 160.377806 
Q 234.004731 160.307199 234.004731 160.18751 
Q 234.004731 160.03747 241.24348 159.956745 
Q 248.482228 159.87602 262.058904 159.87602 
Q 268.252055 159.87602 274.783015 159.888505 
Q 281.313975 159.900991 288.295346 159.925746 
z
" clip-path="url(#p4479202e9d)" style="fill: #0a24fa"/>
   </g>
   <g id="patch_41">
    <path d="M 258.036651 159.296005 
Q 263.352079 159.296005 265.658243 159.264738 
Q 267.964407 159.233247 267.964407 159.161331 
Q 267.964407 159.090086 265.658243 159.059488 
Q 263.352079 159.028667 258.036651 159.028667 
L 250.92129 159.028667 
L 250.92129 159.296005 
L 258.036651 159.296005 
z
M 250.92129 159.481601 
L 250.92129 159.87602 
L 234.004731 159.87602 
L 234.004731 158.833914 
L 259.836584 158.833914 
Q 272.801728 158.833914 278.834316 158.90315 
Q 284.880967 158.972162 284.880967 159.121577 
Q 284.880967 159.22476 281.731084 159.291092 
Q 278.595263 159.357424 272.267373 159.388915 
Q 275.740681 159.401422 278.482767 159.445867 
Q 281.238914 159.490088 284.05131 159.580094 
L 293.233781 159.87602 
L 275.220388 159.87602 
L 267.219123 159.617168 
Q 264.800462 159.538999 262.311492 159.510412 
Q 259.836584 159.481601 255.702363 159.481601 
L 250.92129 159.481601 
z
" clip-path="url(#p4479202e9d)" style="fill: #96050a"/>
   </g>
   <g id="patch_42">
    <path d="M 234.004731 155.707599 
L 251.47673 155.707599 
L 263.596432 157.38064 
L 275.796019 155.707599 
L 293.233781 155.707599 
L 293.233781 158.833914 
L 280.258169 158.833914 
L 280.258169 156.547134 
L 267.990109 158.232906 
L 259.28264 158.232906 
L 247.01458 156.547134 
L 247.01458 158.833914 
L 234.004731 158.833914 
L 234.004731 155.707599 
z
" clip-path="url(#p4479202e9d)" style="fill: #cc99cc"/>
   </g>
   <g id="patch_43">
    <path d="M 234.004731 151.539178 
L 251.046718 151.539178 
L 251.046718 153.127573 
L 276.191794 153.127573 
L 276.191794 151.539178 
L 293.233781 151.539178 
L 293.233781 155.707599 
L 276.191794 155.707599 
L 276.191794 153.940531 
L 251.046718 153.940531 
L 251.046718 155.707599 
L 234.004731 155.707599 
L 234.004731 151.539178 
z
" clip-path="url(#p4479202e9d)" style="fill: #660533"/>
   </g>
   <g id="patch_44">
    <path d="M 275.032746 150.400143 
L 252.254205 150.400143 
L 248.657594 151.539178 
L 234.004731 151.539178 
L 254.930472 145.286546 
L 272.30804 145.286546 
L 293.233781 151.539178 
L 278.593029 151.539178 
L 275.032746 150.400143 
z
M 255.887147 149.239667 
L 271.363476 149.239667 
L 263.637421 146.752551 
L 255.887147 149.239667 
z
" clip-path="url(#p4479202e9d)" style="fill: #fc996b"/>
   </g>
   <g id="patch_45">
    <path d="M 234.004731 139.033914 
L 293.233781 139.033914 
L 293.233781 140.253352 
L 271.925098 140.253352 
L 271.925098 145.286546 
L 255.354738 145.286546 
L 255.354738 140.253352 
L 234.004731 140.253352 
L 234.004731 139.033914 
z
" clip-path="url(#p4479202e9d)" style="fill: #2bffff"/>
   </g>
   <g id="patch_46">
    <path d="M 234.004731 128.612862 
L 255.498712 128.612862 
L 255.498712 137.003752 
L 293.233781 137.003752 
L 293.233781 139.033914 
L 234.004731 139.033914 
L 234.004731 128.612862 
z
" clip-path="url(#p4479202e9d)" style="fill: #fc9940"/>
   </g>
   <g id="patch_47">
    <path d="M 252.872266 116.107599 
L 274.366247 116.107599 
L 274.366247 128.612862 
L 252.872266 128.612862 
L 252.872266 116.107599 
z
" clip-path="url(#p4479202e9d)" style="fill: #cc993d"/>
   </g>
   <g id="patch_48">
    <path d="M 234.004731 103.602336 
L 248.657594 103.602336 
L 263.637421 112.832538 
L 278.593029 103.602336 
L 293.233781 103.602336 
L 272.30804 116.107599 
L 254.930472 116.107599 
L 234.004731 103.602336 
z
" clip-path="url(#p4479202e9d)" style="fill: #ffcc45"/>
   </g>
   <g id="patch_49">
    <path d="M 234.621142 86.928651 
L 292.61737 86.928651 
L 292.61737 90.180484 
L 256.115123 90.180484 
L 256.115123 93.282233 
L 290.455465 93.282233 
L 290.455465 96.534066 
L 256.115123 96.534066 
L 256.115123 103.602336 
L 234.621142 103.602336 
L 234.621142 86.928651 
z
" clip-path="url(#p4479202e9d)" style="fill: #29fc2e"/>
   </g>
   <g id="patch_50">
    <path d="M 234.004731 64.002336 
L 250.379822 64.002336 
L 263.606813 72.173459 
L 276.821362 64.002336 
L 293.233781 64.002336 
L 271.109989 77.268742 
L 271.109989 86.928651 
L 256.140967 86.928651 
L 256.140967 77.268742 
L 234.004731 64.002336 
z
" clip-path="url(#p4479202e9d)" style="fill: #0a660d"/>
   </g>
   <g id="patch_51">
    <path d="M 234.004731 22.318125 
L 244.246347 22.318125 
L 251.405707 52.611987 
L 258.511772 22.318125 
L 268.806684 22.318125 
L 275.912748 52.611987 
L 283.080991 22.318125 
L 293.233781 22.318125 
L 283.462942 64.002336 
L 271.142802 64.002336 
L 263.619256 32.314831 
L 256.184536 64.002336 
L 243.855514 64.002336 
L 234.004731 22.318125 
z
" clip-path="url(#p4479202e9d)" style="fill: #6bc96b"/>
   </g>
   <g id="patch_52">
    <path d="M 337.379115 160.728286 
L 314.600574 160.728286 
L 311.003962 160.918125 
L 296.3511 160.918125 
L 317.276841 159.87602 
L 334.654409 159.87602 
L 355.58015 160.918125 
L 340.939397 160.918125 
L 337.379115 160.728286 
z
M 318.233515 160.534873 
L 333.709845 160.534873 
L 325.98379 160.120354 
L 318.233515 160.534873 
z
" clip-path="url(#p4479202e9d)" style="fill: #fc996b"/>
   </g>
   <g id="patch_53">
    <path d="M 312.581748 159.037154 
L 312.581748 159.673004 
L 318.396719 159.673004 
Q 328.340184 159.673004 333.588498 159.591261 
Q 338.850305 159.509519 338.850305 159.35385 
Q 338.850305 159.199076 333.615482 159.118227 
Q 328.394151 159.037154 318.396719 159.037154 
L 312.581748 159.037154 
z
M 296.3511 158.833914 
L 313.458716 158.833914 
Q 327.800511 158.833914 334.816253 158.867862 
Q 341.831995 158.901587 346.850948 158.982659 
Q 351.276262 159.053235 353.42146 159.145474 
Q 355.58015 159.23749 355.58015 159.35385 
Q 355.58015 159.471997 353.42146 159.56446 
Q 351.276262 159.656923 346.850948 159.727275 
Q 341.791519 159.808348 334.708319 159.842295 
Q 327.625118 159.87602 313.458716 159.87602 
L 296.3511 159.87602 
L 296.3511 158.833914 
z
" clip-path="url(#p4479202e9d)" style="fill: #fc0d1c"/>
   </g>
   <g id="patch_54">
    <path d="M 296.967511 157.791809 
L 354.963739 157.791809 
L 354.963739 157.995049 
L 318.461492 157.995049 
L 318.461492 158.188908 
L 352.801834 158.188908 
L 352.801834 158.392148 
L 318.461492 158.392148 
L 318.461492 158.833914 
L 296.967511 158.833914 
L 296.967511 157.791809 
z
" clip-path="url(#p4479202e9d)" style="fill: #29fc2e"/>
   </g>
   <g id="patch_55">
    <path d="M 350.641715 156.799431 
L 350.641715 157.012114 
Q 344.464649 156.975088 338.577134 156.95636 
Q 332.705704 156.937416 327.477719 156.937416 
Q 320.544607 156.937416 317.214782 156.963033 
Q 313.901044 156.988435 313.901044 157.042251 
Q 313.901044 157.082721 316.137013 157.105324 
Q 318.372982 157.127712 324.260498 157.143857 
L 332.496585 157.166029 
Q 345.011577 157.199826 350.287821 157.268496 
Q 355.58015 157.336951 355.58015 157.463528 
Q 355.58015 157.629498 348.212713 157.710654 
Q 340.845275 157.791809 325.708247 157.791809 
Q 318.582101 157.791809 311.391611 157.773512 
Q 304.201121 157.755429 297.01063 157.719695 
L 297.01063 157.501199 
Q 304.201121 157.552218 310.909028 157.578265 
Q 317.616935 157.604097 323.858345 157.604097 
Q 330.196271 157.604097 333.558268 157.575897 
Q 336.920265 157.547482 336.920265 157.494957 
Q 336.920265 157.448029 334.636037 157.422412 
Q 332.35181 157.396795 325.515214 157.37656 
L 318.019088 157.354388 
Q 306.758812 157.322098 301.546913 157.25149 
Q 296.3511 157.180883 296.3511 157.061195 
Q 296.3511 156.911154 303.589849 156.830429 
Q 310.828597 156.749704 324.405273 156.749704 
Q 330.598424 156.749704 337.129384 156.762189 
Q 343.660344 156.774675 350.641715 156.799431 
z
" clip-path="url(#p4479202e9d)" style="fill: #0a24fa"/>
   </g>
   <g id="patch_56">
    <path d="M 296.3511 155.707599 
L 315.37636 155.707599 
L 339.41647 156.422287 
L 339.41647 155.707599 
L 355.58015 155.707599 
L 355.58015 156.749704 
L 336.540723 156.749704 
L 312.500614 156.035015 
L 312.500614 156.749704 
L 296.3511 156.749704 
L 296.3511 155.707599 
z
" clip-path="url(#p4479202e9d)" style="fill: #366666"/>
   </g>
   <g id="patch_57">
    <path d="M 296.3511 153.623388 
L 355.58015 153.623388 
L 355.58015 154.029867 
L 334.271466 154.029867 
L 334.271466 155.707599 
L 317.701106 155.707599 
L 317.701106 154.029867 
L 296.3511 154.029867 
L 296.3511 153.623388 
z
" clip-path="url(#p4479202e9d)" style="fill: #2bffff"/>
   </g>
   <g id="patch_58">
    <path d="M 296.3511 151.539178 
L 312.72619 151.539178 
L 325.953182 152.282007 
L 339.167731 151.539178 
L 355.58015 151.539178 
L 333.456358 152.745215 
L 333.456358 153.623388 
L 318.487335 153.623388 
L 318.487335 152.745215 
L 296.3511 151.539178 
z
" clip-path="url(#p4479202e9d)" style="fill: #0a660d"/>
   </g>
   <g id="patch_59">
    <path d="M 320.38302 148.059091 
Q 325.698447 148.059091 328.004612 147.871485 
Q 330.310776 147.682539 330.310776 147.251046 
Q 330.310776 146.823573 328.004612 146.639988 
Q 325.698447 146.455062 320.38302 146.455062 
L 313.267659 146.455062 
L 313.267659 148.059091 
L 320.38302 148.059091 
z
M 313.267659 149.172665 
L 313.267659 151.539178 
L 296.3511 151.539178 
L 296.3511 145.286546 
L 322.182953 145.286546 
Q 335.148096 145.286546 341.180685 145.701959 
Q 347.227335 146.116031 347.227335 147.012519 
Q 347.227335 147.631618 344.077452 148.02961 
Q 340.941631 148.427602 334.613741 148.616548 
Q 338.08705 148.69159 340.829135 148.958259 
Q 343.585283 149.223587 346.397679 149.763623 
L 355.58015 151.539178 
L 337.566757 151.539178 
L 329.565491 149.98607 
Q 327.146831 149.517056 324.657861 149.34553 
Q 322.182953 149.172665 318.048732 149.172665 
L 313.267659 149.172665 
z
" clip-path="url(#p4479202e9d)" style="fill: #96050a"/>
   </g>
   <g id="patch_60">
    <path d="M 315.218634 139.033914 
L 336.712616 139.033914 
L 336.712616 145.286546 
L 315.218634 145.286546 
L 315.218634 139.033914 
z
" clip-path="url(#p4479202e9d)" style="fill: #cc993d"/>
   </g>
   <g id="patch_61">
    <path d="M 296.3511 130.697072 
L 311.003962 130.697072 
L 325.98379 136.850541 
L 340.939397 130.697072 
L 355.58015 130.697072 
L 334.654409 139.033914 
L 317.276841 139.033914 
L 296.3511 130.697072 
z
" clip-path="url(#p4479202e9d)" style="fill: #ffcc45"/>
   </g>
   <g id="patch_62">
    <path d="M 327.545066 128.827003 
L 326.385164 128.827003 
Q 312.157853 128.827003 304.248307 127.425551 
Q 296.3511 126.021899 296.3511 123.520407 
Q 296.3511 121.023314 304.235967 119.608662 
Q 312.120834 118.191809 325.965625 118.191809 
Q 339.958488 118.191809 347.769319 119.595461 
Q 355.58015 120.996913 355.58015 123.520407 
Q 355.58015 125.251871 351.434117 126.503717 
Q 347.288083 127.755563 339.501931 128.386987 
L 351.100953 130.697072 
L 336.947678 130.697072 
L 327.545066 128.827003 
z
M 325.965625 120.11028 
Q 319.178963 120.11028 315.440129 121.003513 
Q 311.701295 121.896746 311.701295 123.520407 
Q 311.701295 125.170468 315.353753 126.0483 
Q 319.018551 126.923933 325.965625 126.923933 
Q 332.789305 126.923933 336.528139 126.0307 
Q 340.266973 125.135266 340.266973 123.520407 
Q 340.266973 121.896746 336.528139 121.003513 
Q 332.789305 120.11028 325.965625 120.11028 
z
" clip-path="url(#p4479202e9d)" style="fill: #6669c9"/>
   </g>
   <g id="patch_63">
    <path d="M 296.3511 96.307599 
L 317.845081 96.307599 
L 317.845081 113.928469 
L 355.58015 113.928469 
L 355.58015 118.191809 
L 296.3511 118.191809 
L 296.3511 96.307599 
z
" clip-path="url(#p4479202e9d)" style="fill: #fc9940"/>
   </g>
   <g id="patch_64">
    <path d="M 296.3511 64.002336 
L 313.823099 64.002336 
L 325.942801 81.290429 
L 338.142387 64.002336 
L 355.58015 64.002336 
L 355.58015 96.307599 
L 342.604537 96.307599 
L 342.604537 72.677538 
L 330.336478 90.097178 
L 321.629009 90.097178 
L 309.360949 72.677538 
L 309.360949 96.307599 
L 296.3511 96.307599 
L 296.3511 64.002336 
z
" clip-path="url(#p4479202e9d)" style="fill: #cc99cc"/>
   </g>
   <g id="patch_65">
    <path d="M 296.3511 24.402336 
L 354.347328 24.402336 
L 354.347328 32.125439 
L 317.845081 32.125439 
L 317.845081 39.492091 
L 352.185423 39.492091 
L 352.185423 47.215195 
L 317.845081 47.215195 
L 317.845081 56.287719 
L 355.58015 56.287719 
L 355.58015 64.002336 
L 296.3511 64.002336 
L 296.3511 24.402336 
z
" clip-path="url(#p4479202e9d)" style="fill: #c90a38"/>
   </g>
   <g id="patch_66">
    <path d="M 358.697469 159.87602 
L 375.072559 159.87602 
L 388.299551 160.247434 
L 401.514099 159.87602 
L 417.926519 159.87602 
L 395.802727 160.479038 
L 395.802727 160.918125 
L 380.833704 160.918125 
L 380.833704 160.479038 
L 358.697469 159.87602 
z
" clip-path="url(#p4479202e9d)" style="fill: #0a660d"/>
   </g>
   <g id="patch_67">
    <path d="M 358.697469 158.833914 
L 374.305913 158.833914 
L 374.305913 159.214263 
L 396.80387 158.833914 
L 414.929386 158.833914 
L 385.775459 159.327496 
L 417.926519 159.87602 
L 398.386771 159.87602 
L 374.305913 159.46552 
L 374.305913 159.87602 
L 358.697469 159.87602 
L 358.697469 158.833914 
z
" clip-path="url(#p4479202e9d)" style="fill: #663308"/>
   </g>
   <g id="patch_68">
    <path d="M 382.729389 157.673886 
Q 388.044816 157.673886 390.35098 157.61135 
Q 392.657145 157.548368 392.657145 157.404537 
Q 392.657145 157.262046 390.35098 157.200851 
Q 388.044816 157.139209 382.729389 157.139209 
L 375.614028 157.139209 
L 375.614028 157.673886 
L 382.729389 157.673886 
z
M 375.614028 158.045077 
L 375.614028 158.833914 
L 358.697469 158.833914 
L 358.697469 156.749704 
L 384.529322 156.749704 
Q 397.494465 156.749704 403.527054 156.888175 
Q 409.573704 157.026199 409.573704 157.325028 
Q 409.573704 157.531395 406.423821 157.664059 
Q 403.288 157.796723 396.96011 157.859705 
Q 400.433419 157.884719 403.175504 157.973608 
Q 405.931652 158.062051 408.744047 158.242063 
L 417.926519 158.833914 
L 399.913125 158.833914 
L 391.91186 158.316212 
Q 389.4932 158.159874 387.00423 158.102699 
Q 384.529322 158.045077 380.3951 158.045077 
L 375.614028 158.045077 
z
" clip-path="url(#p4479202e9d)" style="fill: #96050a"/>
   </g>
   <g id="patch_69">
    <path d="M 412.988084 153.772568 
L 412.988084 154.410618 
Q 406.811018 154.29954 400.923503 154.243356 
Q 395.052073 154.186525 389.824088 154.186525 
Q 382.890975 154.186525 379.561151 154.263376 
Q 376.247413 154.33958 376.247413 154.50103 
Q 376.247413 154.62244 378.483382 154.690249 
Q 380.719351 154.757412 386.606866 154.805847 
L 394.842954 154.872365 
Q 407.357946 154.973755 412.634189 155.179765 
Q 417.926519 155.385129 417.926519 155.76486 
Q 417.926519 156.262771 410.559081 156.506238 
Q 403.191644 156.749704 388.054616 156.749704 
Q 380.92847 156.749704 373.73798 156.694811 
Q 366.547489 156.640564 359.356999 156.533361 
L 359.356999 155.877875 
Q 366.547489 156.030929 373.255396 156.109071 
Q 379.963304 156.186567 386.204714 156.186567 
Q 392.54264 156.186567 395.904637 156.101967 
Q 399.266633 156.016721 399.266633 155.859146 
Q 399.266633 155.718362 396.982406 155.641512 
Q 394.698179 155.564662 387.861583 155.503957 
L 380.365456 155.437439 
Q 369.105181 155.340569 363.893282 155.128747 
Q 358.697469 154.916925 358.697469 154.55786 
Q 358.697469 154.107738 365.936217 153.865563 
Q 373.174966 153.623388 386.751641 153.623388 
Q 392.944793 153.623388 399.475753 153.660845 
Q 406.006713 153.698301 412.988084 153.772568 
z
" clip-path="url(#p4479202e9d)" style="fill: #0a24fa"/>
   </g>
   <g id="patch_70">
    <path d="M 358.697469 149.454967 
L 417.926519 149.454967 
L 417.926519 150.267925 
L 396.617835 150.267925 
L 396.617835 153.623388 
L 380.047475 153.623388 
L 380.047475 150.267925 
L 358.697469 150.267925 
L 358.697469 149.454967 
z
" clip-path="url(#p4479202e9d)" style="fill: #2bffff"/>
   </g>
   <g id="patch_71">
    <path d="M 389.891435 148.364093 
L 388.731533 148.364093 
Q 374.504221 148.364093 366.594675 147.54658 
Q 358.697469 146.727783 358.697469 145.268579 
Q 358.697469 143.811941 366.582336 142.986728 
Q 374.467203 142.16023 388.311994 142.16023 
Q 402.304857 142.16023 410.115688 142.979027 
Q 417.926519 143.796541 417.926519 145.268579 
Q 417.926519 146.278599 413.780485 147.008843 
Q 409.634452 147.739087 401.8483 148.107417 
L 413.447322 149.454967 
L 399.294047 149.454967 
L 389.891435 148.364093 
z
M 388.311994 143.279338 
Q 381.525332 143.279338 377.786498 143.800391 
Q 374.047664 144.321444 374.047664 145.268579 
Q 374.047664 146.231114 377.700122 146.743183 
Q 381.36492 147.253969 388.311994 147.253969 
Q 395.135674 147.253969 398.874508 146.732916 
Q 402.613341 146.21058 402.613341 145.268579 
Q 402.613341 144.321444 398.874508 143.800391 
Q 395.135674 143.279338 388.311994 143.279338 
z
" clip-path="url(#p4479202e9d)" style="fill: #6669c9"/>
   </g>
   <g id="patch_72">
    <path d="M 358.697469 133.823388 
L 377.722729 133.823388 
L 401.762839 139.540897 
L 401.762839 133.823388 
L 417.926519 133.823388 
L 417.926519 142.16023 
L 398.887092 142.16023 
L 374.846982 136.442722 
L 374.846982 142.16023 
L 358.697469 142.16023 
L 358.697469 133.823388 
z
" clip-path="url(#p4479202e9d)" style="fill: #366666"/>
   </g>
   <g id="patch_73">
    <path d="M 399.725484 132.304675 
L 376.946943 132.304675 
L 373.350331 133.823388 
L 358.697469 133.823388 
L 379.62321 125.486546 
L 397.000778 125.486546 
L 417.926519 133.823388 
L 403.285766 133.823388 
L 399.725484 132.304675 
z
M 380.579884 130.757374 
L 396.056213 130.757374 
L 388.330158 127.441219 
L 380.579884 130.757374 
z
" clip-path="url(#p4479202e9d)" style="fill: #fc996b"/>
   </g>
   <g id="patch_74">
    <path d="M 358.697469 115.065493 
L 389.484235 115.065493 
Q 403.227226 115.065493 410.56916 115.949921 
Q 417.926519 116.832114 417.926519 118.464731 
Q 417.926519 120.106281 410.56916 120.988475 
Q 403.227226 121.870669 389.484235 121.870669 
L 377.252819 121.870669 
L 377.252819 125.486546 
L 358.697469 125.486546 
L 358.697469 115.065493 
z
M 377.252819 117.01302 
L 377.252819 119.923142 
L 387.509934 119.923142 
Q 392.908415 119.923142 395.854443 119.543464 
Q 398.800471 119.163786 398.800471 118.464731 
Q 398.800471 117.76791 395.854443 117.390465 
Q 392.908415 117.01302 387.509934 117.01302 
L 377.252819 117.01302 
z
" clip-path="url(#p4479202e9d)" style="fill: #1a9cfc"/>
   </g>
   <g id="patch_75">
    <path d="M 374.928117 93.254985 
L 374.928117 109.787072 
L 380.743088 109.787072 
Q 390.686552 109.787072 395.934867 107.661767 
Q 401.196673 105.536461 401.196673 101.489091 
Q 401.196673 97.464947 395.961851 95.36287 
Q 390.74052 93.254985 380.743088 93.254985 
L 374.928117 93.254985 
z
M 358.697469 87.970757 
L 375.805085 87.970757 
Q 390.14688 87.970757 397.162622 88.853397 
Q 404.178363 89.73023 409.197317 91.838115 
Q 413.622631 93.673078 415.767829 96.071305 
Q 417.926519 98.463725 417.926519 101.489091 
Q 417.926519 104.560912 415.767829 106.964945 
Q 413.622631 109.368979 409.197317 111.198135 
Q 404.137888 113.30602 397.054687 114.18866 
Q 389.971486 115.065493 375.805085 115.065493 
L 358.697469 115.065493 
L 358.697469 87.970757 
z
" clip-path="url(#p4479202e9d)" style="fill: #fc0d1c"/>
   </g>
   <g id="patch_76">
    <path d="M 358.697469 59.833914 
L 416.693697 59.833914 
L 416.693697 65.321383 
L 380.19145 65.321383 
L 380.19145 70.555583 
L 414.531792 70.555583 
L 414.531792 76.043051 
L 380.19145 76.043051 
L 380.19145 82.489319 
L 417.926519 82.489319 
L 417.926519 87.970757 
L 358.697469 87.970757 
L 358.697469 59.833914 
z
" clip-path="url(#p4479202e9d)" style="fill: #c90a38"/>
   </g>
   <g id="patch_77">
    <path d="M 417.926519 56.628165 
Q 411.953172 58.23104 405.528506 59.036137 
Q 399.10384 59.833914 392.254402 59.833914 
Q 376.776798 59.833914 367.737133 55.061886 
Q 358.697469 50.289858 358.697469 42.129104 
Q 358.697469 33.873202 367.896422 29.137769 
Q 377.10865 24.402336 393.130493 24.402336 
Q 399.302951 24.402336 404.95772 25.046413 
Q 410.625762 25.683171 415.643373 26.94205 
L 415.643373 34.004945 
Q 410.466473 32.387432 405.342669 31.589654 
Q 400.218865 30.784558 395.068512 30.784558 
Q 385.537706 30.784558 380.37408 33.72682 
Q 375.210453 36.661764 375.210453 42.129104 
Q 375.210453 47.545209 380.188242 50.50211 
Q 385.166031 53.451692 394.325163 53.451692 
Q 396.820694 53.451692 398.957825 53.283354 
Q 401.094955 53.107697 402.794041 52.741743 
L 402.794041 46.110673 
L 393.037575 46.110673 
L 393.037575 40.20419 
L 417.926519 40.20419 
L 417.926519 56.628165 
z
" clip-path="url(#p4479202e9d)" style="fill: #f2f038"/>
   </g>
   <g id="patch_78">
    <path d="M 421.043837 159.87602 
L 442.537818 159.87602 
L 442.537818 160.715109 
L 480.272888 160.715109 
L 480.272888 160.918125 
L 421.043837 160.918125 
L 421.043837 159.87602 
z
" clip-path="url(#p4479202e9d)" style="fill: #fc9940"/>
   </g>
   <g id="patch_79">
    <path d="M 439.911372 158.833914 
L 461.405353 158.833914 
L 461.405353 159.87602 
L 439.911372 159.87602 
L 439.911372 158.833914 
z
" clip-path="url(#p4479202e9d)" style="fill: #cc993d"/>
   </g>
   <g id="patch_80">
    <path d="M 421.043837 157.791809 
L 435.6967 157.791809 
L 450.676527 158.560993 
L 465.632135 157.791809 
L 480.272888 157.791809 
L 459.347147 158.833914 
L 441.969578 158.833914 
L 421.043837 157.791809 
z
" clip-path="url(#p4479202e9d)" style="fill: #ffcc45"/>
   </g>
   <g id="patch_81">
    <path d="M 445.075757 157.211795 
Q 450.391185 157.211795 452.697349 157.180527 
Q 455.003514 157.149036 455.003514 157.077121 
Q 455.003514 157.005875 452.697349 156.975278 
Q 450.391185 156.944457 445.075757 156.944457 
L 437.960397 156.944457 
L 437.960397 157.211795 
L 445.075757 157.211795 
z
M 437.960397 157.39739 
L 437.960397 157.791809 
L 421.043837 157.791809 
L 421.043837 156.749704 
L 446.87569 156.749704 
Q 459.840834 156.749704 465.873422 156.818939 
Q 471.920073 156.887952 471.920073 157.037366 
Q 471.920073 157.140549 468.77019 157.206881 
Q 465.634369 157.273213 459.306479 157.304704 
Q 462.779787 157.317211 465.521873 157.361656 
Q 468.278021 157.405877 471.090416 157.495883 
L 480.272888 157.791809 
L 462.259494 157.791809 
L 454.258229 157.532958 
Q 451.839569 157.454789 449.350598 157.426201 
Q 446.87569 157.39739 442.741469 157.39739 
L 437.960397 157.39739 
z
" clip-path="url(#p4479202e9d)" style="fill: #96050a"/>
   </g>
   <g id="patch_82">
    <path d="M 421.043837 154.665493 
L 438.085824 154.665493 
L 438.085824 155.459691 
L 463.230901 155.459691 
L 463.230901 154.665493 
L 480.272888 154.665493 
L 480.272888 156.749704 
L 463.230901 156.749704 
L 463.230901 155.86617 
L 438.085824 155.86617 
L 438.085824 156.749704 
L 421.043837 156.749704 
L 421.043837 154.665493 
z
" clip-path="url(#p4479202e9d)" style="fill: #660533"/>
   </g>
   <g id="patch_83">
    <path d="M 421.043837 152.581283 
L 431.285453 152.581283 
L 438.444814 154.095976 
L 445.550878 152.581283 
L 455.84579 152.581283 
L 462.951855 154.095976 
L 470.120097 152.581283 
L 480.272888 152.581283 
L 470.502048 154.665493 
L 458.181909 154.665493 
L 450.658362 153.081118 
L 443.223642 154.665493 
L 430.89462 154.665493 
L 421.043837 152.581283 
z
" clip-path="url(#p4479202e9d)" style="fill: #6bc96b"/>
   </g>
   <g id="patch_84">
    <path d="M 480.272888 152.204136 
Q 474.299541 152.392709 467.874875 152.487427 
Q 461.450209 152.581283 454.600771 152.581283 
Q 439.123166 152.581283 430.083502 152.019868 
Q 421.043837 151.458453 421.043837 150.498364 
Q 421.043837 149.527081 430.242791 148.969972 
Q 439.455019 148.412862 455.476862 148.412862 
Q 461.64932 148.412862 467.304088 148.488636 
Q 472.972131 148.563548 477.989742 148.711652 
L 477.989742 149.542581 
Q 472.812841 149.352285 467.689037 149.258429 
Q 462.565233 149.163711 457.414881 149.163711 
Q 447.884075 149.163711 442.720448 149.50986 
Q 437.556822 149.855148 437.556822 150.498364 
Q 437.556822 151.135553 442.534611 151.483424 
Q 447.5124 151.830433 456.671531 151.830433 
Q 459.167063 151.830433 461.304194 151.810629 
Q 463.441324 151.789963 465.140409 151.74691 
L 465.140409 150.966784 
L 455.383943 150.966784 
L 455.383943 150.271904 
L 480.272888 150.271904 
L 480.272888 152.204136 
z
" clip-path="url(#p4479202e9d)" style="fill: #f2f038"/>
   </g>
   <g id="patch_85">
    <path d="M 437.274486 143.379668 
L 437.274486 147.194765 
L 443.089456 147.194765 
Q 453.032921 147.194765 458.281236 146.704309 
Q 463.543042 146.213854 463.543042 145.279846 
Q 463.543042 144.351197 458.308219 143.866103 
Q 453.086888 143.379668 443.089456 143.379668 
L 437.274486 143.379668 
z
M 421.043837 142.16023 
L 438.151454 142.16023 
Q 452.493249 142.16023 459.50899 142.363917 
Q 466.524732 142.566263 471.543686 143.052698 
Q 475.969 143.476151 478.114198 144.029588 
Q 480.272888 144.581684 480.272888 145.279846 
Q 480.272888 145.988728 478.114198 146.543505 
Q 475.969 147.098282 471.543686 147.520394 
Q 466.484257 148.006829 459.401056 148.210516 
Q 452.317855 148.412862 438.151454 148.412862 
L 421.043837 148.412862 
L 421.043837 142.16023 
z
" clip-path="url(#p4479202e9d)" style="fill: #fc0d1c"/>
   </g>
   <g id="patch_86">
    <path d="M 421.043837 135.907599 
L 479.040066 135.907599 
L 479.040066 137.127036 
L 442.537818 137.127036 
L 442.537818 138.290192 
L 476.878161 138.290192 
L 476.878161 139.509629 
L 442.537818 139.509629 
L 442.537818 140.942133 
L 480.272888 140.942133 
L 480.272888 142.16023 
L 421.043837 142.16023 
L 421.043837 135.907599 
z
" clip-path="url(#p4479202e9d)" style="fill: #c90a38"/>
   </g>
   <g id="patch_87">
    <path d="M 421.043837 129.654967 
L 438.515837 129.654967 
L 450.635538 133.00105 
L 462.835125 129.654967 
L 480.272888 129.654967 
L 480.272888 135.907599 
L 467.297275 135.907599 
L 467.297275 131.334039 
L 455.029215 134.705582 
L 446.321746 134.705582 
L 434.053686 131.334039 
L 434.053686 135.907599 
L 421.043837 135.907599 
L 421.043837 129.654967 
z
" clip-path="url(#p4479202e9d)" style="fill: #cc99cc"/>
   </g>
   <g id="patch_88">
    <path d="M 421.043837 122.36023 
L 480.272888 122.36023 
L 480.272888 123.782907 
L 458.964204 123.782907 
L 458.964204 129.654967 
L 442.393844 129.654967 
L 442.393844 123.782907 
L 421.043837 123.782907 
L 421.043837 122.36023 
z
" clip-path="url(#p4479202e9d)" style="fill: #2bffff"/>
   </g>
   <g id="patch_89">
    <path d="M 421.043837 115.065493 
L 437.418928 115.065493 
L 450.645919 117.665396 
L 463.860468 115.065493 
L 480.272888 115.065493 
L 458.149095 119.286623 
L 458.149095 122.36023 
L 443.180073 122.36023 
L 443.180073 119.286623 
L 421.043837 115.065493 
z
" clip-path="url(#p4479202e9d)" style="fill: #0a660d"/>
   </g>
   <g id="patch_90">
    <path d="M 462.071852 113.356941 
L 439.293312 113.356941 
L 435.6967 115.065493 
L 421.043837 115.065493 
L 441.969578 105.686546 
L 459.347147 105.686546 
L 480.272888 115.065493 
L 465.632135 115.065493 
L 462.071852 113.356941 
z
M 442.926253 111.616228 
L 458.402582 111.616228 
L 450.676527 107.885553 
L 442.926253 111.616228 
z
" clip-path="url(#p4479202e9d)" style="fill: #fc996b"/>
   </g>
   <g id="patch_91">
    <path d="M 452.237804 104.128155 
L 451.077902 104.128155 
Q 436.85059 104.128155 428.941044 102.960278 
Q 421.043837 101.790568 421.043837 99.705991 
Q 421.043837 97.625081 428.928705 96.446204 
Q 436.813572 95.265493 450.658362 95.265493 
Q 464.651226 95.265493 472.462057 96.435203 
Q 480.272888 97.60308 480.272888 99.705991 
Q 480.272888 101.148878 476.126854 102.192083 
Q 471.980821 103.235289 464.194668 103.761475 
L 475.793691 105.686546 
L 461.640416 105.686546 
L 452.237804 104.128155 
z
M 450.658362 96.864219 
Q 443.8717 96.864219 440.132867 97.60858 
Q 436.394033 98.352941 436.394033 99.705991 
Q 436.394033 101.081042 440.046491 101.812569 
Q 443.711288 102.542263 450.658362 102.542263 
Q 457.482043 102.542263 461.220876 101.797902 
Q 464.95971 101.051708 464.95971 99.705991 
Q 464.95971 98.352941 461.220876 97.60858 
Q 457.482043 96.864219 450.658362 96.864219 
z
" clip-path="url(#p4479202e9d)" style="fill: #6669c9"/>
   </g>
   <g id="patch_92">
    <path d="M 421.043837 81.718125 
L 451.830604 81.718125 
Q 465.573595 81.718125 472.915529 82.86788 
Q 480.272888 84.014732 480.272888 86.137134 
Q 480.272888 88.271149 472.915529 89.418001 
Q 465.573595 90.564853 451.830604 90.564853 
L 439.599188 90.564853 
L 439.599188 95.265493 
L 421.043837 95.265493 
L 421.043837 81.718125 
z
M 439.599188 84.249909 
L 439.599188 88.033068 
L 449.856302 88.033068 
Q 455.254784 88.033068 458.200812 87.539487 
Q 461.14684 87.045905 461.14684 86.137134 
Q 461.14684 85.231266 458.200812 84.740588 
Q 455.254784 84.249909 449.856302 84.249909 
L 439.599188 84.249909 
z
" clip-path="url(#p4479202e9d)" style="fill: #1a9cfc"/>
   </g>
   <g id="patch_93">
    <path d="M 475.334452 67.824823 
L 475.334452 70.80239 
Q 469.157387 70.284028 463.269871 70.021833 
Q 457.398442 69.756625 452.170457 69.756625 
Q 445.237344 69.756625 441.90752 70.115259 
Q 438.593781 70.470879 438.593781 71.224312 
Q 438.593781 71.790894 440.82975 72.107336 
Q 443.065719 72.420764 448.953235 72.646794 
L 457.189322 72.957208 
Q 469.704315 73.430364 474.980558 74.391744 
Q 480.272888 75.350111 480.272888 77.122185 
Q 480.272888 79.445772 472.90545 80.581948 
Q 465.538012 81.718125 450.400985 81.718125 
Q 443.274839 81.718125 436.084348 81.461958 
Q 428.893858 81.208804 421.703368 80.708525 
L 421.703368 77.649588 
Q 428.893858 78.363842 435.601765 78.728503 
Q 442.309672 79.090151 448.551082 79.090151 
Q 454.889009 79.090151 458.251005 78.695352 
Q 461.613002 78.29754 461.613002 77.562189 
Q 461.613002 76.905196 459.328775 76.546562 
Q 457.044547 76.187928 450.207951 75.904637 
L 442.711825 75.594223 
Q 431.451549 75.142163 426.23965 74.153659 
Q 421.043837 73.165155 421.043837 71.489521 
Q 421.043837 69.38895 428.282586 68.258801 
Q 435.521335 67.128651 449.09801 67.128651 
Q 455.291162 67.128651 461.822121 67.303448 
Q 468.353081 67.478244 475.334452 67.824823 
z
" clip-path="url(#p4479202e9d)" style="fill: #0a24fa"/>
   </g>
   <g id="patch_94">
    <path d="M 421.043837 48.370757 
L 440.069098 48.370757 
L 464.109208 61.235151 
L 464.109208 48.370757 
L 480.272888 48.370757 
L 480.272888 67.128651 
L 461.233461 67.128651 
L 437.193351 54.264257 
L 437.193351 67.128651 
L 421.043837 67.128651 
L 421.043837 48.370757 
z
" clip-path="url(#p4479202e9d)" style="fill: #366666"/>
   </g>
   <g id="patch_95">
    <path d="M 421.043837 23.36023 
L 436.652281 23.36023 
L 436.652281 32.48859 
L 459.150238 23.36023 
L 477.275755 23.36023 
L 448.121828 35.206193 
L 480.272888 48.370757 
L 460.73314 48.370757 
L 436.652281 38.518775 
L 436.652281 48.370757 
L 421.043837 48.370757 
L 421.043837 23.36023 
z
" clip-path="url(#p4479202e9d)" style="fill: #663308"/>
   </g>
   <g id="patch_96">
    <path d="M 484.006617 159.87602 
L 542.002845 159.87602 
L 542.002845 160.079259 
L 505.500598 160.079259 
L 505.500598 160.273119 
L 539.84094 160.273119 
L 539.84094 160.476358 
L 505.500598 160.476358 
L 505.500598 160.918125 
L 484.006617 160.918125 
L 484.006617 159.87602 
z
" clip-path="url(#p4479202e9d)" style="fill: #29fc2e"/>
   </g>
   <g id="patch_97">
    <path d="M 502.257741 158.833914 
L 523.751722 158.833914 
L 523.751722 159.87602 
L 502.257741 159.87602 
L 502.257741 158.833914 
z
" clip-path="url(#p4479202e9d)" style="fill: #cc993d"/>
   </g>
   <g id="patch_98">
    <path d="M 514.584172 158.678075 
L 513.42427 158.678075 
Q 499.196959 158.678075 491.287413 158.561288 
Q 483.390206 158.444317 483.390206 158.235859 
Q 483.390206 158.027768 491.275073 157.90988 
Q 499.159941 157.791809 513.004731 157.791809 
Q 526.997594 157.791809 534.808425 157.90878 
Q 542.619256 158.025568 542.619256 158.235859 
Q 542.619256 158.380148 538.473223 158.484468 
Q 534.327189 158.588789 526.541037 158.641407 
L 538.140059 158.833914 
L 523.986784 158.833914 
L 514.584172 158.678075 
z
M 513.004731 157.951682 
Q 506.218069 157.951682 502.479235 158.026118 
Q 498.740402 158.100554 498.740402 158.235859 
Q 498.740402 158.373364 502.39286 158.446517 
Q 506.057657 158.519486 513.004731 158.519486 
Q 519.828411 158.519486 523.567245 158.44505 
Q 527.306079 158.370431 527.306079 158.235859 
Q 527.306079 158.100554 523.567245 158.026118 
Q 519.828411 157.951682 513.004731 157.951682 
z
" clip-path="url(#p4479202e9d)" style="fill: #6669c9"/>
   </g>
   <g id="patch_99">
    <path d="M 499.620855 156.114078 
L 499.620855 157.385777 
L 505.435825 157.385777 
Q 515.37929 157.385777 520.627604 157.222292 
Q 525.889411 157.058807 525.889411 156.747471 
Q 525.889411 156.437921 520.654588 156.276223 
Q 515.433257 156.114078 505.435825 156.114078 
L 499.620855 156.114078 
z
M 483.390206 155.707599 
L 500.497822 155.707599 
Q 514.839617 155.707599 521.855359 155.775494 
Q 528.871101 155.842943 533.890055 156.005088 
Q 538.315369 156.146239 540.460567 156.330718 
Q 542.619256 156.51475 542.619256 156.747471 
Q 542.619256 156.983764 540.460567 157.16869 
Q 538.315369 157.353616 533.890055 157.49432 
Q 528.830625 157.656465 521.747425 157.72436 
Q 514.664224 157.791809 500.497822 157.791809 
L 483.390206 157.791809 
L 483.390206 155.707599 
z
" clip-path="url(#p4479202e9d)" style="fill: #fc0d1c"/>
   </g>
   <g id="patch_100">
    <path d="M 542.619256 155.519025 
Q 536.64591 155.613312 530.221244 155.660671 
Q 523.796577 155.707599 516.94714 155.707599 
Q 501.469535 155.707599 492.429871 155.426891 
Q 483.390206 155.146184 483.390206 154.666139 
Q 483.390206 154.180498 492.58916 153.901943 
Q 501.801388 153.623388 517.823231 153.623388 
Q 523.995689 153.623388 529.650457 153.661275 
Q 535.318499 153.698731 540.33611 153.772783 
L 540.33611 154.188248 
Q 535.15921 154.0931 530.035406 154.046172 
Q 524.911602 153.998813 519.76125 153.998813 
Q 510.230443 153.998813 505.066817 154.171887 
Q 499.903191 154.344531 499.903191 154.666139 
Q 499.903191 154.984734 504.88098 155.158669 
Q 509.858769 155.332174 519.0179 155.332174 
Q 521.513432 155.332174 523.650562 155.322272 
Q 525.787693 155.311939 527.486778 155.290412 
L 527.486778 154.900349 
L 517.730312 154.900349 
L 517.730312 154.552909 
L 542.619256 154.552909 
L 542.619256 155.519025 
z
" clip-path="url(#p4479202e9d)" style="fill: #f2f038"/>
   </g>
   <g id="patch_101">
    <path d="M 483.390206 151.539178 
L 514.176973 151.539178 
Q 527.919963 151.539178 535.261898 151.716063 
Q 542.619256 151.892502 542.619256 152.219025 
Q 542.619256 152.547335 535.261898 152.723774 
Q 527.919963 152.900213 514.176973 152.900213 
L 501.945557 152.900213 
L 501.945557 153.623388 
L 483.390206 153.623388 
L 483.390206 151.539178 
z
M 501.945557 151.928683 
L 501.945557 152.510707 
L 512.202671 152.510707 
Q 517.601152 152.510707 520.547181 152.434772 
Q 523.493209 152.358836 523.493209 152.219025 
Q 523.493209 152.079661 520.547181 152.004172 
Q 517.601152 151.928683 512.202671 151.928683 
L 501.945557 151.928683 
z
" clip-path="url(#p4479202e9d)" style="fill: #1a9cfc"/>
   </g>
   <g id="patch_102">
    <path d="M 483.390206 148.412862 
L 541.386434 148.412862 
L 541.386434 149.022581 
L 504.884187 149.022581 
L 504.884187 149.604158 
L 539.224529 149.604158 
L 539.224529 150.213877 
L 504.884187 150.213877 
L 504.884187 150.930129 
L 542.619256 150.930129 
L 542.619256 151.539178 
L 483.390206 151.539178 
L 483.390206 148.412862 
z
" clip-path="url(#p4479202e9d)" style="fill: #c90a38"/>
   </g>
   <g id="patch_103">
    <path d="M 483.390206 144.244441 
L 498.043069 144.244441 
L 513.022896 147.321175 
L 527.978504 144.244441 
L 542.619256 144.244441 
L 521.693515 148.412862 
L 504.315947 148.412862 
L 483.390206 144.244441 
z
" clip-path="url(#p4479202e9d)" style="fill: #ffcc45"/>
   </g>
   <g id="patch_104">
    <path d="M 507.422126 141.924383 
Q 512.737554 141.924383 515.043718 141.799313 
Q 517.349882 141.673349 517.349882 141.385687 
Q 517.349882 141.100704 515.043718 140.978314 
Q 512.737554 140.85503 507.422126 140.85503 
L 500.306765 140.85503 
L 500.306765 141.924383 
L 507.422126 141.924383 
z
M 500.306765 142.666766 
L 500.306765 144.244441 
L 483.390206 144.244441 
L 483.390206 140.07602 
L 509.222059 140.07602 
Q 522.187203 140.07602 528.219791 140.352962 
Q 534.266442 140.62901 534.266442 141.226668 
Q 534.266442 141.639401 531.116558 141.904729 
Q 527.980737 142.170057 521.652847 142.296021 
Q 525.126156 142.346049 527.868242 142.523828 
Q 530.624389 142.700713 533.436785 143.060738 
L 542.619256 144.244441 
L 524.605863 144.244441 
L 516.604597 143.209036 
Q 514.185937 142.896359 511.696967 142.782009 
Q 509.222059 142.666766 505.087838 142.666766 
L 500.306765 142.666766 
z
" clip-path="url(#p4479202e9d)" style="fill: #96050a"/>
   </g>
   <g id="patch_105">
    <path d="M 483.390206 133.823388 
L 504.884187 133.823388 
L 504.884187 138.857922 
L 542.619256 138.857922 
L 542.619256 140.07602 
L 483.390206 140.07602 
L 483.390206 133.823388 
z
" clip-path="url(#p4479202e9d)" style="fill: #fc9940"/>
   </g>
   <g id="patch_106">
    <path d="M 483.390206 126.528651 
L 500.432193 126.528651 
L 500.432193 129.308343 
L 525.577269 129.308343 
L 525.577269 126.528651 
L 542.619256 126.528651 
L 542.619256 133.823388 
L 525.577269 133.823388 
L 525.577269 130.73102 
L 500.432193 130.73102 
L 500.432193 133.823388 
L 483.390206 133.823388 
L 483.390206 126.528651 
z
" clip-path="url(#p4479202e9d)" style="fill: #660533"/>
   </g>
   <g id="patch_107">
    <path d="M 542.619256 126.005769 
Q 537.664848 126.26495 532.307522 126.396047 
Q 526.950195 126.528651 521.115336 126.528651 
Q 503.715216 126.528651 493.552711 125.546175 
Q 483.390206 124.563698 483.390206 122.883543 
Q 483.390206 121.19736 493.552711 120.216391 
Q 503.715216 119.233914 521.115336 119.233914 
Q 526.950195 119.233914 532.307522 119.366519 
Q 537.664848 119.497616 542.619256 119.756797 
L 542.619256 121.210922 
Q 537.62008 120.867357 532.770132 120.707629 
Q 527.920185 120.547901 522.562858 120.547901 
Q 512.952501 120.547901 507.445945 121.170237 
Q 501.954312 121.791066 501.954312 122.883543 
Q 501.954312 123.9715 507.445945 124.593836 
Q 512.952501 125.214664 522.562858 125.214664 
Q 527.920185 125.214664 532.770132 125.054937 
Q 537.62008 124.893702 542.619256 124.550137 
L 542.619256 126.005769 
z
" clip-path="url(#p4479202e9d)" style="fill: #179999"/>
   </g>
   <g id="patch_108">
    <path d="M 524.418221 117.90504 
L 501.63968 117.90504 
L 498.043069 119.233914 
L 483.390206 119.233914 
L 504.315947 111.939178 
L 521.693515 111.939178 
L 542.619256 119.233914 
L 527.978504 119.233914 
L 524.418221 117.90504 
z
M 505.272621 116.551152 
L 520.748951 116.551152 
L 513.022896 113.649517 
L 505.272621 116.551152 
z
" clip-path="url(#p4479202e9d)" style="fill: #fc996b"/>
   </g>
   <g id="patch_109">
    <path d="M 483.390206 95.265493 
L 542.619256 95.265493 
L 542.619256 98.517326 
L 521.310572 98.517326 
L 521.310572 111.939178 
L 504.740213 111.939178 
L 504.740213 98.517326 
L 483.390206 98.517326 
L 483.390206 95.265493 
z
" clip-path="url(#p4479202e9d)" style="fill: #2bffff"/>
   </g>
   <g id="patch_110">
    <path d="M 537.680821 72.440783 
L 537.680821 77.3325 
Q 531.503756 76.480906 525.61624 76.050157 
Q 519.74481 75.614458 514.516825 75.614458 
Q 507.583713 75.614458 504.253888 76.203642 
Q 500.94015 76.787876 500.94015 78.025658 
Q 500.94015 78.956471 503.176119 79.476339 
Q 505.412088 79.991257 511.299604 80.362592 
L 519.535691 80.872558 
Q 532.050683 81.649886 537.326927 83.229296 
Q 542.619256 84.803755 542.619256 87.71502 
Q 542.619256 91.532341 535.251819 93.398917 
Q 527.884381 95.265493 512.747353 95.265493 
Q 505.621207 95.265493 498.430717 94.844647 
Q 491.240227 94.428752 484.049736 93.606865 
L 484.049736 88.581468 
Q 491.240227 89.754886 497.948134 90.353972 
Q 504.656041 90.948108 510.897451 90.948108 
Q 517.235378 90.948108 520.597374 90.29951 
Q 523.959371 89.645961 523.959371 88.437885 
Q 523.959371 87.358539 521.675143 86.769354 
Q 519.390916 86.18017 512.55432 85.714763 
L 505.058194 85.204797 
Q 493.797918 84.462127 488.586019 82.838157 
Q 483.390206 81.214186 483.390206 78.461358 
Q 483.390206 75.01042 490.628955 73.153746 
Q 497.867703 71.297072 511.444379 71.297072 
Q 517.63753 71.297072 524.16849 71.584238 
Q 530.69945 71.871403 537.680821 72.440783 
z
" clip-path="url(#p4479202e9d)" style="fill: #0a24fa"/>
   </g>
   <g id="patch_111">
    <path d="M 483.390206 23.36023 
L 502.415467 23.36023 
L 526.455576 56.235904 
L 526.455576 23.36023 
L 542.619256 23.36023 
L 542.619256 71.297072 
L 523.579829 71.297072 
L 499.53972 38.421398 
L 499.53972 71.297072 
L 483.390206 71.297072 
L 483.390206 23.36023 
z
" clip-path="url(#p4479202e9d)" style="fill: #366666"/>
   </g>
   <g id="patch_112">
    <path d="M 545.736575 159.87602 
L 562.111665 159.87602 
L 575.338657 160.247434 
L 588.553205 159.87602 
L 604.965625 159.87602 
L 582.841833 160.479038 
L 582.841833 160.918125 
L 567.87281 160.918125 
L 567.87281 160.479038 
L 545.736575 159.87602 
z
" clip-path="url(#p4479202e9d)" style="fill: #0a660d"/>
   </g>
   <g id="patch_113">
    <path d="M 545.736575 158.833914 
L 604.965625 158.833914 
L 604.965625 159.037154 
L 583.656941 159.037154 
L 583.656941 159.87602 
L 567.086581 159.87602 
L 567.086581 159.037154 
L 545.736575 159.037154 
L 545.736575 158.833914 
z
" clip-path="url(#p4479202e9d)" style="fill: #2bffff"/>
   </g>
   <g id="patch_114">
    <path d="M 545.736575 155.707599 
L 555.978191 155.707599 
L 563.137551 157.979638 
L 570.243616 155.707599 
L 580.538527 155.707599 
L 587.644592 157.979638 
L 594.812835 155.707599 
L 604.965625 155.707599 
L 595.194786 158.833914 
L 582.874646 158.833914 
L 575.3511 156.457352 
L 567.91638 158.833914 
L 555.587357 158.833914 
L 545.736575 155.707599 
z
" clip-path="url(#p4479202e9d)" style="fill: #6bc96b"/>
   </g>
   <g id="patch_115">
    <path d="M 546.352986 152.581283 
L 604.349214 152.581283 
L 604.349214 153.191002 
L 567.846967 153.191002 
L 567.846967 153.772579 
L 602.187309 153.772579 
L 602.187309 154.382298 
L 567.846967 154.382298 
L 567.846967 155.707599 
L 546.352986 155.707599 
L 546.352986 152.581283 
z
" clip-path="url(#p4479202e9d)" style="fill: #29fc2e"/>
   </g>
   <g id="patch_116">
    <path d="M 561.967223 150.064686 
L 561.967223 151.972234 
L 567.782194 151.972234 
Q 577.725659 151.972234 582.973973 151.727007 
Q 588.235779 151.481779 588.235779 151.014775 
Q 588.235779 150.550451 583.000957 150.307903 
Q 577.779626 150.064686 567.782194 150.064686 
L 561.967223 150.064686 
z
M 545.736575 149.454967 
L 562.844191 149.454967 
Q 577.185986 149.454967 584.201728 149.55681 
Q 591.21747 149.657983 596.236423 149.901201 
Q 600.661737 150.112927 602.806935 150.389646 
Q 604.965625 150.665694 604.965625 151.014775 
Q 604.965625 151.369216 602.806935 151.646604 
Q 600.661737 151.923993 596.236423 152.135049 
Q 591.176994 152.378267 584.093793 152.48011 
Q 577.010593 152.581283 562.844191 152.581283 
L 545.736575 152.581283 
L 545.736575 149.454967 
z
" clip-path="url(#p4479202e9d)" style="fill: #fc0d1c"/>
   </g>
   <g id="patch_117">
    <path d="M 600.02719 145.485452 
L 600.02719 146.336186 
Q 593.850124 146.188082 587.962609 146.11317 
Q 582.091179 146.037396 576.863194 146.037396 
Q 569.930081 146.037396 566.600257 146.139863 
Q 563.286519 146.241468 563.286519 146.456735 
Q 563.286519 146.618615 565.522488 146.709027 
Q 567.758457 146.798578 573.645972 146.863158 
L 581.88206 146.951848 
Q 594.397052 147.087035 599.673295 147.361715 
Q 604.965625 147.635534 604.965625 148.141841 
Q 604.965625 148.805723 597.598187 149.130345 
Q 590.23075 149.454967 575.093722 149.454967 
Q 567.967576 149.454967 560.777086 149.381776 
Q 553.586596 149.309447 546.396105 149.16651 
L 546.396105 148.292528 
Q 553.586596 148.496601 560.294503 148.60079 
Q 567.00241 148.704117 573.24382 148.704117 
Q 579.581746 148.704117 582.943743 148.591318 
Q 586.30574 148.477657 586.30574 148.267557 
Q 586.30574 148.079845 584.021512 147.977378 
Q 581.737285 147.874911 574.900689 147.793971 
L 567.404562 147.705281 
Q 556.144287 147.576121 550.932388 147.293691 
Q 545.736575 147.011261 545.736575 146.532509 
Q 545.736575 145.932346 552.975323 145.609446 
Q 560.214072 145.286546 573.790747 145.286546 
Q 579.983899 145.286546 586.514859 145.336488 
Q 593.045819 145.38643 600.02719 145.485452 
z
" clip-path="url(#p4479202e9d)" style="fill: #0a24fa"/>
   </g>
   <g id="patch_118">
    <path d="M 545.736575 141.118125 
L 563.208574 141.118125 
L 575.328276 143.348847 
L 587.527862 141.118125 
L 604.965625 141.118125 
L 604.965625 145.286546 
L 591.990012 145.286546 
L 591.990012 142.237506 
L 579.721953 144.485201 
L 571.014483 144.485201 
L 558.746424 142.237506 
L 558.746424 145.286546 
L 545.736575 145.286546 
L 545.736575 141.118125 
z
" clip-path="url(#p4479202e9d)" style="fill: #cc99cc"/>
   </g>
   <g id="patch_119">
    <path d="M 545.736575 136.949704 
L 576.523341 136.949704 
Q 590.266332 136.949704 597.608266 137.303475 
Q 604.965625 137.656352 604.965625 138.309399 
Q 604.965625 138.966019 597.608266 139.318897 
Q 590.266332 139.671774 576.523341 139.671774 
L 564.291926 139.671774 
L 564.291926 141.118125 
L 545.736575 141.118125 
L 545.736575 136.949704 
z
M 564.291926 137.728714 
L 564.291926 138.892763 
L 574.54904 138.892763 
Q 579.947521 138.892763 582.893549 138.740892 
Q 585.839578 138.589021 585.839578 138.309399 
Q 585.839578 138.03067 582.893549 137.879692 
Q 579.947521 137.728714 574.54904 137.728714 
L 564.291926 137.728714 
z
" clip-path="url(#p4479202e9d)" style="fill: #1a9cfc"/>
   </g>
   <g id="patch_120">
    <path d="M 604.965625 136.650914 
Q 600.011217 136.799017 594.653891 136.87393 
Q 589.296564 136.949704 583.461704 136.949704 
Q 566.061585 136.949704 555.89908 136.388289 
Q 545.736575 135.826874 545.736575 134.866785 
Q 545.736575 133.903252 555.89908 133.342698 
Q 566.061585 132.781283 583.461704 132.781283 
Q 589.296564 132.781283 594.653891 132.857057 
Q 600.011217 132.931969 604.965625 133.080073 
L 604.965625 133.911002 
Q 599.966448 133.714679 595.116501 133.623406 
Q 590.266554 133.532133 584.909227 133.532133 
Q 575.29887 133.532133 569.792314 133.887753 
Q 564.300681 134.242512 564.300681 134.866785 
Q 564.300681 135.488475 569.792314 135.844095 
Q 575.29887 136.198854 584.909227 136.198854 
Q 590.266554 136.198854 595.116501 136.107581 
Q 599.966448 136.015447 604.965625 135.819124 
L 604.965625 136.650914 
z
" clip-path="url(#p4479202e9d)" style="fill: #179999"/>
   </g>
   <g id="patch_121">
    <path d="M 564.604109 115.065493 
L 586.09809 115.065493 
L 586.09809 132.781283 
L 564.604109 132.781283 
L 564.604109 115.065493 
z
" clip-path="url(#p4479202e9d)" style="fill: #cc993d"/>
   </g>
   <g id="patch_122">
    <path d="M 586.76459 111.26871 
L 563.986049 111.26871 
L 560.389437 115.065493 
L 545.736575 115.065493 
L 566.662316 94.223388 
L 584.039884 94.223388 
L 604.965625 115.065493 
L 590.324872 115.065493 
L 586.76459 111.26871 
z
M 567.61899 107.400459 
L 583.095319 107.400459 
L 575.369265 99.110071 
L 567.61899 107.400459 
z
" clip-path="url(#p4479202e9d)" style="fill: #fc996b"/>
   </g>
   <g id="patch_123">
    <path d="M 545.736575 68.170757 
L 560.389437 68.170757 
L 575.369265 87.400346 
L 590.324872 68.170757 
L 604.965625 68.170757 
L 584.039884 94.223388 
L 566.662316 94.223388 
L 545.736575 68.170757 
z
" clip-path="url(#p4479202e9d)" style="fill: #ffcc45"/>
   </g>
   <g id="patch_124">
    <path d="M 545.736575 23.36023 
L 567.230556 23.36023 
L 567.230556 59.441059 
L 604.965625 59.441059 
L 604.965625 68.170757 
L 545.736575 68.170757 
L 545.736575 23.36023 
z
" clip-path="url(#p4479202e9d)" style="fill: #fc9940"/>
   </g>
   <g id="matplotlib.axis_1">
    <g id="xtick_1">
     <g id="line2d_2">
      <defs>
       <path id="md0e250f797" d="M 0 0 
L 0 3.5 
" style="stroke: #000000; stroke-width: 0.8"/>
      </defs>
      <g>
       <use xlink:href="#md0e250f797" x="76.58015" y="160.918125" style="stroke: #000000; stroke-width: 0.8"/>
      </g>
     </g>
     <g id="text_1">
      <!-- 96 -->
      <g transform="translate(70.21765 175.516563) scale(0.1 -0.1)">
       <defs>
        <path id="DejaVuSans-39" d="M 703 97 
L 703 672 
Q 941 559 1184 500 
Q 1428 441 1663 441 
Q 2288 441 2617 861 
Q 2947 1281 2994 2138 
Q 2813 1869 2534 1725 
Q 2256 1581 1919 1581 
Q 1219 1581 811 2004 
Q 403 2428 403 3163 
Q 403 3881 828 4315 
Q 1253 4750 1959 4750 
Q 2769 4750 3195 4129 
Q 3622 3509 3622 2328 
Q 3622 1225 3098 567 
Q 2575 -91 1691 -91 
Q 1453 -91 1209 -44 
Q 966 3 703 97 
z
M 1959 2075 
Q 2384 2075 2632 2365 
Q 2881 2656 2881 3163 
Q 2881 3666 2632 3958 
Q 2384 4250 1959 4250 
Q 1534 4250 1286 3958 
Q 1038 3666 1038 3163 
Q 1038 2656 1286 2365 
Q 1534 2075 1959 2075 
z
" transform="scale(0.015625)"/>
        <path id="DejaVuSans-36" d="M 2113 2584 
Q 1688 2584 1439 2293 
Q 1191 2003 1191 1497 
Q 1191 994 1439 701 
Q 1688 409 2113 409 
Q 2538 409 2786 701 
Q 3034 994 3034 1497 
Q 3034 2003 2786 2293 
Q 2538 2584 2113 2584 
z
M 3366 4563 
L 3366 3988 
Q 3128 4100 2886 4159 
Q 2644 4219 2406 4219 
Q 1781 4219 1451 3797 
Q 1122 3375 1075 2522 
Q 1259 2794 1537 2939 
Q 1816 3084 2150 3084 
Q 2853 3084 3261 2657 
Q 3669 2231 3669 1497 
Q 3669 778 3244 343 
Q 2819 -91 2113 -91 
Q 1303 -91 875 529 
Q 447 1150 447 2328 
Q 447 3434 972 4092 
Q 1497 4750 2381 4750 
Q 2619 4750 2861 4703 
Q 3103 4656 3366 4563 
z
" transform="scale(0.015625)"/>
       </defs>
       <use xlink:href="#DejaVuSans-39"/>
       <use xlink:href="#DejaVuSans-36" transform="translate(63.623047 0)"/>
      </g>
     </g>
    </g>
    <g id="xtick_2">
     <g id="line2d_3">
      <g>
       <use xlink:href="#md0e250f797" x="138.926519" y="160.918125" style="stroke: #000000; stroke-width: 0.8"/>
      </g>
     </g>
     <g id="text_2">
      <!-- 98 -->
      <g transform="translate(132.564019 175.516563) scale(0.1 -0.1)">
       <defs>
        <path id="DejaVuSans-38" d="M 2034 2216 
Q 1584 2216 1326 1975 
Q 1069 1734 1069 1313 
Q 1069 891 1326 650 
Q 1584 409 2034 409 
Q 2484 409 2743 651 
Q 3003 894 3003 1313 
Q 3003 1734 2745 1975 
Q 2488 2216 2034 2216 
z
M 1403 2484 
Q 997 2584 770 2862 
Q 544 3141 544 3541 
Q 544 4100 942 4425 
Q 1341 4750 2034 4750 
Q 2731 4750 3128 4425 
Q 3525 4100 3525 3541 
Q 3525 3141 3298 2862 
Q 3072 2584 2669 2484 
Q 3125 2378 3379 2068 
Q 3634 1759 3634 1313 
Q 3634 634 3220 271 
Q 2806 -91 2034 -91 
Q 1263 -91 848 271 
Q 434 634 434 1313 
Q 434 1759 690 2068 
Q 947 2378 1403 2484 
z
M 1172 3481 
Q 1172 3119 1398 2916 
Q 1625 2713 2034 2713 
Q 2441 2713 2670 2916 
Q 2900 3119 2900 3481 
Q 2900 3844 2670 4047 
Q 2441 4250 2034 4250 
Q 1625 4250 1398 4047 
Q 1172 3844 1172 3481 
z
" transform="scale(0.015625)"/>
       </defs>
       <use xlink:href="#DejaVuSans-39"/>
       <use xlink:href="#DejaVuSans-38" transform="translate(63.623047 0)"/>
      </g>
     </g>
    </g>
    <g id="xtick_3">
     <g id="line2d_4">
      <g>
       <use xlink:href="#md0e250f797" x="201.272888" y="160.918125" style="stroke: #000000; stroke-width: 0.8"/>
      </g>
     </g>
     <g id="text_3">
      <!-- 347 -->
      <g transform="translate(191.729138 175.516563) scale(0.1 -0.1)">
       <defs>
        <path id="DejaVuSans-33" d="M 2597 2516 
Q 3050 2419 3304 2112 
Q 3559 1806 3559 1356 
Q 3559 666 3084 287 
Q 2609 -91 1734 -91 
Q 1441 -91 1130 -33 
Q 819 25 488 141 
L 488 750 
Q 750 597 1062 519 
Q 1375 441 1716 441 
Q 2309 441 2620 675 
Q 2931 909 2931 1356 
Q 2931 1769 2642 2001 
Q 2353 2234 1838 2234 
L 1294 2234 
L 1294 2753 
L 1863 2753 
Q 2328 2753 2575 2939 
Q 2822 3125 2822 3475 
Q 2822 3834 2567 4026 
Q 2313 4219 1838 4219 
Q 1578 4219 1281 4162 
Q 984 4106 628 3988 
L 628 4550 
Q 988 4650 1302 4700 
Q 1616 4750 1894 4750 
Q 2613 4750 3031 4423 
Q 3450 4097 3450 3541 
Q 3450 3153 3228 2886 
Q 3006 2619 2597 2516 
z
" transform="scale(0.015625)"/>
        <path id="DejaVuSans-34" d="M 2419 4116 
L 825 1625 
L 2419 1625 
L 2419 4116 
z
M 2253 4666 
L 3047 4666 
L 3047 1625 
L 3713 1625 
L 3713 1100 
L 3047 1100 
L 3047 0 
L 2419 0 
L 2419 1100 
L 313 1100 
L 313 1709 
L 2253 4666 
z
" transform="scale(0.015625)"/>
        <path id="DejaVuSans-37" d="M 525 4666 
L 3525 4666 
L 3525 4397 
L 1831 0 
L 1172 0 
L 2766 4134 
L 525 4134 
L 525 4666 
z
" transform="scale(0.015625)"/>
       </defs>
       <use xlink:href="#DejaVuSans-33"/>
       <use xlink:href="#DejaVuSans-34" transform="translate(63.623047 0)"/>
       <use xlink:href="#DejaVuSans-37" transform="translate(127.246094 0)"/>
      </g>
     </g>
    </g>
    <g id="xtick_4">
     <g id="line2d_5">
      <g>
       <use xlink:href="#md0e250f797" x="263.619256" y="160.918125" style="stroke: #000000; stroke-width: 0.8"/>
      </g>
     </g>
     <g id="text_4">
      <!-- 350 -->
      <g transform="translate(254.075506 175.516563) scale(0.1 -0.1)">
       <defs>
        <path id="DejaVuSans-35" d="M 691 4666 
L 3169 4666 
L 3169 4134 
L 1269 4134 
L 1269 2991 
Q 1406 3038 1543 3061 
Q 1681 3084 1819 3084 
Q 2600 3084 3056 2656 
Q 3513 2228 3513 1497 
Q 3513 744 3044 326 
Q 2575 -91 1722 -91 
Q 1428 -91 1123 -41 
Q 819 9 494 109 
L 494 744 
Q 775 591 1075 516 
Q 1375 441 1709 441 
Q 2250 441 2565 725 
Q 2881 1009 2881 1497 
Q 2881 1984 2565 2268 
Q 2250 2553 1709 2553 
Q 1456 2553 1204 2497 
Q 953 2441 691 2322 
L 691 4666 
z
" transform="scale(0.015625)"/>
        <path id="DejaVuSans-30" d="M 2034 4250 
Q 1547 4250 1301 3770 
Q 1056 3291 1056 2328 
Q 1056 1369 1301 889 
Q 1547 409 2034 409 
Q 2525 409 2770 889 
Q 3016 1369 3016 2328 
Q 3016 3291 2770 3770 
Q 2525 4250 2034 4250 
z
M 2034 4750 
Q 2819 4750 3233 4129 
Q 3647 3509 3647 2328 
Q 3647 1150 3233 529 
Q 2819 -91 2034 -91 
Q 1250 -91 836 529 
Q 422 1150 422 2328 
Q 422 3509 836 4129 
Q 1250 4750 2034 4750 
z
" transform="scale(0.015625)"/>
       </defs>
       <use xlink:href="#DejaVuSans-33"/>
       <use xlink:href="#DejaVuSans-35" transform="translate(63.623047 0)"/>
       <use xlink:href="#DejaVuSans-30" transform="translate(127.246094 0)"/>
      </g>
     </g>
    </g>
    <g id="xtick_5">
     <g id="line2d_6">
      <g>
       <use xlink:href="#md0e250f797" x="325.965625" y="160.918125" style="stroke: #000000; stroke-width: 0.8"/>
      </g>
     </g>
     <g id="text_5">
      <!-- 818 -->
      <g transform="translate(316.421875 175.516563) scale(0.1 -0.1)">
       <defs>
        <path id="DejaVuSans-31" d="M 794 531 
L 1825 531 
L 1825 4091 
L 703 3866 
L 703 4441 
L 1819 4666 
L 2450 4666 
L 2450 531 
L 3481 531 
L 3481 0 
L 794 0 
L 794 531 
z
" transform="scale(0.015625)"/>
       </defs>
       <use xlink:href="#DejaVuSans-38"/>
       <use xlink:href="#DejaVuSans-31" transform="translate(63.623047 0)"/>
       <use xlink:href="#DejaVuSans-38" transform="translate(127.246094 0)"/>
      </g>
     </g>
    </g>
    <g id="xtick_6">
     <g id="line2d_7">
      <g>
       <use xlink:href="#md0e250f797" x="388.311994" y="160.918125" style="stroke: #000000; stroke-width: 0.8"/>
      </g>
     </g>
     <g id="text_6">
      <!-- 884 -->
      <g transform="translate(378.768244 175.516563) scale(0.1 -0.1)">
       <use xlink:href="#DejaVuSans-38"/>
       <use xlink:href="#DejaVuSans-38" transform="translate(63.623047 0)"/>
       <use xlink:href="#DejaVuSans-34" transform="translate(127.246094 0)"/>
      </g>
     </g>
    </g>
    <g id="xtick_7">
     <g id="line2d_8">
      <g>
       <use xlink:href="#md0e250f797" x="450.658362" y="160.918125" style="stroke: #000000; stroke-width: 0.8"/>
      </g>
     </g>
     <g id="text_7">
      <!-- 924 -->
      <g transform="translate(441.114612 175.516563) scale(0.1 -0.1)">
       <defs>
        <path id="DejaVuSans-32" d="M 1228 531 
L 3431 531 
L 3431 0 
L 469 0 
L 469 531 
Q 828 903 1448 1529 
Q 2069 2156 2228 2338 
Q 2531 2678 2651 2914 
Q 2772 3150 2772 3378 
Q 2772 3750 2511 3984 
Q 2250 4219 1831 4219 
Q 1534 4219 1204 4116 
Q 875 4013 500 3803 
L 500 4441 
Q 881 4594 1212 4672 
Q 1544 4750 1819 4750 
Q 2544 4750 2975 4387 
Q 3406 4025 3406 3419 
Q 3406 3131 3298 2873 
Q 3191 2616 2906 2266 
Q 2828 2175 2409 1742 
Q 1991 1309 1228 531 
z
" transform="scale(0.015625)"/>
       </defs>
       <use xlink:href="#DejaVuSans-39"/>
       <use xlink:href="#DejaVuSans-32" transform="translate(63.623047 0)"/>
       <use xlink:href="#DejaVuSans-34" transform="translate(127.246094 0)"/>
      </g>
     </g>
    </g>
    <g id="xtick_8">
     <g id="line2d_9">
      <g>
       <use xlink:href="#md0e250f797" x="513.004731" y="160.918125" style="stroke: #000000; stroke-width: 0.8"/>
      </g>
     </g>
     <g id="text_8">
      <!-- 936 -->
      <g transform="translate(503.460981 175.516563) scale(0.1 -0.1)">
       <use xlink:href="#DejaVuSans-39"/>
       <use xlink:href="#DejaVuSans-33" transform="translate(63.623047 0)"/>
       <use xlink:href="#DejaVuSans-36" transform="translate(127.246094 0)"/>
      </g>
     </g>
    </g>
    <g id="xtick_9">
     <g id="line2d_10">
      <g>
       <use xlink:href="#md0e250f797" x="575.3511" y="160.918125" style="stroke: #000000; stroke-width: 0.8"/>
      </g>
     </g>
     <g id="text_9">
      <!-- 986 -->
      <g transform="translate(565.80735 175.516563) scale(0.1 -0.1)">
       <use xlink:href="#DejaVuSans-39"/>
       <use xlink:href="#DejaVuSans-38" transform="translate(63.623047 0)"/>
       <use xlink:href="#DejaVuSans-36" transform="translate(127.246094 0)"/>
      </g>
     </g>
    </g>
    <g id="text_10">
     <!-- position -->
     <g transform="translate(306.160937 189.194688) scale(0.1 -0.1)">
      <defs>
       <path id="DejaVuSans-70" d="M 1159 525 
L 1159 -1331 
L 581 -1331 
L 581 3500 
L 1159 3500 
L 1159 2969 
Q 1341 3281 1617 3432 
Q 1894 3584 2278 3584 
Q 2916 3584 3314 3078 
Q 3713 2572 3713 1747 
Q 3713 922 3314 415 
Q 2916 -91 2278 -91 
Q 1894 -91 1617 61 
Q 1341 213 1159 525 
z
M 3116 1747 
Q 3116 2381 2855 2742 
Q 2594 3103 2138 3103 
Q 1681 3103 1420 2742 
Q 1159 2381 1159 1747 
Q 1159 1113 1420 752 
Q 1681 391 2138 391 
Q 2594 391 2855 752 
Q 3116 1113 3116 1747 
z
" transform="scale(0.015625)"/>
       <path id="DejaVuSans-6f" d="M 1959 3097 
Q 1497 3097 1228 2736 
Q 959 2375 959 1747 
Q 959 1119 1226 758 
Q 1494 397 1959 397 
Q 2419 397 2687 759 
Q 2956 1122 2956 1747 
Q 2956 2369 2687 2733 
Q 2419 3097 1959 3097 
z
M 1959 3584 
Q 2709 3584 3137 3096 
Q 3566 2609 3566 1747 
Q 3566 888 3137 398 
Q 2709 -91 1959 -91 
Q 1206 -91 779 398 
Q 353 888 353 1747 
Q 353 2609 779 3096 
Q 1206 3584 1959 3584 
z
" transform="scale(0.015625)"/>
       <path id="DejaVuSans-73" d="M 2834 3397 
L 2834 2853 
Q 2591 2978 2328 3040 
Q 2066 3103 1784 3103 
Q 1356 3103 1142 2972 
Q 928 2841 928 2578 
Q 928 2378 1081 2264 
Q 1234 2150 1697 2047 
L 1894 2003 
Q 2506 1872 2764 1633 
Q 3022 1394 3022 966 
Q 3022 478 2636 193 
Q 2250 -91 1575 -91 
Q 1294 -91 989 -36 
Q 684 19 347 128 
L 347 722 
Q 666 556 975 473 
Q 1284 391 1588 391 
Q 1994 391 2212 530 
Q 2431 669 2431 922 
Q 2431 1156 2273 1281 
Q 2116 1406 1581 1522 
L 1381 1569 
Q 847 1681 609 1914 
Q 372 2147 372 2553 
Q 372 3047 722 3315 
Q 1072 3584 1716 3584 
Q 2034 3584 2315 3537 
Q 2597 3491 2834 3397 
z
" transform="scale(0.015625)"/>
       <path id="DejaVuSans-69" d="M 603 3500 
L 1178 3500 
L 1178 0 
L 603 0 
L 603 3500 
z
M 603 4863 
L 1178 4863 
L 1178 4134 
L 603 4134 
L 603 4863 
z
" transform="scale(0.015625)"/>
       <path id="DejaVuSans-74" d="M 1172 4494 
L 1172 3500 
L 2356 3500 
L 2356 3053 
L 1172 3053 
L 1172 1153 
Q 1172 725 1289 603 
Q 1406 481 1766 481 
L 2356 481 
L 2356 0 
L 1766 0 
Q 1100 0 847 248 
Q 594 497 594 1153 
L 594 3053 
L 172 3053 
L 172 3500 
L 594 3500 
L 594 4494 
L 1172 4494 
z
" transform="scale(0.015625)"/>
       <path id="DejaVuSans-6e" d="M 3513 2113 
L 3513 0 
L 2938 0 
L 2938 2094 
Q 2938 2591 2744 2837 
Q 2550 3084 2163 3084 
Q 1697 3084 1428 2787 
Q 1159 2491 1159 1978 
L 1159 0 
L 581 0 
L 581 3500 
L 1159 3500 
L 1159 2956 
Q 1366 3272 1645 3428 
Q 1925 3584 2291 3584 
Q 2894 3584 3203 3211 
Q 3513 2838 3513 2113 
z
" transform="scale(0.015625)"/>
      </defs>
      <use xlink:href="#DejaVuSans-70"/>
      <use xlink:href="#DejaVuSans-6f" transform="translate(63.476562 0)"/>
      <use xlink:href="#DejaVuSans-73" transform="translate(124.658203 0)"/>
      <use xlink:href="#DejaVuSans-69" transform="translate(176.757812 0)"/>
      <use xlink:href="#DejaVuSans-74" transform="translate(204.541016 0)"/>
      <use xlink:href="#DejaVuSans-69" transform="translate(243.75 0)"/>
      <use xlink:href="#DejaVuSans-6f" transform="translate(271.533203 0)"/>
      <use xlink:href="#DejaVuSans-6e" transform="translate(332.714844 0)"/>
     </g>
    </g>
   </g>
   <g id="matplotlib.axis_2">
    <g id="ytick_1">
     <g id="line2d_11">
      <defs>
       <path id="m0361502a99" d="M 0 0 
L -3.5 0 
" style="stroke: #000000; stroke-width: 0.8"/>
      </defs>
      <g>
       <use xlink:href="#m0361502a99" x="46.965625" y="160.918125" style="stroke: #000000; stroke-width: 0.8"/>
      </g>
     </g>
     <g id="text_11">
      <!-- 0 -->
      <g transform="translate(33.603125 164.717344) scale(0.1 -0.1)">
       <use xlink:href="#DejaVuSans-30"/>
      </g>
     </g>
    </g>
    <g id="ytick_2">
     <g id="line2d_12">
      <g>
       <use xlink:href="#m0361502a99" x="46.965625" y="134.865493" style="stroke: #000000; stroke-width: 0.8"/>
      </g>
     </g>
     <g id="text_12">
      <!-- 25 -->
      <g transform="translate(27.240625 138.664712) scale(0.1 -0.1)">
       <use xlink:href="#DejaVuSans-32"/>
       <use xlink:href="#DejaVuSans-35" transform="translate(63.623047 0)"/>
      </g>
     </g>
    </g>
    <g id="ytick_3">
     <g id="line2d_13">
      <g>
       <use xlink:href="#m0361502a99" x="46.965625" y="108.812862" style="stroke: #000000; stroke-width: 0.8"/>
      </g>
     </g>
     <g id="text_13">
      <!-- 50 -->
      <g transform="translate(27.240625 112.612081) scale(0.1 -0.1)">
       <use xlink:href="#DejaVuSans-35"/>
       <use xlink:href="#DejaVuSans-30" transform="translate(63.623047 0)"/>
      </g>
     </g>
    </g>
    <g id="ytick_4">
     <g id="line2d_14">
      <g>
       <use xlink:href="#m0361502a99" x="46.965625" y="82.76023" style="stroke: #000000; stroke-width: 0.8"/>
      </g>
     </g>
     <g id="text_14">
      <!-- 75 -->
      <g transform="translate(27.240625 86.559449) scale(0.1 -0.1)">
       <use xlink:href="#DejaVuSans-37"/>
       <use xlink:href="#DejaVuSans-35" transform="translate(63.623047 0)"/>
      </g>
     </g>
    </g>
    <g id="ytick_5">
     <g id="line2d_15">
      <g>
       <use xlink:href="#m0361502a99" x="46.965625" y="56.707599" style="stroke: #000000; stroke-width: 0.8"/>
      </g>
     </g>
     <g id="text_15">
      <!-- 100 -->
      <g transform="translate(20.878125 60.506817) scale(0.1 -0.1)">
       <use xlink:href="#DejaVuSans-31"/>
       <use xlink:href="#DejaVuSans-30" transform="translate(63.623047 0)"/>
       <use xlink:href="#DejaVuSans-30" transform="translate(127.246094 0)"/>
      </g>
     </g>
    </g>
    <g id="ytick_6">
     <g id="line2d_16">
      <g>
       <use xlink:href="#m0361502a99" x="46.965625" y="30.654967" style="stroke: #000000; stroke-width: 0.8"/>
      </g>
     </g>
     <g id="text_16">
      <!-- 125 -->
      <g transform="translate(20.878125 34.454186) scale(0.1 -0.1)">
       <use xlink:href="#DejaVuSans-31"/>
       <use xlink:href="#DejaVuSans-32" transform="translate(63.623047 0)"/>
       <use xlink:href="#DejaVuSans-35" transform="translate(127.246094 0)"/>
      </g>
     </g>
    </g>
    <g id="text_17">
     <!-- count # -->
     <g transform="translate(14.798437 111.503281) rotate(-90) scale(0.1 -0.1)">
      <defs>
       <path id="DejaVuSans-63" d="M 3122 3366 
L 3122 2828 
Q 2878 2963 2633 3030 
Q 2388 3097 2138 3097 
Q 1578 3097 1268 2742 
Q 959 2388 959 1747 
Q 959 1106 1268 751 
Q 1578 397 2138 397 
Q 2388 397 2633 464 
Q 2878 531 3122 666 
L 3122 134 
Q 2881 22 2623 -34 
Q 2366 -91 2075 -91 
Q 1284 -91 818 406 
Q 353 903 353 1747 
Q 353 2603 823 3093 
Q 1294 3584 2113 3584 
Q 2378 3584 2631 3529 
Q 2884 3475 3122 3366 
z
" transform="scale(0.015625)"/>
       <path id="DejaVuSans-75" d="M 544 1381 
L 544 3500 
L 1119 3500 
L 1119 1403 
Q 1119 906 1312 657 
Q 1506 409 1894 409 
Q 2359 409 2629 706 
Q 2900 1003 2900 1516 
L 2900 3500 
L 3475 3500 
L 3475 0 
L 2900 0 
L 2900 538 
Q 2691 219 2414 64 
Q 2138 -91 1772 -91 
Q 1169 -91 856 284 
Q 544 659 544 1381 
z
M 1991 3584 
L 1991 3584 
z
" transform="scale(0.015625)"/>
       <path id="DejaVuSans-20" transform="scale(0.015625)"/>
       <path id="DejaVuSans-23" d="M 3272 2816 
L 2363 2816 
L 2100 1772 
L 3016 1772 
L 3272 2816 
z
M 2803 4594 
L 2478 3297 
L 3391 3297 
L 3719 4594 
L 4219 4594 
L 3897 3297 
L 4872 3297 
L 4872 2816 
L 3775 2816 
L 3519 1772 
L 4513 1772 
L 4513 1294 
L 3397 1294 
L 3072 0 
L 2572 0 
L 2894 1294 
L 1978 1294 
L 1656 0 
L 1153 0 
L 1478 1294 
L 494 1294 
L 494 1772 
L 1594 1772 
L 1856 2816 
L 850 2816 
L 850 3297 
L 1978 3297 
L 2297 4594 
L 2803 4594 
z
" transform="scale(0.015625)"/>
      </defs>
      <use xlink:href="#DejaVuSans-63"/>
      <use xlink:href="#DejaVuSans-6f" transform="translate(54.980469 0)"/>
      <use xlink:href="#DejaVuSans-75" transform="translate(116.162109 0)"/>
      <use xlink:href="#DejaVuSans-6e" transform="translate(179.541016 0)"/>
      <use xlink:href="#DejaVuSans-74" transform="translate(242.919922 0)"/>
      <use xlink:href="#DejaVuSans-20" transform="translate(282.128906 0)"/>
      <use xlink:href="#DejaVuSans-23" transform="translate(313.916016 0)"/>
     </g>
    </g>
   </g>
   <g id="patch_125">
    <path d="M 46.965625 160.918125 
L 46.965625 22.318125 
" style="fill: none; stroke: #000000; stroke-width: 0.8; stroke-linejoin: miter; stroke-linecap: square"/>
   </g>
   <g id="patch_126">
    <path d="M 604.965625 160.918125 
L 604.965625 22.318125 
" style="fill: none; stroke: #000000; stroke-width: 0.8; stroke-linejoin: miter; stroke-linecap: square"/>
   </g>
   <g id="patch_127">
    <path d="M 46.965625 160.918125 
L 604.965625 160.918125 
" style="fill: none; stroke: #000000; stroke-width: 0.8; stroke-linejoin: miter; stroke-linecap: square"/>
   </g>
   <g id="patch_128">
    <path d="M 46.965625 22.318125 
L 604.965625 22.318125 
" style="fill: none; stroke: #000000; stroke-width: 0.8; stroke-linejoin: miter; stroke-linecap: square"/>
   </g>
   <g id="text_18">
    <!-- Aromaticity FALSE -->
    <g transform="translate(271.590625 16.318125) scale(0.12 -0.12)">
     <defs>
      <path id="DejaVuSans-41" d="M 2188 4044 
L 1331 1722 
L 3047 1722 
L 2188 4044 
z
M 1831 4666 
L 2547 4666 
L 4325 0 
L 3669 0 
L 3244 1197 
L 1141 1197 
L 716 0 
L 50 0 
L 1831 4666 
z
" transform="scale(0.015625)"/>
      <path id="DejaVuSans-72" d="M 2631 2963 
Q 2534 3019 2420 3045 
Q 2306 3072 2169 3072 
Q 1681 3072 1420 2755 
Q 1159 2438 1159 1844 
L 1159 0 
L 581 0 
L 581 3500 
L 1159 3500 
L 1159 2956 
Q 1341 3275 1631 3429 
Q 1922 3584 2338 3584 
Q 2397 3584 2469 3576 
Q 2541 3569 2628 3553 
L 2631 2963 
z
" transform="scale(0.015625)"/>
      <path id="DejaVuSans-6d" d="M 3328 2828 
Q 3544 3216 3844 3400 
Q 4144 3584 4550 3584 
Q 5097 3584 5394 3201 
Q 5691 2819 5691 2113 
L 5691 0 
L 5113 0 
L 5113 2094 
Q 5113 2597 4934 2840 
Q 4756 3084 4391 3084 
Q 3944 3084 3684 2787 
Q 3425 2491 3425 1978 
L 3425 0 
L 2847 0 
L 2847 2094 
Q 2847 2600 2669 2842 
Q 2491 3084 2119 3084 
Q 1678 3084 1418 2786 
Q 1159 2488 1159 1978 
L 1159 0 
L 581 0 
L 581 3500 
L 1159 3500 
L 1159 2956 
Q 1356 3278 1631 3431 
Q 1906 3584 2284 3584 
Q 2666 3584 2933 3390 
Q 3200 3197 3328 2828 
z
" transform="scale(0.015625)"/>
      <path id="DejaVuSans-61" d="M 2194 1759 
Q 1497 1759 1228 1600 
Q 959 1441 959 1056 
Q 959 750 1161 570 
Q 1363 391 1709 391 
Q 2188 391 2477 730 
Q 2766 1069 2766 1631 
L 2766 1759 
L 2194 1759 
z
M 3341 1997 
L 3341 0 
L 2766 0 
L 2766 531 
Q 2569 213 2275 61 
Q 1981 -91 1556 -91 
Q 1019 -91 701 211 
Q 384 513 384 1019 
Q 384 1609 779 1909 
Q 1175 2209 1959 2209 
L 2766 2209 
L 2766 2266 
Q 2766 2663 2505 2880 
Q 2244 3097 1772 3097 
Q 1472 3097 1187 3025 
Q 903 2953 641 2809 
L 641 3341 
Q 956 3463 1253 3523 
Q 1550 3584 1831 3584 
Q 2591 3584 2966 3190 
Q 3341 2797 3341 1997 
z
" transform="scale(0.015625)"/>
      <path id="DejaVuSans-79" d="M 2059 -325 
Q 1816 -950 1584 -1140 
Q 1353 -1331 966 -1331 
L 506 -1331 
L 506 -850 
L 844 -850 
Q 1081 -850 1212 -737 
Q 1344 -625 1503 -206 
L 1606 56 
L 191 3500 
L 800 3500 
L 1894 763 
L 2988 3500 
L 3597 3500 
L 2059 -325 
z
" transform="scale(0.015625)"/>
      <path id="DejaVuSans-46" d="M 628 4666 
L 3309 4666 
L 3309 4134 
L 1259 4134 
L 1259 2759 
L 3109 2759 
L 3109 2228 
L 1259 2228 
L 1259 0 
L 628 0 
L 628 4666 
z
" transform="scale(0.015625)"/>
      <path id="DejaVuSans-4c" d="M 628 4666 
L 1259 4666 
L 1259 531 
L 3531 531 
L 3531 0 
L 628 0 
L 628 4666 
z
" transform="scale(0.015625)"/>
      <path id="DejaVuSans-53" d="M 3425 4513 
L 3425 3897 
Q 3066 4069 2747 4153 
Q 2428 4238 2131 4238 
Q 1616 4238 1336 4038 
Q 1056 3838 1056 3469 
Q 1056 3159 1242 3001 
Q 1428 2844 1947 2747 
L 2328 2669 
Q 3034 2534 3370 2195 
Q 3706 1856 3706 1288 
Q 3706 609 3251 259 
Q 2797 -91 1919 -91 
Q 1588 -91 1214 -16 
Q 841 59 441 206 
L 441 856 
Q 825 641 1194 531 
Q 1563 422 1919 422 
Q 2459 422 2753 634 
Q 3047 847 3047 1241 
Q 3047 1584 2836 1778 
Q 2625 1972 2144 2069 
L 1759 2144 
Q 1053 2284 737 2584 
Q 422 2884 422 3419 
Q 422 4038 858 4394 
Q 1294 4750 2059 4750 
Q 2388 4750 2728 4690 
Q 3069 4631 3425 4513 
z
" transform="scale(0.015625)"/>
      <path id="DejaVuSans-45" d="M 628 4666 
L 3578 4666 
L 3578 4134 
L 1259 4134 
L 1259 2753 
L 3481 2753 
L 3481 2222 
L 1259 2222 
L 1259 531 
L 3634 531 
L 3634 0 
L 628 0 
L 628 4666 
z
" transform="scale(0.015625)"/>
     </defs>
     <use xlink:href="#DejaVuSans-41"/>
     <use xlink:href="#DejaVuSans-72" transform="translate(68.408203 0)"/>
     <use xlink:href="#DejaVuSans-6f" transform="translate(107.271484 0)"/>
     <use xlink:href="#DejaVuSans-6d" transform="translate(168.453125 0)"/>
     <use xlink:href="#DejaVuSans-61" transform="translate(265.865234 0)"/>
     <use xlink:href="#DejaVuSans-74" transform="translate(327.144531 0)"/>
     <use xlink:href="#DejaVuSans-69" transform="translate(366.353516 0)"/>
     <use xlink:href="#DejaVuSans-63" transform="translate(394.136719 0)"/>
     <use xlink:href="#DejaVuSans-69" transform="translate(449.117188 0)"/>
     <use xlink:href="#DejaVuSans-74" transform="translate(476.900391 0)"/>
     <use xlink:href="#DejaVuSans-79" transform="translate(516.109375 0)"/>
     <use xlink:href="#DejaVuSans-20" transform="translate(575.289062 0)"/>
     <use xlink:href="#DejaVuSans-46" transform="translate(607.076172 0)"/>
     <use xlink:href="#DejaVuSans-41" transform="translate(655.470703 0)"/>
     <use xlink:href="#DejaVuSans-4c" transform="translate(723.878906 0)"/>
     <use xlink:href="#DejaVuSans-53" transform="translate(779.591797 0)"/>
     <use xlink:href="#DejaVuSans-45" transform="translate(843.068359 0)"/>
    </g>
   </g>
  </g>
 </g>
 <defs>
  <clipPath id="p4479202e9d">
   <rect x="46.965625" y="22.318125" width="558" height="138.6"/>
  </clipPath>
 </defs>
</svg>
