<?xml version="1.0" encoding="utf-8" standalone="no"?>
<!DOCTYPE svg PUBLIC "-//W3C//DTD SVG 1.1//EN"
  "http://www.w3.org/Graphics/SVG/1.1/DTD/svg11.dtd">
<svg xmlns:xlink="http://www.w3.org/1999/xlink" width="605.803125pt" height="198.474375pt" viewBox="0 0 605.803125 198.474375" xmlns="http://www.w3.org/2000/svg" version="1.1">
 <metadata>
  <rdf:RDF xmlns:dc="http://purl.org/dc/elements/1.1/" xmlns:cc="http://creativecommons.org/ns#" xmlns:rdf="http://www.w3.org/1999/02/22-rdf-syntax-ns#">
   <cc:Work>
    <dc:type rdf:resource="http://purl.org/dc/dcmitype/StillImage"/>
    <dc:date>2026-07-03T02:44:42.786959</dc:date>
    <dc:format>image/svg+xml</dc:format>
    <dc:creator>
     <cc:Agent>
      <dc:title>Matplotlib v3.10.9, https://matplotlib.org/</dc:title>
     </cc:Agent>
    </dc:creator>
   </cc:Work>
  </rdf:RDF>
 </metadata>
 <defs>
  <style type="text/css">*{stroke-linejoin: round; stroke-linecap: butt}</style>
 </defs>
 <g id="figure_1">
  <g id="patch_1">
   <path d="M 0 198.474375 
L 605.803125 198.474375 
L 605.803125 0 
L 0 0 
z
" style="fill: #ffffff"/>
  </g>
  <g id="axes_1">
   <g id="patch_2">
    <path d="M 40.603125 160.918125 
L 598.603125 160.918125 
L 598.603125 22.318125 
L 40.603125 22.318125 
z
" style="fill: #ffffff"/>
   </g>
   <g id="line2d_1">
    <path d="M 40.603125 160.918125 
L 598.603125 160.918125 
" clip-path="url(#pccb876db2f)" style="fill: none; stroke: #000000; stroke-width: 0.5; stroke-linecap: square"/>
   </g>
   <g id="patch_3">
    <path d="M 99.832175 160.730959 
Q 93.858829 160.824542 87.434163 160.871547 
Q 81.009496 160.918125 74.160059 160.918125 
Q 58.682454 160.918125 49.64279 160.639512 
Q 40.603125 160.3609 40.603125 159.884438 
Q 40.603125 159.402421 49.802079 159.125944 
Q 59.014307 158.849468 75.03615 158.849468 
Q 81.208608 158.849468 86.863376 158.887072 
Q 92.531418 158.924249 97.549029 158.997748 
L 97.549029 159.410112 
Q 92.372129 159.315675 87.248325 159.269097 
Q 82.124521 159.222091 76.974169 159.222091 
Q 67.443362 159.222091 62.279736 159.393874 
Q 57.11611 159.565229 57.11611 159.884438 
Q 57.11611 160.200655 62.093899 160.373292 
Q 67.071688 160.545502 76.230819 160.545502 
Q 78.726351 160.545502 80.863481 160.535673 
Q 83.000612 160.525418 84.699697 160.504052 
L 84.699697 160.1169 
L 74.943231 160.1169 
L 74.943231 159.772052 
L 99.832175 159.772052 
L 99.832175 160.730959 
z
" clip-path="url(#pccb876db2f)" style="fill: #f2f038"/>
   </g>
   <g id="patch_4">
    <path d="M 40.603125 156.780812 
L 50.844741 156.780812 
L 58.004101 158.284201 
L 65.110166 156.780812 
L 75.405077 156.780812 
L 82.511142 158.284201 
L 89.679385 156.780812 
L 99.832175 156.780812 
L 90.061336 158.849468 
L 77.741196 158.849468 
L 70.21765 157.276917 
L 62.78293 158.849468 
L 50.453907 158.849468 
L 40.603125 156.780812 
z
" clip-path="url(#pccb876db2f)" style="fill: #6bc96b"/>
   </g>
   <g id="patch_5">
    <path d="M 40.603125 152.643498 
L 62.097106 152.643498 
L 62.097106 155.974807 
L 99.832175 155.974807 
L 99.832175 156.780812 
L 40.603125 156.780812 
L 40.603125 152.643498 
z
" clip-path="url(#pccb876db2f)" style="fill: #fc9940"/>
   </g>
   <g id="patch_6">
    <path d="M 59.47066 140.231558 
L 80.964641 140.231558 
L 80.964641 152.643498 
L 59.47066 152.643498 
L 59.47066 140.231558 
z
" clip-path="url(#pccb876db2f)" style="fill: #cc993d"/>
   </g>
   <g id="patch_7">
    <path d="M 81.63114 137.593644 
L 58.852599 137.593644 
L 55.255988 140.231558 
L 40.603125 140.231558 
L 61.528866 125.750961 
L 78.906434 125.750961 
L 99.832175 140.231558 
L 85.191423 140.231558 
L 81.63114 137.593644 
z
M 62.48554 134.906075 
L 77.96187 134.906075 
L 70.235815 129.146112 
L 62.48554 134.906075 
z
" clip-path="url(#pccb876db2f)" style="fill: #fc996b"/>
   </g>
   <g id="patch_8">
    <path d="M 40.603125 74.034543 
L 99.832175 74.034543 
L 99.832175 84.120685 
L 78.523491 84.120685 
L 78.523491 125.750961 
L 61.953131 125.750961 
L 61.953131 84.120685 
L 40.603125 84.120685 
L 40.603125 74.034543 
z
" clip-path="url(#pccb876db2f)" style="fill: #2bffff"/>
   </g>
   <g id="patch_9">
    <path d="M 40.603125 22.318125 
L 55.255988 22.318125 
L 70.235815 60.490295 
L 85.191423 22.318125 
L 99.832175 22.318125 
L 78.906434 74.034543 
L 61.528866 74.034543 
L 40.603125 22.318125 
z
" clip-path="url(#pccb876db2f)" style="fill: #ffcc45"/>
   </g>
   <g id="patch_10">
    <path d="M 102.949494 158.849468 
L 121.974754 158.849468 
L 146.014864 160.268178 
L 146.014864 158.849468 
L 162.178544 158.849468 
L 162.178544 160.918125 
L 143.139117 160.918125 
L 119.099008 159.499415 
L 119.099008 160.918125 
L 102.949494 160.918125 
L 102.949494 158.849468 
z
" clip-path="url(#pccb876db2f)" style="fill: #366666"/>
   </g>
   <g id="patch_11">
    <path d="M 157.240109 156.879523 
L 157.240109 157.301715 
Q 151.063043 157.228216 145.175528 157.191039 
Q 139.304098 157.153435 134.076113 157.153435 
Q 127.143 157.153435 123.813176 157.204286 
Q 120.499438 157.25471 120.499438 157.36154 
Q 120.499438 157.441876 122.735407 157.486744 
Q 124.971376 157.531186 130.858891 157.563235 
L 139.094979 157.607249 
Q 151.609971 157.674338 156.886214 157.810653 
Q 162.178544 157.946541 162.178544 158.197805 
Q 162.178544 158.527269 154.811106 158.688369 
Q 147.443669 158.849468 132.306641 158.849468 
Q 125.180495 158.849468 117.990005 158.813146 
Q 110.799515 158.777251 103.609024 158.706316 
L 103.609024 158.272586 
Q 110.799515 158.373861 117.507422 158.425567 
Q 124.215329 158.476845 130.456739 158.476845 
Q 136.794665 158.476845 140.156662 158.420866 
Q 143.518659 158.36446 143.518659 158.260194 
Q 143.518659 158.167038 141.234431 158.116187 
Q 138.950204 158.065336 132.113608 158.025168 
L 124.617481 157.981154 
Q 113.357206 157.917056 108.145307 157.776895 
Q 102.949494 157.636734 102.949494 157.399144 
Q 102.949494 157.101302 110.188242 156.941057 
Q 117.426991 156.780812 131.003666 156.780812 
Q 137.196818 156.780812 143.727778 156.805596 
Q 150.258738 156.830381 157.240109 156.879523 
z
" clip-path="url(#pccb876db2f)" style="fill: #0a24fa"/>
   </g>
   <g id="patch_12">
    <path d="M 102.949494 152.643498 
L 113.19111 152.643498 
L 120.35047 155.650277 
L 127.456535 152.643498 
L 137.751446 152.643498 
L 144.857511 155.650277 
L 152.025754 152.643498 
L 162.178544 152.643498 
L 152.407705 156.780812 
L 140.087565 156.780812 
L 132.564019 153.635709 
L 125.129299 156.780812 
L 112.800276 156.780812 
L 102.949494 152.643498 
z
" clip-path="url(#pccb876db2f)" style="fill: #6bc96b"/>
   </g>
   <g id="patch_13">
    <path d="M 102.949494 148.506185 
L 124.443475 148.506185 
L 124.443475 151.837493 
L 162.178544 151.837493 
L 162.178544 152.643498 
L 102.949494 152.643498 
L 102.949494 148.506185 
z
" clip-path="url(#pccb876db2f)" style="fill: #fc9940"/>
   </g>
   <g id="patch_14">
    <path d="M 119.180142 143.510552 
L 119.180142 147.297178 
L 124.995113 147.297178 
Q 134.938578 147.297178 140.186892 146.810383 
Q 145.448698 146.323588 145.448698 145.396549 
Q 145.448698 144.474831 140.213876 143.993356 
Q 134.992545 143.510552 124.995113 143.510552 
L 119.180142 143.510552 
z
M 102.949494 142.300215 
L 120.05711 142.300215 
Q 134.398905 142.300215 141.414647 142.502381 
Q 148.430389 142.703217 153.449342 143.186022 
Q 157.874656 143.606315 160.019854 144.155621 
Q 162.178544 144.703598 162.178544 145.396549 
Q 162.178544 146.100141 160.019854 146.650778 
Q 157.874656 147.201415 153.449342 147.620378 
Q 148.389913 148.103182 141.306712 148.305349 
Q 134.223512 148.506185 120.05711 148.506185 
L 102.949494 148.506185 
L 102.949494 142.300215 
z
" clip-path="url(#pccb876db2f)" style="fill: #fc0d1c"/>
   </g>
   <g id="patch_15">
    <path d="M 102.949494 129.888274 
L 162.178544 129.888274 
L 162.178544 132.308948 
L 140.86986 132.308948 
L 140.86986 142.300215 
L 124.2995 142.300215 
L 124.2995 132.308948 
L 102.949494 132.308948 
L 102.949494 129.888274 
z
" clip-path="url(#pccb876db2f)" style="fill: #2bffff"/>
   </g>
   <g id="patch_16">
    <path d="M 134.14346 127.722808 
L 132.983558 127.722808 
Q 118.756247 127.722808 110.8467 126.099983 
Q 102.949494 124.47461 102.949494 121.577981 
Q 102.949494 118.686447 110.834361 117.048336 
Q 118.719228 115.407677 132.564019 115.407677 
Q 146.556882 115.407677 154.367713 117.03305 
Q 162.178544 118.655876 162.178544 121.577981 
Q 162.178544 123.582947 158.03251 125.032536 
Q 153.886477 126.482124 146.100325 127.213287 
L 157.699347 129.888274 
L 143.546072 129.888274 
L 134.14346 127.722808 
z
M 132.564019 117.62919 
Q 125.777357 117.62919 122.038523 118.663519 
Q 118.299689 119.697847 118.299689 121.577981 
Q 118.299689 123.488686 121.952147 124.505181 
Q 125.616945 125.519129 132.564019 125.519129 
Q 139.387699 125.519129 143.126533 124.4848 
Q 146.865367 123.447924 146.865367 121.577981 
Q 146.865367 119.697847 143.126533 118.663519 
Q 139.387699 117.62919 132.564019 117.62919 
z
" clip-path="url(#pccb876db2f)" style="fill: #6669c9"/>
   </g>
   <g id="patch_17">
    <path d="M 102.949494 94.72111 
L 119.991481 94.72111 
L 119.991481 102.603818 
L 145.136557 102.603818 
L 145.136557 94.72111 
L 162.178544 94.72111 
L 162.178544 115.407677 
L 145.136557 115.407677 
L 145.136557 106.638275 
L 119.991481 106.638275 
L 119.991481 115.407677 
L 102.949494 115.407677 
L 102.949494 94.72111 
z
" clip-path="url(#pccb876db2f)" style="fill: #660533"/>
   </g>
   <g id="patch_18">
    <path d="M 102.949494 22.318125 
L 160.945722 22.318125 
L 160.945722 36.438724 
L 124.443475 36.438724 
L 124.443475 49.907604 
L 158.783817 49.907604 
L 158.783817 64.028203 
L 124.443475 64.028203 
L 124.443475 80.616028 
L 162.178544 80.616028 
L 162.178544 94.72111 
L 102.949494 94.72111 
L 102.949494 22.318125 
z
" clip-path="url(#pccb876db2f)" style="fill: #c90a38"/>
   </g>
   <g id="patch_19">
    <path d="M 165.912273 156.780812 
L 223.908502 156.780812 
L 223.908502 157.587703 
L 187.406255 157.587703 
L 187.406255 158.357353 
L 221.746597 158.357353 
L 221.746597 159.164245 
L 187.406255 159.164245 
L 187.406255 160.918125 
L 165.912273 160.918125 
L 165.912273 156.780812 
z
" clip-path="url(#pccb876db2f)" style="fill: #29fc2e"/>
   </g>
   <g id="patch_20">
    <path d="M 206.323878 155.650277 
L 183.545337 155.650277 
L 179.948725 156.780812 
L 165.295862 156.780812 
L 186.221603 150.574841 
L 203.599172 150.574841 
L 224.524913 156.780812 
L 209.88416 156.780812 
L 206.323878 155.650277 
z
M 187.178278 154.498462 
L 202.654607 154.498462 
L 194.928552 152.029906 
L 187.178278 154.498462 
z
" clip-path="url(#pccb876db2f)" style="fill: #fc996b"/>
   </g>
   <g id="patch_21">
    <path d="M 165.295862 136.094244 
L 224.524913 136.094244 
L 224.524913 138.918364 
L 203.216229 138.918364 
L 203.216229 150.574841 
L 186.645869 150.574841 
L 186.645869 138.918364 
L 165.295862 138.918364 
L 165.295862 136.094244 
z
" clip-path="url(#pccb876db2f)" style="fill: #2bffff"/>
   </g>
   <g id="patch_22">
    <path d="M 184.163397 119.544991 
L 205.657378 119.544991 
L 205.657378 136.094244 
L 184.163397 136.094244 
L 184.163397 119.544991 
z
" clip-path="url(#pccb876db2f)" style="fill: #cc993d"/>
   </g>
   <g id="patch_23">
    <path d="M 165.295862 98.858424 
L 182.767862 98.858424 
L 194.887563 109.928796 
L 207.08715 98.858424 
L 224.524913 98.858424 
L 224.524913 119.544991 
L 211.5493 119.544991 
L 211.5493 104.41356 
L 199.28124 115.568169 
L 190.573771 115.568169 
L 178.305712 104.41356 
L 178.305712 119.544991 
L 165.295862 119.544991 
L 165.295862 98.858424 
z
" clip-path="url(#pccb876db2f)" style="fill: #cc99cc"/>
   </g>
   <g id="patch_24">
    <path d="M 165.295862 71.965886 
L 179.948725 71.965886 
L 194.928552 91.815414 
L 209.88416 71.965886 
L 224.524913 71.965886 
L 203.599172 98.858424 
L 186.221603 98.858424 
L 165.295862 71.965886 
z
" clip-path="url(#pccb876db2f)" style="fill: #ffcc45"/>
   </g>
   <g id="patch_25">
    <path d="M 165.295862 22.318125 
L 186.789844 22.318125 
L 186.789844 62.29383 
L 224.524913 62.29383 
L 224.524913 71.965886 
L 165.295862 71.965886 
L 165.295862 22.318125 
z
" clip-path="url(#pccb876db2f)" style="fill: #fc9940"/>
   </g>
   <g id="patch_26">
    <path d="M 227.642231 158.849468 
L 249.136212 158.849468 
L 249.136212 160.515123 
L 286.871281 160.515123 
L 286.871281 160.918125 
L 227.642231 160.918125 
L 227.642231 158.849468 
z
" clip-path="url(#pccb876db2f)" style="fill: #fc9940"/>
   </g>
   <g id="patch_27">
    <path d="M 227.642231 152.643498 
L 242.295094 152.643498 
L 257.274921 157.224158 
L 272.230529 152.643498 
L 286.871281 152.643498 
L 265.94554 158.849468 
L 248.567972 158.849468 
L 227.642231 152.643498 
z
" clip-path="url(#pccb876db2f)" style="fill: #ffcc45"/>
   </g>
   <g id="patch_28">
    <path d="M 268.670246 151.136119 
L 245.891705 151.136119 
L 242.295094 152.643498 
L 227.642231 152.643498 
L 248.567972 144.368871 
L 265.94554 144.368871 
L 286.871281 152.643498 
L 272.230529 152.643498 
L 268.670246 151.136119 
z
M 249.524647 149.600365 
L 265.000976 149.600365 
L 257.274921 146.308957 
L 249.524647 149.600365 
z
" clip-path="url(#pccb876db2f)" style="fill: #fc996b"/>
   </g>
   <g id="patch_29">
    <path d="M 228.258642 96.789767 
L 286.25487 96.789767 
L 286.25487 106.069018 
L 249.752623 106.069018 
L 249.752623 114.919996 
L 284.092965 114.919996 
L 284.092965 124.199247 
L 249.752623 124.199247 
L 249.752623 144.368871 
L 228.258642 144.368871 
L 228.258642 96.789767 
z
" clip-path="url(#pccb876db2f)" style="fill: #29fc2e"/>
   </g>
   <g id="patch_30">
    <path d="M 227.642231 22.318125 
L 244.017322 22.318125 
L 257.244313 48.860418 
L 270.458862 22.318125 
L 286.871281 22.318125 
L 264.747489 65.411445 
L 264.747489 96.789767 
L 249.778467 96.789767 
L 249.778467 65.411445 
L 227.642231 22.318125 
z
" clip-path="url(#pccb876db2f)" style="fill: #0a660d"/>
   </g>
   <g id="patch_31">
    <path d="M 290.605011 158.849468 
L 348.601239 158.849468 
L 348.601239 159.252914 
L 312.098992 159.252914 
L 312.098992 159.637739 
L 346.439334 159.637739 
L 346.439334 160.041185 
L 312.098992 160.041185 
L 312.098992 160.918125 
L 290.605011 160.918125 
L 290.605011 158.849468 
z
" clip-path="url(#pccb876db2f)" style="fill: #29fc2e"/>
   </g>
   <g id="patch_32">
    <path d="M 321.182566 158.540116 
L 320.022664 158.540116 
Q 305.795353 158.540116 297.885807 158.308284 
Q 289.9886 158.076088 289.9886 157.662284 
Q 289.9886 157.249207 297.873467 157.015191 
Q 305.758334 156.780812 319.603125 156.780812 
Q 333.595988 156.780812 341.406819 157.013008 
Q 349.21765 157.24484 349.21765 157.662284 
Q 349.21765 157.948707 345.071617 158.155791 
Q 340.925583 158.362875 333.139431 158.467327 
L 344.738453 158.849468 
L 330.585178 158.849468 
L 321.182566 158.540116 
z
M 319.603125 157.098171 
Q 312.816463 157.098171 309.077629 157.245932 
Q 305.338795 157.393693 305.338795 157.662284 
Q 305.338795 157.935241 308.991253 158.080455 
Q 312.656051 158.225305 319.603125 158.225305 
Q 326.426805 158.225305 330.165639 158.077543 
Q 333.904473 157.929418 333.904473 157.662284 
Q 333.904473 157.393693 330.165639 157.245932 
Q 326.426805 157.098171 319.603125 157.098171 
z
" clip-path="url(#pccb876db2f)" style="fill: #6669c9"/>
   </g>
   <g id="patch_33">
    <path d="M 289.9886 154.712155 
L 347.984828 154.712155 
L 347.984828 155.115601 
L 311.482581 155.115601 
L 311.482581 155.500426 
L 345.822923 155.500426 
L 345.822923 155.903871 
L 311.482581 155.903871 
L 311.482581 156.377809 
L 349.21765 156.377809 
L 349.21765 156.780812 
L 289.9886 156.780812 
L 289.9886 154.712155 
z
" clip-path="url(#pccb876db2f)" style="fill: #c90a38"/>
   </g>
   <g id="patch_34">
    <path d="M 289.9886 150.574841 
L 307.030587 150.574841 
L 307.030587 152.151383 
L 332.175663 152.151383 
L 332.175663 150.574841 
L 349.21765 150.574841 
L 349.21765 154.712155 
L 332.175663 154.712155 
L 332.175663 152.958274 
L 307.030587 152.958274 
L 307.030587 154.712155 
L 289.9886 154.712155 
L 289.9886 150.574841 
z
" clip-path="url(#pccb876db2f)" style="fill: #660533"/>
   </g>
   <g id="patch_35">
    <path d="M 306.219248 147.244419 
L 306.219248 149.768837 
L 312.034219 149.768837 
Q 321.977684 149.768837 327.225998 149.444307 
Q 332.487805 149.119777 332.487805 148.501751 
Q 332.487805 147.887272 327.252982 147.566289 
Q 322.031651 147.244419 312.034219 147.244419 
L 306.219248 147.244419 
z
M 289.9886 146.437528 
L 307.096216 146.437528 
Q 321.438011 146.437528 328.453753 146.572305 
Q 335.469495 146.706196 340.488448 147.028066 
Q 344.913762 147.308261 347.05896 147.674466 
Q 349.21765 148.039784 349.21765 148.501751 
Q 349.21765 148.970812 347.05896 149.337904 
Q 344.913762 149.704995 340.488448 149.984303 
Q 335.429019 150.306173 328.345819 150.440951 
Q 321.262618 150.574841 307.096216 150.574841 
L 289.9886 150.574841 
L 289.9886 146.437528 
z
" clip-path="url(#pccb876db2f)" style="fill: #fc0d1c"/>
   </g>
   <g id="patch_36">
    <path d="M 308.856134 136.094244 
L 330.350116 136.094244 
L 330.350116 146.437528 
L 308.856134 146.437528 
L 308.856134 136.094244 
z
" clip-path="url(#pccb876db2f)" style="fill: #cc993d"/>
   </g>
   <g id="patch_37">
    <path d="M 289.9886 121.613647 
L 311.482581 121.613647 
L 311.482581 133.273228 
L 349.21765 133.273228 
L 349.21765 136.094244 
L 289.9886 136.094244 
L 289.9886 121.613647 
z
" clip-path="url(#pccb876db2f)" style="fill: #fc9940"/>
   </g>
   <g id="patch_38">
    <path d="M 289.9886 98.858424 
L 304.641462 98.858424 
L 319.62129 115.654178 
L 334.576897 98.858424 
L 349.21765 98.858424 
L 328.291909 121.613647 
L 310.914341 121.613647 
L 289.9886 98.858424 
z
" clip-path="url(#pccb876db2f)" style="fill: #ffcc45"/>
   </g>
   <g id="patch_39">
    <path d="M 289.9886 67.828573 
L 305.597044 67.828573 
L 305.597044 79.15387 
L 328.095001 67.828573 
L 346.220517 67.828573 
L 317.066591 82.525523 
L 349.21765 98.858424 
L 329.677902 98.858424 
L 305.597044 86.635349 
L 305.597044 98.858424 
L 289.9886 98.858424 
L 289.9886 67.828573 
z
" clip-path="url(#pccb876db2f)" style="fill: #663308"/>
   </g>
   <g id="patch_40">
    <path d="M 289.9886 22.318125 
L 307.460599 22.318125 
L 319.580301 46.672945 
L 331.779887 22.318125 
L 349.21765 22.318125 
L 349.21765 67.828573 
L 336.242037 67.828573 
L 336.242037 34.539426 
L 323.973978 59.079565 
L 315.266509 59.079565 
L 302.998449 34.539426 
L 302.998449 67.828573 
L 289.9886 67.828573 
L 289.9886 22.318125 
z
" clip-path="url(#pccb876db2f)" style="fill: #cc99cc"/>
   </g>
   <g id="patch_41">
    <path d="M 352.334969 158.849468 
L 369.376956 158.849468 
L 369.376956 159.637739 
L 394.522032 159.637739 
L 394.522032 158.849468 
L 411.564019 158.849468 
L 411.564019 160.918125 
L 394.522032 160.918125 
L 394.522032 160.041185 
L 369.376956 160.041185 
L 369.376956 160.918125 
L 352.334969 160.918125 
L 352.334969 158.849468 
z
" clip-path="url(#pccb876db2f)" style="fill: #660533"/>
   </g>
   <g id="patch_42">
    <path d="M 352.334969 156.780812 
L 371.360229 156.780812 
L 395.400339 158.199522 
L 395.400339 156.780812 
L 411.564019 156.780812 
L 411.564019 158.849468 
L 392.524592 158.849468 
L 368.484482 157.430758 
L 368.484482 158.849468 
L 352.334969 158.849468 
L 352.334969 156.780812 
z
" clip-path="url(#pccb876db2f)" style="fill: #366666"/>
   </g>
   <g id="patch_43">
    <path d="M 406.625584 154.810866 
L 406.625584 155.233058 
Q 400.448518 155.159559 394.561003 155.122382 
Q 388.689573 155.084778 383.461588 155.084778 
Q 376.528475 155.084778 373.198651 155.135629 
Q 369.884913 155.186053 369.884913 155.292883 
Q 369.884913 155.373219 372.120882 155.418088 
Q 374.356851 155.462529 380.244366 155.494578 
L 388.480454 155.538592 
Q 400.995446 155.605681 406.271689 155.741996 
Q 411.564019 155.877884 411.564019 156.129148 
Q 411.564019 156.458612 404.196581 156.619712 
Q 396.829144 156.780812 381.692116 156.780812 
Q 374.56597 156.780812 367.37548 156.744489 
Q 360.184989 156.708594 352.994499 156.637659 
L 352.994499 156.203929 
Q 360.184989 156.305204 366.892896 156.35691 
Q 373.600804 156.408188 379.842214 156.408188 
Q 386.18014 156.408188 389.542137 156.352209 
Q 392.904133 156.295803 392.904133 156.191537 
Q 392.904133 156.098381 390.619906 156.04753 
Q 388.335679 155.996679 381.499083 155.956511 
L 374.002956 155.912497 
Q 362.742681 155.848399 357.530782 155.708238 
Q 352.334969 155.568077 352.334969 155.330487 
Q 352.334969 155.032645 359.573717 154.8724 
Q 366.812466 154.712155 380.389141 154.712155 
Q 386.582293 154.712155 393.113253 154.736939 
Q 399.644213 154.761724 406.625584 154.810866 
z
" clip-path="url(#pccb876db2f)" style="fill: #0a24fa"/>
   </g>
   <g id="patch_44">
    <path d="M 352.334969 152.643498 
L 411.564019 152.643498 
L 411.564019 153.046944 
L 390.255335 153.046944 
L 390.255335 154.712155 
L 373.684975 154.712155 
L 373.684975 153.046944 
L 352.334969 153.046944 
L 352.334969 152.643498 
z
" clip-path="url(#pccb876db2f)" style="fill: #2bffff"/>
   </g>
   <g id="patch_45">
    <path d="M 371.202503 150.574841 
L 392.696484 150.574841 
L 392.696484 152.643498 
L 371.202503 152.643498 
L 371.202503 150.574841 
z
" clip-path="url(#pccb876db2f)" style="fill: #cc993d"/>
   </g>
   <g id="patch_46">
    <path d="M 352.334969 146.437528 
L 383.121735 146.437528 
Q 396.864726 146.437528 404.20666 146.788659 
Q 411.564019 147.138903 411.564019 147.787076 
Q 411.564019 148.438796 404.20666 148.78904 
Q 396.864726 149.139284 383.121735 149.139284 
L 370.890319 149.139284 
L 370.890319 150.574841 
L 352.334969 150.574841 
L 352.334969 146.437528 
z
M 370.890319 147.210725 
L 370.890319 148.366087 
L 381.147434 148.366087 
Q 386.545915 148.366087 389.491943 148.215349 
Q 392.437971 148.064611 392.437971 147.787076 
Q 392.437971 147.510428 389.491943 147.360576 
Q 386.545915 147.210725 381.147434 147.210725 
L 370.890319 147.210725 
z
" clip-path="url(#pccb876db2f)" style="fill: #1a9cfc"/>
   </g>
   <g id="patch_47">
    <path d="M 393.362984 144.930148 
L 370.584443 144.930148 
L 366.987831 146.437528 
L 352.334969 146.437528 
L 373.26071 138.162901 
L 390.638278 138.162901 
L 411.564019 146.437528 
L 396.923266 146.437528 
L 393.362984 144.930148 
z
M 374.217384 143.394395 
L 389.693713 143.394395 
L 381.967658 140.102987 
L 374.217384 143.394395 
z
" clip-path="url(#pccb876db2f)" style="fill: #fc996b"/>
   </g>
   <g id="patch_48">
    <path d="M 368.565617 129.836846 
L 368.565617 136.147889 
L 374.380588 136.147889 
Q 384.324052 136.147889 389.572367 135.336565 
Q 394.834173 134.52524 394.834173 132.980176 
Q 394.834173 131.443979 389.599351 130.641521 
Q 384.37802 129.836846 374.380588 129.836846 
L 368.565617 129.836846 
z
M 352.334969 127.819618 
L 369.442585 127.819618 
Q 383.78438 127.819618 390.800122 128.156561 
Q 397.815863 128.491288 402.834817 129.295963 
Q 407.260131 129.996451 409.405329 130.911962 
Q 411.564019 131.825257 411.564019 132.980176 
Q 411.564019 134.152828 409.405329 135.070556 
Q 407.260131 135.988284 402.834817 136.686556 
Q 397.775388 137.491231 390.692187 137.828174 
Q 383.608986 138.162901 369.442585 138.162901 
L 352.334969 138.162901 
L 352.334969 127.819618 
z
" clip-path="url(#pccb876db2f)" style="fill: #fc0d1c"/>
   </g>
   <g id="patch_49">
    <path d="M 352.334969 115.407677 
L 410.331197 115.407677 
L 410.331197 117.828351 
L 373.82895 117.828351 
L 373.82895 120.137302 
L 408.169292 120.137302 
L 408.169292 122.557976 
L 373.82895 122.557976 
L 373.82895 125.401603 
L 411.564019 125.401603 
L 411.564019 127.819618 
L 352.334969 127.819618 
L 352.334969 115.407677 
z
" clip-path="url(#pccb876db2f)" style="fill: #c90a38"/>
   </g>
   <g id="patch_50">
    <path d="M 411.564019 106.985198 
Q 405.590672 111.196437 399.166006 113.311672 
Q 392.74134 115.407677 385.891902 115.407677 
Q 370.414298 115.407677 361.374633 102.870105 
Q 352.334969 90.332532 352.334969 68.891745 
Q 352.334969 47.200976 361.533922 34.75955 
Q 370.74615 22.318125 386.767993 22.318125 
Q 392.940451 22.318125 398.59522 24.010313 
Q 404.263262 25.683271 409.280873 28.990729 
L 409.280873 47.547105 
Q 404.103973 43.297406 398.980169 41.201401 
Q 393.856365 39.086167 388.706012 39.086167 
Q 379.175206 39.086167 374.01158 46.816388 
Q 368.847953 54.527379 368.847953 68.891745 
Q 368.847953 83.121505 373.825742 90.890185 
Q 378.803531 98.639636 387.962663 98.639636 
Q 390.458194 98.639636 392.595325 98.197359 
Q 394.732455 97.735854 396.431541 96.774383 
L 396.431541 79.352542 
L 386.675075 79.352542 
L 386.675075 63.834412 
L 411.564019 63.834412 
L 411.564019 106.985198 
z
" clip-path="url(#pccb876db2f)" style="fill: #f2f038"/>
   </g>
   <g id="patch_51">
    <path d="M 445.875304 160.608773 
L 444.715402 160.608773 
Q 430.48809 160.608773 422.578544 160.376941 
Q 414.681337 160.144744 414.681337 159.73094 
Q 414.681337 159.317864 422.566205 159.083848 
Q 430.451072 158.849468 444.295862 158.849468 
Q 458.288726 158.849468 466.099557 159.081664 
Q 473.910388 159.313497 473.910388 159.73094 
Q 473.910388 160.017364 469.764354 160.224448 
Q 465.618321 160.431532 457.832168 160.535984 
L 469.431191 160.918125 
L 455.277916 160.918125 
L 445.875304 160.608773 
z
M 444.295862 159.166827 
Q 437.5092 159.166827 433.770367 159.314588 
Q 430.031533 159.46235 430.031533 159.73094 
Q 430.031533 160.003898 433.683991 160.149112 
Q 437.348788 160.293961 444.295862 160.293961 
Q 451.119543 160.293961 454.858376 160.1462 
Q 458.59721 159.998075 458.59721 159.73094 
Q 458.59721 159.46235 454.858376 159.314588 
Q 451.119543 159.166827 444.295862 159.166827 
z
" clip-path="url(#pccb876db2f)" style="fill: #6669c9"/>
   </g>
   <g id="patch_52">
    <path d="M 468.971952 154.909577 
L 468.971952 155.753961 
Q 462.794887 155.606963 456.907371 155.532609 
Q 451.035942 155.457401 445.807957 155.457401 
Q 438.874844 155.457401 435.54502 155.559103 
Q 432.231281 155.659951 432.231281 155.873611 
Q 432.231281 156.034283 434.46725 156.124021 
Q 436.703219 156.212903 442.590735 156.277001 
L 450.826822 156.365029 
Q 463.341815 156.499208 468.618058 156.771838 
Q 473.910388 157.043613 473.910388 157.546142 
Q 473.910388 158.20507 466.54295 158.527269 
Q 459.175512 158.849468 444.038485 158.849468 
Q 436.912339 158.849468 429.721848 158.776824 
Q 422.531358 158.705034 415.340868 158.563164 
L 415.340868 157.695704 
Q 422.531358 157.898254 429.239265 158.001665 
Q 435.947172 158.104222 442.188582 158.104222 
Q 448.526509 158.104222 451.888505 157.992264 
Q 455.250502 157.879452 455.250502 157.670919 
Q 455.250502 157.484608 452.966275 157.382906 
Q 450.682047 157.281203 443.845451 157.200867 
L 436.349325 157.112839 
Q 425.089049 156.984643 419.87715 156.704321 
Q 414.681337 156.423999 414.681337 155.948819 
Q 414.681337 155.353135 421.920086 155.032645 
Q 429.158835 154.712155 442.73551 154.712155 
Q 448.928662 154.712155 455.459621 154.761724 
Q 461.990581 154.811293 468.971952 154.909577 
z
" clip-path="url(#pccb876db2f)" style="fill: #0a24fa"/>
   </g>
   <g id="patch_53">
    <path d="M 433.548872 148.506185 
L 455.042853 148.506185 
L 455.042853 154.712155 
L 433.548872 154.712155 
L 433.548872 148.506185 
z
" clip-path="url(#pccb876db2f)" style="fill: #cc993d"/>
   </g>
   <g id="patch_54">
    <path d="M 414.681337 136.094244 
L 445.468104 136.094244 
Q 459.211095 136.094244 466.553029 137.147637 
Q 473.910388 138.198369 473.910388 140.142888 
Q 473.910388 142.098048 466.553029 143.148781 
Q 459.211095 144.199513 445.468104 144.199513 
L 433.236688 144.199513 
L 433.236688 148.506185 
L 414.681337 148.506185 
L 414.681337 136.094244 
z
M 433.236688 138.413835 
L 433.236688 141.879922 
L 443.493802 141.879922 
Q 448.892284 141.879922 451.838312 141.427708 
Q 454.78434 140.975494 454.78434 140.142888 
Q 454.78434 139.312943 451.838312 138.863389 
Q 448.892284 138.413835 443.493802 138.413835 
L 433.236688 138.413835 
z
" clip-path="url(#pccb876db2f)" style="fill: #1a9cfc"/>
   </g>
   <g id="patch_55">
    <path d="M 414.681337 123.682304 
L 473.910388 123.682304 
L 473.910388 126.102978 
L 452.601704 126.102978 
L 452.601704 136.094244 
L 436.031344 136.094244 
L 436.031344 126.102978 
L 414.681337 126.102978 
L 414.681337 123.682304 
z
" clip-path="url(#pccb876db2f)" style="fill: #2bffff"/>
   </g>
   <g id="patch_56">
    <path d="M 414.681337 111.270364 
L 429.3342 111.270364 
L 444.314027 120.431685 
L 459.269635 111.270364 
L 473.910388 111.270364 
L 452.984647 123.682304 
L 435.607078 123.682304 
L 414.681337 111.270364 
z
" clip-path="url(#pccb876db2f)" style="fill: #ffcc45"/>
   </g>
   <g id="patch_57">
    <path d="M 473.910388 110.147367 
Q 467.937041 110.708865 461.512375 110.990896 
Q 455.087709 111.270364 448.238271 111.270364 
Q 432.760666 111.270364 423.721002 109.598687 
Q 414.681337 107.927011 414.681337 105.06824 
Q 414.681337 102.176137 423.880291 100.51728 
Q 433.092519 98.858424 449.114362 98.858424 
Q 455.28682 98.858424 460.941588 99.084049 
Q 466.609631 99.30711 471.627242 99.748104 
L 471.627242 102.222288 
Q 466.450341 101.655661 461.326537 101.376194 
Q 456.202733 101.094162 451.052381 101.094162 
Q 441.521575 101.094162 436.357948 102.124859 
Q 431.194322 103.152991 431.194322 105.06824 
Q 431.194322 106.965541 436.172111 108.001365 
Q 441.1499 109.034625 450.309031 109.034625 
Q 452.804563 109.034625 454.941694 108.975655 
Q 457.078824 108.914121 458.777909 108.785925 
L 458.777909 106.463012 
L 449.021443 106.463012 
L 449.021443 104.393928 
L 473.910388 104.393928 
L 473.910388 110.147367 
z
" clip-path="url(#pccb876db2f)" style="fill: #f2f038"/>
   </g>
   <g id="patch_58">
    <path d="M 414.681337 82.30917 
L 431.723324 82.30917 
L 431.723324 88.615336 
L 456.868401 88.615336 
L 456.868401 82.30917 
L 473.910388 82.30917 
L 473.910388 98.858424 
L 456.868401 98.858424 
L 456.868401 91.842902 
L 431.723324 91.842902 
L 431.723324 98.858424 
L 414.681337 98.858424 
L 414.681337 82.30917 
z
" clip-path="url(#pccb876db2f)" style="fill: #660533"/>
   </g>
   <g id="patch_59">
    <path d="M 414.681337 22.318125 
L 433.706598 22.318125 
L 457.746708 63.460719 
L 457.746708 22.318125 
L 473.910388 22.318125 
L 473.910388 82.30917 
L 454.870961 82.30917 
L 430.830851 41.166576 
L 430.830851 82.30917 
L 414.681337 82.30917 
L 414.681337 22.318125 
z
" clip-path="url(#pccb876db2f)" style="fill: #366666"/>
   </g>
   <g id="patch_60">
    <path d="M 477.027706 158.849468 
L 494.499705 158.849468 
L 506.619407 159.956506 
L 518.818994 158.849468 
L 536.256756 158.849468 
L 536.256756 160.918125 
L 523.281144 160.918125 
L 523.281144 159.404982 
L 511.013084 160.520443 
L 502.305615 160.520443 
L 490.037555 159.404982 
L 490.037555 160.918125 
L 477.027706 160.918125 
L 477.027706 158.849468 
z
" clip-path="url(#pccb876db2f)" style="fill: #cc99cc"/>
   </g>
   <g id="patch_61">
    <path d="M 477.027706 156.780812 
L 507.814473 156.780812 
Q 521.557463 156.780812 528.899398 156.956377 
Q 536.256756 157.131499 536.256756 157.455586 
Q 536.256756 157.781446 528.899398 157.956568 
Q 521.557463 158.13169 507.814473 158.13169 
L 495.583057 158.13169 
L 495.583057 158.849468 
L 477.027706 158.849468 
L 477.027706 156.780812 
z
M 495.583057 157.16741 
L 495.583057 157.745091 
L 505.840171 157.745091 
Q 511.238652 157.745091 514.184681 157.669722 
Q 517.130709 157.594353 517.130709 157.455586 
Q 517.130709 157.317261 514.184681 157.242336 
Q 511.238652 157.16741 505.840171 157.16741 
L 495.583057 157.16741 
z
" clip-path="url(#pccb876db2f)" style="fill: #1a9cfc"/>
   </g>
   <g id="patch_62">
    <path d="M 477.027706 154.712155 
L 491.680569 154.712155 
L 506.660396 156.239042 
L 521.616004 154.712155 
L 536.256756 154.712155 
L 515.331015 156.780812 
L 497.953447 156.780812 
L 477.027706 154.712155 
z
" clip-path="url(#pccb876db2f)" style="fill: #ffcc45"/>
   </g>
   <g id="patch_63">
    <path d="M 495.895241 150.574841 
L 517.389222 150.574841 
L 517.389222 154.712155 
L 495.895241 154.712155 
L 495.895241 150.574841 
z
" clip-path="url(#pccb876db2f)" style="fill: #cc993d"/>
   </g>
   <g id="patch_64">
    <path d="M 477.027706 144.368871 
L 535.023934 144.368871 
L 535.023934 145.579208 
L 498.521687 145.579208 
L 498.521687 146.733684 
L 532.862029 146.733684 
L 532.862029 147.944021 
L 498.521687 147.944021 
L 498.521687 149.365834 
L 536.256756 149.365834 
L 536.256756 150.574841 
L 477.027706 150.574841 
L 477.027706 144.368871 
z
" clip-path="url(#pccb876db2f)" style="fill: #c90a38"/>
   </g>
   <g id="patch_65">
    <path d="M 477.027706 138.162901 
L 496.052967 138.162901 
L 520.093076 142.419032 
L 520.093076 138.162901 
L 536.256756 138.162901 
L 536.256756 144.368871 
L 517.217329 144.368871 
L 493.17722 140.112741 
L 493.17722 144.368871 
L 477.027706 144.368871 
L 477.027706 138.162901 
z
" clip-path="url(#pccb876db2f)" style="fill: #366666"/>
   </g>
   <g id="patch_66">
    <path d="M 531.318321 128.313172 
L 531.318321 130.424134 
Q 525.141256 130.056638 519.25374 129.870754 
Q 513.38231 129.682733 508.154325 129.682733 
Q 501.221213 129.682733 497.891388 129.936989 
Q 494.57765 130.189108 494.57765 130.723258 
Q 494.57765 131.124939 496.813619 131.349282 
Q 499.049588 131.571488 504.937104 131.731733 
L 513.173191 131.951803 
Q 525.688183 132.287249 530.964427 132.968825 
Q 536.256756 133.648264 536.256756 134.904585 
Q 536.256756 136.551904 528.889319 137.357403 
Q 521.521881 138.162901 506.384853 138.162901 
Q 499.258707 138.162901 492.068217 137.98129 
Q 484.877727 137.801816 477.687236 137.44714 
L 477.687236 135.27849 
Q 484.877727 135.784865 491.585634 136.043393 
Q 498.293541 136.299785 504.534951 136.299785 
Q 510.872878 136.299785 514.234874 136.019891 
Q 517.596871 135.737859 517.596871 135.216529 
Q 517.596871 134.75075 515.312643 134.496494 
Q 513.028416 134.242239 506.19182 134.041399 
L 498.695694 133.821329 
Q 487.435418 133.500839 482.223519 132.800034 
Q 477.027706 132.099229 477.027706 130.911279 
Q 477.027706 129.422068 484.266455 128.620843 
Q 491.505203 127.819618 505.081879 127.819618 
Q 511.27503 127.819618 517.80599 127.94354 
Q 524.33695 128.067463 531.318321 128.313172 
z
" clip-path="url(#pccb876db2f)" style="fill: #0a24fa"/>
   </g>
   <g id="patch_67">
    <path d="M 477.644117 115.407677 
L 535.640345 115.407677 
L 535.640345 117.828351 
L 499.138098 117.828351 
L 499.138098 120.137302 
L 533.47844 120.137302 
L 533.47844 122.557976 
L 499.138098 122.557976 
L 499.138098 127.819618 
L 477.644117 127.819618 
L 477.644117 115.407677 
z
" clip-path="url(#pccb876db2f)" style="fill: #29fc2e"/>
   </g>
   <g id="patch_68">
    <path d="M 477.027706 98.858424 
L 536.256756 98.858424 
L 536.256756 102.085989 
L 514.948072 102.085989 
L 514.948072 115.407677 
L 498.377713 115.407677 
L 498.377713 102.085989 
L 477.027706 102.085989 
L 477.027706 98.858424 
z
" clip-path="url(#pccb876db2f)" style="fill: #2bffff"/>
   </g>
   <g id="patch_69">
    <path d="M 536.256756 96.799595 
Q 530.28341 97.829009 523.858744 98.346067 
Q 517.434077 98.858424 510.58464 98.858424 
Q 495.107035 98.858424 486.067371 95.793684 
Q 477.027706 92.728944 477.027706 87.487862 
Q 477.027706 82.185674 486.22666 79.144437 
Q 495.438888 76.1032 511.460731 76.1032 
Q 517.633189 76.1032 523.287957 76.516846 
Q 528.955999 76.925791 533.97361 77.734281 
L 533.97361 82.270284 
Q 528.79671 81.231468 523.672906 80.719112 
Q 518.549102 80.202054 513.39875 80.202054 
Q 503.867943 80.202054 498.704317 82.091664 
Q 493.540691 83.976573 493.540691 87.487862 
Q 493.540691 90.966248 498.51848 92.865259 
Q 503.496269 94.759569 512.6554 94.759569 
Q 515.150932 94.759569 517.288062 94.651457 
Q 519.425193 94.538644 521.124278 94.303618 
L 521.124278 90.044946 
L 511.367812 90.044946 
L 511.367812 86.251625 
L 536.256756 86.251625 
L 536.256756 96.799595 
z
" clip-path="url(#pccb876db2f)" style="fill: #f2f038"/>
   </g>
   <g id="patch_70">
    <path d="M 518.055721 66.305233 
L 495.27718 66.305233 
L 491.680569 76.1032 
L 477.027706 76.1032 
L 497.953447 22.318125 
L 515.331015 22.318125 
L 536.256756 76.1032 
L 521.616004 76.1032 
L 518.055721 66.305233 
z
M 498.910121 56.322834 
L 514.386451 56.322834 
L 506.660396 34.928685 
L 498.910121 56.322834 
z
" clip-path="url(#pccb876db2f)" style="fill: #fc996b"/>
   </g>
   <g id="patch_71">
    <path d="M 539.374075 158.849468 
L 549.615691 158.849468 
L 556.775051 160.352858 
L 563.881116 158.849468 
L 574.176027 158.849468 
L 581.282092 160.352858 
L 588.450335 158.849468 
L 598.603125 158.849468 
L 588.832286 160.918125 
L 576.512146 160.918125 
L 568.9886 159.345573 
L 561.55388 160.918125 
L 549.224857 160.918125 
L 539.374075 158.849468 
z
" clip-path="url(#pccb876db2f)" style="fill: #6bc96b"/>
   </g>
   <g id="patch_72">
    <path d="M 539.374075 154.712155 
L 570.160841 154.712155 
Q 583.903832 154.712155 591.245766 155.063286 
Q 598.603125 155.41353 598.603125 156.061703 
Q 598.603125 156.713423 591.245766 157.063667 
Q 583.903832 157.413911 570.160841 157.413911 
L 557.929426 157.413911 
L 557.929426 158.849468 
L 539.374075 158.849468 
L 539.374075 154.712155 
z
M 557.929426 155.485352 
L 557.929426 156.640714 
L 568.18654 156.640714 
Q 573.585021 156.640714 576.531049 156.489976 
Q 579.477078 156.339238 579.477078 156.061703 
Q 579.477078 155.785054 576.531049 155.635203 
Q 573.585021 155.485352 568.18654 155.485352 
L 557.929426 155.485352 
z
" clip-path="url(#pccb876db2f)" style="fill: #1a9cfc"/>
   </g>
   <g id="patch_73">
    <path d="M 539.374075 148.506185 
L 556.846074 148.506185 
L 568.965776 151.827296 
L 581.165362 148.506185 
L 598.603125 148.506185 
L 598.603125 154.712155 
L 585.627512 154.712155 
L 585.627512 150.172726 
L 573.359453 153.519108 
L 564.651983 153.519108 
L 552.383924 150.172726 
L 552.383924 154.712155 
L 539.374075 154.712155 
L 539.374075 148.506185 
z
" clip-path="url(#pccb876db2f)" style="fill: #cc99cc"/>
   </g>
   <g id="patch_74">
    <path d="M 539.990486 142.300215 
L 597.986714 142.300215 
L 597.986714 143.510552 
L 561.484467 143.510552 
L 561.484467 144.665027 
L 595.824809 144.665027 
L 595.824809 145.875364 
L 561.484467 145.875364 
L 561.484467 148.506185 
L 539.990486 148.506185 
L 539.990486 142.300215 
z
" clip-path="url(#pccb876db2f)" style="fill: #29fc2e"/>
   </g>
   <g id="patch_75">
    <path d="M 558.241609 131.956931 
L 579.73559 131.956931 
L 579.73559 142.300215 
L 558.241609 142.300215 
L 558.241609 131.956931 
z
" clip-path="url(#pccb876db2f)" style="fill: #cc993d"/>
   </g>
   <g id="patch_76">
    <path d="M 539.374075 119.544991 
L 554.026937 119.544991 
L 569.006765 128.706311 
L 583.962372 119.544991 
L 598.603125 119.544991 
L 577.677384 131.956931 
L 560.299816 131.956931 
L 539.374075 119.544991 
z
" clip-path="url(#pccb876db2f)" style="fill: #ffcc45"/>
   </g>
   <g id="patch_77">
    <path d="M 539.374075 22.318125 
L 560.868056 22.318125 
L 560.868056 100.60388 
L 598.603125 100.60388 
L 598.603125 119.544991 
L 539.374075 119.544991 
L 539.374075 22.318125 
z
" clip-path="url(#pccb876db2f)" style="fill: #fc9940"/>
   </g>
   <g id="matplotlib.axis_1">
    <g id="xtick_1">
     <g id="line2d_2">
      <defs>
       <path id="m4692eedb4d" d="M 0 0 
L 0 3.5 
" style="stroke: #000000; stroke-width: 0.8"/>
      </defs>
      <g>
       <use xlink:href="#m4692eedb4d" x="70.21765" y="160.918125" style="stroke: #000000; stroke-width: 0.8"/>
      </g>
     </g>
     <g id="text_1">
      <!-- 96 -->
      <g transform="translate(63.85515 175.516563) scale(0.1 -0.1)">
       <defs>
        <path id="DejaVuSans-39" d="M 703 97 
L 703 672 
Q 941 559 1184 500 
Q 1428 441 1663 441 
Q 2288 441 2617 861 
Q 2947 1281 2994 2138 
Q 2813 1869 2534 1725 
Q 2256 1581 1919 1581 
Q 1219 1581 811 2004 
Q 403 2428 403 3163 
Q 403 3881 828 4315 
Q 1253 4750 1959 4750 
Q 2769 4750 3195 4129 
Q 3622 3509 3622 2328 
Q 3622 1225 3098 567 
Q 2575 -91 1691 -91 
Q 1453 -91 1209 -44 
Q 966 3 703 97 
z
M 1959 2075 
Q 2384 2075 2632 2365 
Q 2881 2656 2881 3163 
Q 2881 3666 2632 3958 
Q 2384 4250 1959 4250 
Q 1534 4250 1286 3958 
Q 1038 3666 1038 3163 
Q 1038 2656 1286 2365 
Q 1534 2075 1959 2075 
z
" transform="scale(0.015625)"/>
        <path id="DejaVuSans-36" d="M 2113 2584 
Q 1688 2584 1439 2293 
Q 1191 2003 1191 1497 
Q 1191 994 1439 701 
Q 1688 409 2113 409 
Q 2538 409 2786 701 
Q 3034 994 3034 1497 
Q 3034 2003 2786 2293 
Q 2538 2584 2113 2584 
z
M 3366 4563 
L 3366 3988 
Q 3128 4100 2886 4159 
Q 2644 4219 2406 4219 
Q 1781 4219 1451 3797 
Q 1122 3375 1075 2522 
Q 1259 2794 1537 2939 
Q 1816 3084 2150 3084 
Q 2853 3084 3261 2657 
Q 3669 2231 3669 1497 
Q 3669 778 3244 343 
Q 2819 -91 2113 -91 
Q 1303 -91 875 529 
Q 447 1150 447 2328 
Q 447 3434 972 4092 
Q 1497 4750 2381 4750 
Q 2619 4750 2861 4703 
Q 3103 4656 3366 4563 
z
" transform="scale(0.015625)"/>
       </defs>
       <use xlink:href="#DejaVuSans-39"/>
       <use xlink:href="#DejaVuSans-36" transform="translate(63.623047 0)"/>
      </g>
     </g>
    </g>
    <g id="xtick_2">
     <g id="line2d_3">
      <g>
       <use xlink:href="#m4692eedb4d" x="132.564019" y="160.918125" style="stroke: #000000; stroke-width: 0.8"/>
      </g>
     </g>
     <g id="text_2">
      <!-- 98 -->
      <g transform="translate(126.201519 175.516563) scale(0.1 -0.1)">
       <defs>
        <path id="DejaVuSans-38" d="M 2034 2216 
Q 1584 2216 1326 1975 
Q 1069 1734 1069 1313 
Q 1069 891 1326 650 
Q 1584 409 2034 409 
Q 2484 409 2743 651 
Q 3003 894 3003 1313 
Q 3003 1734 2745 1975 
Q 2488 2216 2034 2216 
z
M 1403 2484 
Q 997 2584 770 2862 
Q 544 3141 544 3541 
Q 544 4100 942 4425 
Q 1341 4750 2034 4750 
Q 2731 4750 3128 4425 
Q 3525 4100 3525 3541 
Q 3525 3141 3298 2862 
Q 3072 2584 2669 2484 
Q 3125 2378 3379 2068 
Q 3634 1759 3634 1313 
Q 3634 634 3220 271 
Q 2806 -91 2034 -91 
Q 1263 -91 848 271 
Q 434 634 434 1313 
Q 434 1759 690 2068 
Q 947 2378 1403 2484 
z
M 1172 3481 
Q 1172 3119 1398 2916 
Q 1625 2713 2034 2713 
Q 2441 2713 2670 2916 
Q 2900 3119 2900 3481 
Q 2900 3844 2670 4047 
Q 2441 4250 2034 4250 
Q 1625 4250 1398 4047 
Q 1172 3844 1172 3481 
z
" transform="scale(0.015625)"/>
       </defs>
       <use xlink:href="#DejaVuSans-39"/>
       <use xlink:href="#DejaVuSans-38" transform="translate(63.623047 0)"/>
      </g>
     </g>
    </g>
    <g id="xtick_3">
     <g id="line2d_4">
      <g>
       <use xlink:href="#m4692eedb4d" x="194.910388" y="160.918125" style="stroke: #000000; stroke-width: 0.8"/>
      </g>
     </g>
     <g id="text_3">
      <!-- 347 -->
      <g transform="translate(185.366638 175.516563) scale(0.1 -0.1)">
       <defs>
        <path id="DejaVuSans-33" d="M 2597 2516 
Q 3050 2419 3304 2112 
Q 3559 1806 3559 1356 
Q 3559 666 3084 287 
Q 2609 -91 1734 -91 
Q 1441 -91 1130 -33 
Q 819 25 488 141 
L 488 750 
Q 750 597 1062 519 
Q 1375 441 1716 441 
Q 2309 441 2620 675 
Q 2931 909 2931 1356 
Q 2931 1769 2642 2001 
Q 2353 2234 1838 2234 
L 1294 2234 
L 1294 2753 
L 1863 2753 
Q 2328 2753 2575 2939 
Q 2822 3125 2822 3475 
Q 2822 3834 2567 4026 
Q 2313 4219 1838 4219 
Q 1578 4219 1281 4162 
Q 984 4106 628 3988 
L 628 4550 
Q 988 4650 1302 4700 
Q 1616 4750 1894 4750 
Q 2613 4750 3031 4423 
Q 3450 4097 3450 3541 
Q 3450 3153 3228 2886 
Q 3006 2619 2597 2516 
z
" transform="scale(0.015625)"/>
        <path id="DejaVuSans-34" d="M 2419 4116 
L 825 1625 
L 2419 1625 
L 2419 4116 
z
M 2253 4666 
L 3047 4666 
L 3047 1625 
L 3713 1625 
L 3713 1100 
L 3047 1100 
L 3047 0 
L 2419 0 
L 2419 1100 
L 313 1100 
L 313 1709 
L 2253 4666 
z
" transform="scale(0.015625)"/>
        <path id="DejaVuSans-37" d="M 525 4666 
L 3525 4666 
L 3525 4397 
L 1831 0 
L 1172 0 
L 2766 4134 
L 525 4134 
L 525 4666 
z
" transform="scale(0.015625)"/>
       </defs>
       <use xlink:href="#DejaVuSans-33"/>
       <use xlink:href="#DejaVuSans-34" transform="translate(63.623047 0)"/>
       <use xlink:href="#DejaVuSans-37" transform="translate(127.246094 0)"/>
      </g>
     </g>
    </g>
    <g id="xtick_4">
     <g id="line2d_5">
      <g>
       <use xlink:href="#m4692eedb4d" x="257.256756" y="160.918125" style="stroke: #000000; stroke-width: 0.8"/>
      </g>
     </g>
     <g id="text_4">
      <!-- 350 -->
      <g transform="translate(247.713006 175.516563) scale(0.1 -0.1)">
       <defs>
        <path id="DejaVuSans-35" d="M 691 4666 
L 3169 4666 
L 3169 4134 
L 1269 4134 
L 1269 2991 
Q 1406 3038 1543 3061 
Q 1681 3084 1819 3084 
Q 2600 3084 3056 2656 
Q 3513 2228 3513 1497 
Q 3513 744 3044 326 
Q 2575 -91 1722 -91 
Q 1428 -91 1123 -41 
Q 819 9 494 109 
L 494 744 
Q 775 591 1075 516 
Q 1375 441 1709 441 
Q 2250 441 2565 725 
Q 2881 1009 2881 1497 
Q 2881 1984 2565 2268 
Q 2250 2553 1709 2553 
Q 1456 2553 1204 2497 
Q 953 2441 691 2322 
L 691 4666 
z
" transform="scale(0.015625)"/>
        <path id="DejaVuSans-30" d="M 2034 4250 
Q 1547 4250 1301 3770 
Q 1056 3291 1056 2328 
Q 1056 1369 1301 889 
Q 1547 409 2034 409 
Q 2525 409 2770 889 
Q 3016 1369 3016 2328 
Q 3016 3291 2770 3770 
Q 2525 4250 2034 4250 
z
M 2034 4750 
Q 2819 4750 3233 4129 
Q 3647 3509 3647 2328 
Q 3647 1150 3233 529 
Q 2819 -91 2034 -91 
Q 1250 -91 836 529 
Q 422 1150 422 2328 
Q 422 3509 836 4129 
Q 1250 4750 2034 4750 
z
" transform="scale(0.015625)"/>
       </defs>
       <use xlink:href="#DejaVuSans-33"/>
       <use xlink:href="#DejaVuSans-35" transform="translate(63.623047 0)"/>
       <use xlink:href="#DejaVuSans-30" transform="translate(127.246094 0)"/>
      </g>
     </g>
    </g>
    <g id="xtick_5">
     <g id="line2d_6">
      <g>
       <use xlink:href="#m4692eedb4d" x="319.603125" y="160.918125" style="stroke: #000000; stroke-width: 0.8"/>
      </g>
     </g>
     <g id="text_5">
      <!-- 818 -->
      <g transform="translate(310.059375 175.516563) scale(0.1 -0.1)">
       <defs>
        <path id="DejaVuSans-31" d="M 794 531 
L 1825 531 
L 1825 4091 
L 703 3866 
L 703 4441 
L 1819 4666 
L 2450 4666 
L 2450 531 
L 3481 531 
L 3481 0 
L 794 0 
L 794 531 
z
" transform="scale(0.015625)"/>
       </defs>
       <use xlink:href="#DejaVuSans-38"/>
       <use xlink:href="#DejaVuSans-31" transform="translate(63.623047 0)"/>
       <use xlink:href="#DejaVuSans-38" transform="translate(127.246094 0)"/>
      </g>
     </g>
    </g>
    <g id="xtick_6">
     <g id="line2d_7">
      <g>
       <use xlink:href="#m4692eedb4d" x="381.949494" y="160.918125" style="stroke: #000000; stroke-width: 0.8"/>
      </g>
     </g>
     <g id="text_6">
      <!-- 884 -->
      <g transform="translate(372.405744 175.516563) scale(0.1 -0.1)">
       <use xlink:href="#DejaVuSans-38"/>
       <use xlink:href="#DejaVuSans-38" transform="translate(63.623047 0)"/>
       <use xlink:href="#DejaVuSans-34" transform="translate(127.246094 0)"/>
      </g>
     </g>
    </g>
    <g id="xtick_7">
     <g id="line2d_8">
      <g>
       <use xlink:href="#m4692eedb4d" x="444.295862" y="160.918125" style="stroke: #000000; stroke-width: 0.8"/>
      </g>
     </g>
     <g id="text_7">
      <!-- 924 -->
      <g transform="translate(434.752112 175.516563) scale(0.1 -0.1)">
       <defs>
        <path id="DejaVuSans-32" d="M 1228 531 
L 3431 531 
L 3431 0 
L 469 0 
L 469 531 
Q 828 903 1448 1529 
Q 2069 2156 2228 2338 
Q 2531 2678 2651 2914 
Q 2772 3150 2772 3378 
Q 2772 3750 2511 3984 
Q 2250 4219 1831 4219 
Q 1534 4219 1204 4116 
Q 875 4013 500 3803 
L 500 4441 
Q 881 4594 1212 4672 
Q 1544 4750 1819 4750 
Q 2544 4750 2975 4387 
Q 3406 4025 3406 3419 
Q 3406 3131 3298 2873 
Q 3191 2616 2906 2266 
Q 2828 2175 2409 1742 
Q 1991 1309 1228 531 
z
" transform="scale(0.015625)"/>
       </defs>
       <use xlink:href="#DejaVuSans-39"/>
       <use xlink:href="#DejaVuSans-32" transform="translate(63.623047 0)"/>
       <use xlink:href="#DejaVuSans-34" transform="translate(127.246094 0)"/>
      </g>
     </g>
    </g>
    <g id="xtick_8">
     <g id="line2d_9">
      <g>
       <use xlink:href="#m4692eedb4d" x="506.642231" y="160.918125" style="stroke: #000000; stroke-width: 0.8"/>
      </g>
     </g>
     <g id="text_8">
      <!-- 936 -->
      <g transform="translate(497.098481 175.516563) scale(0.1 -0.1)">
       <use xlink:href="#DejaVuSans-39"/>
       <use xlink:href="#DejaVuSans-33" transform="translate(63.623047 0)"/>
       <use xlink:href="#DejaVuSans-36" transform="translate(127.246094 0)"/>
      </g>
     </g>
    </g>
    <g id="xtick_9">
     <g id="line2d_10">
      <g>
       <use xlink:href="#m4692eedb4d" x="568.9886" y="160.918125" style="stroke: #000000; stroke-width: 0.8"/>
      </g>
     </g>
     <g id="text_9">
      <!-- 986 -->
      <g transform="translate(559.44485 175.516563) scale(0.1 -0.1)">
       <use xlink:href="#DejaVuSans-39"/>
       <use xlink:href="#DejaVuSans-38" transform="translate(63.623047 0)"/>
       <use xlink:href="#DejaVuSans-36" transform="translate(127.246094 0)"/>
      </g>
     </g>
    </g>
    <g id="text_10">
     <!-- position -->
     <g transform="translate(299.798437 189.194688) scale(0.1 -0.1)">
      <defs>
       <path id="DejaVuSans-70" d="M 1159 525 
L 1159 -1331 
L 581 -1331 
L 581 3500 
L 1159 3500 
L 1159 2969 
Q 1341 3281 1617 3432 
Q 1894 3584 2278 3584 
Q 2916 3584 3314 3078 
Q 3713 2572 3713 1747 
Q 3713 922 3314 415 
Q 2916 -91 2278 -91 
Q 1894 -91 1617 61 
Q 1341 213 1159 525 
z
M 3116 1747 
Q 3116 2381 2855 2742 
Q 2594 3103 2138 3103 
Q 1681 3103 1420 2742 
Q 1159 2381 1159 1747 
Q 1159 1113 1420 752 
Q 1681 391 2138 391 
Q 2594 391 2855 752 
Q 3116 1113 3116 1747 
z
" transform="scale(0.015625)"/>
       <path id="DejaVuSans-6f" d="M 1959 3097 
Q 1497 3097 1228 2736 
Q 959 2375 959 1747 
Q 959 1119 1226 758 
Q 1494 397 1959 397 
Q 2419 397 2687 759 
Q 2956 1122 2956 1747 
Q 2956 2369 2687 2733 
Q 2419 3097 1959 3097 
z
M 1959 3584 
Q 2709 3584 3137 3096 
Q 3566 2609 3566 1747 
Q 3566 888 3137 398 
Q 2709 -91 1959 -91 
Q 1206 -91 779 398 
Q 353 888 353 1747 
Q 353 2609 779 3096 
Q 1206 3584 1959 3584 
z
" transform="scale(0.015625)"/>
       <path id="DejaVuSans-73" d="M 2834 3397 
L 2834 2853 
Q 2591 2978 2328 3040 
Q 2066 3103 1784 3103 
Q 1356 3103 1142 2972 
Q 928 2841 928 2578 
Q 928 2378 1081 2264 
Q 1234 2150 1697 2047 
L 1894 2003 
Q 2506 1872 2764 1633 
Q 3022 1394 3022 966 
Q 3022 478 2636 193 
Q 2250 -91 1575 -91 
Q 1294 -91 989 -36 
Q 684 19 347 128 
L 347 722 
Q 666 556 975 473 
Q 1284 391 1588 391 
Q 1994 391 2212 530 
Q 2431 669 2431 922 
Q 2431 1156 2273 1281 
Q 2116 1406 1581 1522 
L 1381 1569 
Q 847 1681 609 1914 
Q 372 2147 372 2553 
Q 372 3047 722 3315 
Q 1072 3584 1716 3584 
Q 2034 3584 2315 3537 
Q 2597 3491 2834 3397 
z
" transform="scale(0.015625)"/>
       <path id="DejaVuSans-69" d="M 603 3500 
L 1178 3500 
L 1178 0 
L 603 0 
L 603 3500 
z
M 603 4863 
L 1178 4863 
L 1178 4134 
L 603 4134 
L 603 4863 
z
" transform="scale(0.015625)"/>
       <path id="DejaVuSans-74" d="M 1172 4494 
L 1172 3500 
L 2356 3500 
L 2356 3053 
L 1172 3053 
L 1172 1153 
Q 1172 725 1289 603 
Q 1406 481 1766 481 
L 2356 481 
L 2356 0 
L 1766 0 
Q 1100 0 847 248 
Q 594 497 594 1153 
L 594 3053 
L 172 3053 
L 172 3500 
L 594 3500 
L 594 4494 
L 1172 4494 
z
" transform="scale(0.015625)"/>
       <path id="DejaVuSans-6e" d="M 3513 2113 
L 3513 0 
L 2938 0 
L 2938 2094 
Q 2938 2591 2744 2837 
Q 2550 3084 2163 3084 
Q 1697 3084 1428 2787 
Q 1159 2491 1159 1978 
L 1159 0 
L 581 0 
L 581 3500 
L 1159 3500 
L 1159 2956 
Q 1366 3272 1645 3428 
Q 1925 3584 2291 3584 
Q 2894 3584 3203 3211 
Q 3513 2838 3513 2113 
z
" transform="scale(0.015625)"/>
      </defs>
      <use xlink:href="#DejaVuSans-70"/>
      <use xlink:href="#DejaVuSans-6f" transform="translate(63.476562 0)"/>
      <use xlink:href="#DejaVuSans-73" transform="translate(124.658203 0)"/>
      <use xlink:href="#DejaVuSans-69" transform="translate(176.757812 0)"/>
      <use xlink:href="#DejaVuSans-74" transform="translate(204.541016 0)"/>
      <use xlink:href="#DejaVuSans-69" transform="translate(243.75 0)"/>
      <use xlink:href="#DejaVuSans-6f" transform="translate(271.533203 0)"/>
      <use xlink:href="#DejaVuSans-6e" transform="translate(332.714844 0)"/>
     </g>
    </g>
   </g>
   <g id="matplotlib.axis_2">
    <g id="ytick_1">
     <g id="line2d_11">
      <defs>
       <path id="m8d8cfe4cb1" d="M 0 0 
L -3.5 0 
" style="stroke: #000000; stroke-width: 0.8"/>
      </defs>
      <g>
       <use xlink:href="#m8d8cfe4cb1" x="40.603125" y="160.918125" style="stroke: #000000; stroke-width: 0.8"/>
      </g>
     </g>
     <g id="text_11">
      <!-- 0 -->
      <g transform="translate(27.240625 164.717344) scale(0.1 -0.1)">
       <use xlink:href="#DejaVuSans-30"/>
      </g>
     </g>
    </g>
    <g id="ytick_2">
     <g id="line2d_12">
      <g>
       <use xlink:href="#m8d8cfe4cb1" x="40.603125" y="119.544991" style="stroke: #000000; stroke-width: 0.8"/>
      </g>
     </g>
     <g id="text_12">
      <!-- 20 -->
      <g transform="translate(20.878125 123.344209) scale(0.1 -0.1)">
       <use xlink:href="#DejaVuSans-32"/>
       <use xlink:href="#DejaVuSans-30" transform="translate(63.623047 0)"/>
      </g>
     </g>
    </g>
    <g id="ytick_3">
     <g id="line2d_13">
      <g>
       <use xlink:href="#m8d8cfe4cb1" x="40.603125" y="78.171856" style="stroke: #000000; stroke-width: 0.8"/>
      </g>
     </g>
     <g id="text_13">
      <!-- 40 -->
      <g transform="translate(20.878125 81.971075) scale(0.1 -0.1)">
       <use xlink:href="#DejaVuSans-34"/>
       <use xlink:href="#DejaVuSans-30" transform="translate(63.623047 0)"/>
      </g>
     </g>
    </g>
    <g id="ytick_4">
     <g id="line2d_14">
      <g>
       <use xlink:href="#m8d8cfe4cb1" x="40.603125" y="36.798722" style="stroke: #000000; stroke-width: 0.8"/>
      </g>
     </g>
     <g id="text_14">
      <!-- 60 -->
      <g transform="translate(20.878125 40.597941) scale(0.1 -0.1)">
       <use xlink:href="#DejaVuSans-36"/>
       <use xlink:href="#DejaVuSans-30" transform="translate(63.623047 0)"/>
      </g>
     </g>
    </g>
    <g id="text_15">
     <!-- count # -->
     <g transform="translate(14.798437 111.503281) rotate(-90) scale(0.1 -0.1)">
      <defs>
       <path id="DejaVuSans-63" d="M 3122 3366 
L 3122 2828 
Q 2878 2963 2633 3030 
Q 2388 3097 2138 3097 
Q 1578 3097 1268 2742 
Q 959 2388 959 1747 
Q 959 1106 1268 751 
Q 1578 397 2138 397 
Q 2388 397 2633 464 
Q 2878 531 3122 666 
L 3122 134 
Q 2881 22 2623 -34 
Q 2366 -91 2075 -91 
Q 1284 -91 818 406 
Q 353 903 353 1747 
Q 353 2603 823 3093 
Q 1294 3584 2113 3584 
Q 2378 3584 2631 3529 
Q 2884 3475 3122 3366 
z
" transform="scale(0.015625)"/>
       <path id="DejaVuSans-75" d="M 544 1381 
L 544 3500 
L 1119 3500 
L 1119 1403 
Q 1119 906 1312 657 
Q 1506 409 1894 409 
Q 2359 409 2629 706 
Q 2900 1003 2900 1516 
L 2900 3500 
L 3475 3500 
L 3475 0 
L 2900 0 
L 2900 538 
Q 2691 219 2414 64 
Q 2138 -91 1772 -91 
Q 1169 -91 856 284 
Q 544 659 544 1381 
z
M 1991 3584 
L 1991 3584 
z
" transform="scale(0.015625)"/>
       <path id="DejaVuSans-20" transform="scale(0.015625)"/>
       <path id="DejaVuSans-23" d="M 3272 2816 
L 2363 2816 
L 2100 1772 
L 3016 1772 
L 3272 2816 
z
M 2803 4594 
L 2478 3297 
L 3391 3297 
L 3719 4594 
L 4219 4594 
L 3897 3297 
L 4872 3297 
L 4872 2816 
L 3775 2816 
L 3519 1772 
L 4513 1772 
L 4513 1294 
L 3397 1294 
L 3072 0 
L 2572 0 
L 2894 1294 
L 1978 1294 
L 1656 0 
L 1153 0 
L 1478 1294 
L 494 1294 
L 494 1772 
L 1594 1772 
L 1856 2816 
L 850 2816 
L 850 3297 
L 1978 3297 
L 2297 4594 
L 2803 4594 
z
" transform="scale(0.015625)"/>
      </defs>
      <use xlink:href="#DejaVuSans-63"/>
      <use xlink:href="#DejaVuSans-6f" transform="translate(54.980469 0)"/>
      <use xlink:href="#DejaVuSans-75" transform="translate(116.162109 0)"/>
      <use xlink:href="#DejaVuSans-6e" transform="translate(179.541016 0)"/>
      <use xlink:href="#DejaVuSans-74" transform="translate(242.919922 0)"/>
      <use xlink:href="#DejaVuSans-20" transform="translate(282.128906 0)"/>
      <use xlink:href="#DejaVuSans-23" transform="translate(313.916016 0)"/>
     </g>
    </g>
   </g>
   <g id="patch_78">
    <path d="M 40.603125 160.918125 
L 40.603125 22.318125 
" style="fill: none; stroke: #000000; stroke-width: 0.8; stroke-linejoin: miter; stroke-linecap: square"/>
   </g>
   <g id="patch_79">
    <path d="M 598.603125 160.918125 
L 598.603125 22.318125 
" style="fill: none; stroke: #000000; stroke-width: 0.8; stroke-linejoin: miter; stroke-linecap: square"/>
   </g>
   <g id="patch_80">
    <path d="M 40.603125 160.918125 
L 598.603125 160.918125 
" style="fill: none; stroke: #000000; stroke-width: 0.8; stroke-linejoin: miter; stroke-linecap: square"/>
   </g>
   <g id="patch_81">
    <path d="M 40.603125 22.318125 
L 598.603125 22.318125 
" style="fill: none; stroke: #000000; stroke-width: 0.8; stroke-linejoin: miter; stroke-linecap: square"/>
   </g>
   <g id="text_16">
    <!-- Aromaticity TRUE -->
    <g transform="translate(267.163125 16.318125) scale(0.12 -0.12)">
     <defs>
      <path id="DejaVuSans-41" d="M 2188 4044 
L 1331 1722 
L 3047 1722 
L 2188 4044 
z
M 1831 4666 
L 2547 4666 
L 4325 0 
L 3669 0 
L 3244 1197 
L 1141 1197 
L 716 0 
L 50 0 
L 1831 4666 
z
" transform="scale(0.015625)"/>
      <path id="DejaVuSans-72" d="M 2631 2963 
Q 2534 3019 2420 3045 
Q 2306 3072 2169 3072 
Q 1681 3072 1420 2755 
Q 1159 2438 1159 1844 
L 1159 0 
L 581 0 
L 581 3500 
L 1159 3500 
L 1159 2956 
Q 1341 3275 1631 3429 
Q 1922 3584 2338 3584 
Q 2397 3584 2469 3576 
Q 2541 3569 2628 3553 
L 2631 2963 
z
" transform="scale(0.015625)"/>
      <path id="DejaVuSans-6d" d="M 3328 2828 
Q 3544 3216 3844 3400 
Q 4144 3584 4550 3584 
Q 5097 3584 5394 3201 
Q 5691 2819 5691 2113 
L 5691 0 
L 5113 0 
L 5113 2094 
Q 5113 2597 4934 2840 
Q 4756 3084 4391 3084 
Q 3944 3084 3684 2787 
Q 3425 2491 3425 1978 
L 3425 0 
L 2847 0 
L 2847 2094 
Q 2847 2600 2669 2842 
Q 2491 3084 2119 3084 
Q 1678 3084 1418 2786 
Q 1159 2488 1159 1978 
L 1159 0 
L 581 0 
L 581 3500 
L 1159 3500 
L 1159 2956 
Q 1356 3278 1631 3431 
Q 1906 3584 2284 3584 
Q 2666 3584 2933 3390 
Q 3200 3197 3328 2828 
z
" transform="scale(0.015625)"/>
      <path id="DejaVuSans-61" d="M 2194 1759 
Q 1497 1759 1228 1600 
Q 959 1441 959 1056 
Q 959 750 1161 570 
Q 1363 391 1709 391 
Q 2188 391 2477 730 
Q 2766 1069 2766 1631 
L 2766 1759 
L 2194 1759 
z
M 3341 1997 
L 3341 0 
L 2766 0 
L 2766 531 
Q 2569 213 2275 61 
Q 1981 -91 1556 -91 
Q 1019 -91 701 211 
Q 384 513 384 1019 
Q 384 1609 779 1909 
Q 1175 2209 1959 2209 
L 2766 2209 
L 2766 2266 
Q 2766 2663 2505 2880 
Q 2244 3097 1772 3097 
Q 1472 3097 1187 3025 
Q 903 2953 641 2809 
L 641 3341 
Q 956 3463 1253 3523 
Q 1550 3584 1831 3584 
Q 2591 3584 2966 3190 
Q 3341 2797 3341 1997 
z
" transform="scale(0.015625)"/>
      <path id="DejaVuSans-79" d="M 2059 -325 
Q 1816 -950 1584 -1140 
Q 1353 -1331 966 -1331 
L 506 -1331 
L 506 -850 
L 844 -850 
Q 1081 -850 1212 -737 
Q 1344 -625 1503 -206 
L 1606 56 
L 191 3500 
L 800 3500 
L 1894 763 
L 2988 3500 
L 3597 3500 
L 2059 -325 
z
" transform="scale(0.015625)"/>
      <path id="DejaVuSans-54" d="M -19 4666 
L 3928 4666 
L 3928 4134 
L 2272 4134 
L 2272 0 
L 1638 0 
L 1638 4134 
L -19 4134 
L -19 4666 
z
" transform="scale(0.015625)"/>
      <path id="DejaVuSans-52" d="M 2841 2188 
Q 3044 2119 3236 1894 
Q 3428 1669 3622 1275 
L 4263 0 
L 3584 0 
L 2988 1197 
Q 2756 1666 2539 1819 
Q 2322 1972 1947 1972 
L 1259 1972 
L 1259 0 
L 628 0 
L 628 4666 
L 2053 4666 
Q 2853 4666 3247 4331 
Q 3641 3997 3641 3322 
Q 3641 2881 3436 2590 
Q 3231 2300 2841 2188 
z
M 1259 4147 
L 1259 2491 
L 2053 2491 
Q 2509 2491 2742 2702 
Q 2975 2913 2975 3322 
Q 2975 3731 2742 3939 
Q 2509 4147 2053 4147 
L 1259 4147 
z
" transform="scale(0.015625)"/>
      <path id="DejaVuSans-55" d="M 556 4666 
L 1191 4666 
L 1191 1831 
Q 1191 1081 1462 751 
Q 1734 422 2344 422 
Q 2950 422 3222 751 
Q 3494 1081 3494 1831 
L 3494 4666 
L 4128 4666 
L 4128 1753 
Q 4128 841 3676 375 
Q 3225 -91 2344 -91 
Q 1459 -91 1007 375 
Q 556 841 556 1753 
L 556 4666 
z
" transform="scale(0.015625)"/>
      <path id="DejaVuSans-45" d="M 628 4666 
L 3578 4666 
L 3578 4134 
L 1259 4134 
L 1259 2753 
L 3481 2753 
L 3481 2222 
L 1259 2222 
L 1259 531 
L 3634 531 
L 3634 0 
L 628 0 
L 628 4666 
z
" transform="scale(0.015625)"/>
     </defs>
     <use xlink:href="#DejaVuSans-41"/>
     <use xlink:href="#DejaVuSans-72" transform="translate(68.408203 0)"/>
     <use xlink:href="#DejaVuSans-6f" transform="translate(107.271484 0)"/>
     <use xlink:href="#DejaVuSans-6d" transform="translate(168.453125 0)"/>
     <use xlink:href="#DejaVuSans-61" transform="translate(265.865234 0)"/>
     <use xlink:href="#DejaVuSans-74" transform="translate(327.144531 0)"/>
     <use xlink:href="#DejaVuSans-69" transform="translate(366.353516 0)"/>
     <use xlink:href="#DejaVuSans-63" transform="translate(394.136719 0)"/>
     <use xlink:href="#DejaVuSans-69" transform="translate(449.117188 0)"/>
     <use xlink:href="#DejaVuSans-74" transform="translate(476.900391 0)"/>
     <use xlink:href="#DejaVuSans-79" transform="translate(516.109375 0)"/>
     <use xlink:href="#DejaVuSans-20" transform="translate(575.289062 0)"/>
     <use xlink:href="#DejaVuSans-54" transform="translate(607.076172 0)"/>
     <use xlink:href="#DejaVuSans-52" transform="translate(668.160156 0)"/>
     <use xlink:href="#DejaVuSans-55" transform="translate(737.642578 0)"/>
     <use xlink:href="#DejaVuSans-45" transform="translate(810.835938 0)"/>
    </g>
   </g>
  </g>
 </g>
 <defs>
  <clipPath id="pccb876db2f">
   <rect x="40.603125" y="22.318125" width="558" height="138.6"/>
  </clipPath>
 </defs>
</svg>
