<?xml version="1.0" encoding="utf-8" standalone="no"?>
<!DOCTYPE svg PUBLIC "-//W3C//DTD SVG 1.1//EN"
  "http://www.w3.org/Graphics/SVG/1.1/DTD/svg11.dtd">
<svg xmlns:xlink="http://www.w3.org/1999/xlink" width="605.803125pt" height="198.474375pt" viewBox="0 0 605.803125 198.474375" xmlns="http://www.w3.org/2000/svg" version="1.1">
 <metadata>
  <rdf:RDF xmlns:dc="http://purl.org/dc/elements/1.1/" xmlns:cc="http://creativecommons.org/ns#" xmlns:rdf="http://www.w3.org/1999/02/22-rdf-syntax-ns#">
   <cc:Work>
    <dc:type rdf:resource="http://purl.org/dc/dcmitype/StillImage"/>
    <dc:date>2026-07-03T02:44:43.543657</dc:date>
    <dc:format>image/svg+xml</dc:format>
    <dc:creator>
     <cc:Agent>
      <dc:title>Matplotlib v3.10.9, https://matplotlib.org/</dc:title>
     </cc:Agent>
    </dc:creator>
   </cc:Work>
  </rdf:RDF>
 </metadata>
 <defs>
  <style type="text/css">*{stroke-linejoin: round; stroke-linecap: butt}</style>
 </defs>
 <g id="figure_1">
  <g id="patch_1">
   <path d="M 0 198.474375 
L 605.803125 198.474375 
L 605.803125 0 
L 0 0 
z
" style="fill: #ffffff"/>
  </g>
  <g id="axes_1">
   <g id="patch_2">
    <path d="M 40.603125 160.918125 
L 598.603125 160.918125 
L 598.603125 22.318125 
L 40.603125 22.318125 
z
" style="fill: #ffffff"/>
   </g>
   <g id="line2d_1">
    <path d="M 40.603125 160.918125 
L 598.603125 160.918125 
" clip-path="url(#p9cf6e11adb)" style="fill: none; stroke: #000000; stroke-width: 0.5; stroke-linecap: square"/>
   </g>
   <g id="patch_3">
    <path d="M 58.875365 159.174857 
L 58.875365 160.496232 
L 65.421778 160.496232 
Q 76.615993 160.496232 82.524473 160.326361 
Q 88.448142 160.15649 88.448142 159.832992 
Q 88.448142 159.511351 82.554851 159.343336 
Q 76.676749 159.174857 65.421778 159.174857 
L 58.875365 159.174857 
z
M 40.603125 158.7525 
L 59.862643 158.7525 
Q 76.008437 158.7525 83.906662 158.823048 
Q 91.804887 158.893131 97.455156 159.06161 
Q 102.437113 159.208274 104.852147 159.39996 
Q 107.28237 159.591181 107.28237 159.832992 
Q 107.28237 160.078516 104.852147 160.270665 
Q 102.437113 160.462815 97.455156 160.609015 
Q 91.75932 160.777494 83.785151 160.848042 
Q 75.810982 160.918125 59.862643 160.918125 
L 40.603125 160.918125 
L 40.603125 158.7525 
z
" clip-path="url(#p9cf6e11adb)" style="fill: #fc0d1c"/>
   </g>
   <g id="patch_4">
    <path d="M 40.603125 156.586875 
L 107.28237 156.586875 
L 107.28237 157.009232 
L 83.293349 157.009232 
L 83.293349 158.7525 
L 64.638667 158.7525 
L 64.638667 157.009232 
L 40.603125 157.009232 
L 40.603125 156.586875 
z
" clip-path="url(#p9cf6e11adb)" style="fill: #2bffff"/>
   </g>
   <g id="patch_5">
    <path d="M 40.603125 154.42125 
L 62.0215 154.42125 
L 89.085523 155.906462 
L 89.085523 154.42125 
L 107.28237 154.42125 
L 107.28237 156.586875 
L 85.848047 156.586875 
L 58.784024 155.101663 
L 58.784024 156.586875 
L 40.603125 156.586875 
L 40.603125 154.42125 
z
" clip-path="url(#p9cf6e11adb)" style="fill: #366666"/>
   </g>
   <g id="patch_6">
    <path d="M 107.28237 154.110789 
Q 101.704766 154.264677 95.673562 154.342516 
Q 89.642358 154.42125 83.073554 154.42125 
Q 63.484741 154.42125 52.043933 153.837905 
Q 40.603125 153.254559 40.603125 152.256967 
Q 40.603125 151.255796 52.043933 150.673345 
Q 63.484741 150.09 83.073554 150.09 
Q 89.642358 150.09 95.673562 150.168734 
Q 101.704766 150.246573 107.28237 150.400461 
L 107.28237 151.263848 
Q 101.654366 151.059856 96.194363 150.965018 
Q 90.734359 150.87018 84.703155 150.87018 
Q 73.883948 150.87018 67.684743 151.239691 
Q 61.502339 151.608308 61.502339 152.256967 
Q 61.502339 152.902942 67.684743 153.272453 
Q 73.883948 153.64107 84.703155 153.64107 
Q 90.734359 153.64107 96.194363 153.546232 
Q 101.654366 153.450499 107.28237 153.246507 
L 107.28237 154.110789 
z
" clip-path="url(#p9cf6e11adb)" style="fill: #179999"/>
   </g>
   <g id="patch_7">
    <path d="M 40.603125 145.75875 
L 52.132994 145.75875 
L 60.192903 148.906472 
L 68.192813 145.75875 
L 79.782682 145.75875 
L 87.782591 148.906472 
L 95.8525 145.75875 
L 107.28237 145.75875 
L 96.282495 150.09 
L 82.412652 150.09 
L 73.942748 146.79747 
L 65.572842 150.09 
L 51.692999 150.09 
L 40.603125 145.75875 
z
" clip-path="url(#p9cf6e11adb)" style="fill: #6bc96b"/>
   </g>
   <g id="patch_8">
    <path d="M 75.720861 145.111044 
L 74.415059 145.111044 
Q 58.398149 145.111044 49.493691 144.625645 
Q 40.603125 144.139484 40.603125 143.273082 
Q 40.603125 142.408204 49.4798 141.918233 
Q 58.356474 141.4275 73.942748 141.4275 
Q 89.695719 141.4275 98.489045 141.913661 
Q 107.28237 142.399059 107.28237 143.273082 
Q 107.28237 143.872782 102.614823 144.306364 
Q 97.947276 144.739946 89.181733 144.958642 
L 102.239752 145.75875 
L 86.306191 145.75875 
L 75.720861 145.111044 
z
M 73.942748 142.09197 
Q 66.302417 142.09197 62.09329 142.401345 
Q 57.884163 142.71072 57.884163 143.273082 
Q 57.884163 143.844587 61.99605 144.148628 
Q 66.121828 144.451907 73.942748 144.451907 
Q 81.624752 144.451907 85.83388 144.142532 
Q 90.043007 143.832395 90.043007 143.273082 
Q 90.043007 142.71072 85.83388 142.401345 
Q 81.624752 142.09197 73.942748 142.09197 
z
" clip-path="url(#p9cf6e11adb)" style="fill: #6669c9"/>
   </g>
   <g id="patch_9">
    <path d="M 41.297072 134.930625 
L 106.588423 134.930625 
L 106.588423 136.197697 
L 65.494698 136.197697 
L 65.494698 137.406288 
L 104.154581 137.406288 
L 104.154581 138.67336 
L 65.494698 138.67336 
L 65.494698 141.4275 
L 41.297072 141.4275 
L 41.297072 134.930625 
z
" clip-path="url(#p9cf6e11adb)" style="fill: #29fc2e"/>
   </g>
   <g id="patch_10">
    <path d="M 61.843934 128.43375 
L 86.041561 128.43375 
L 86.041561 134.930625 
L 61.843934 134.930625 
L 61.843934 128.43375 
z
" clip-path="url(#p9cf6e11adb)" style="fill: #cc993d"/>
   </g>
   <g id="patch_11">
    <path d="M 40.603125 119.77125 
L 64.800752 119.77125 
L 64.800752 126.746178 
L 107.28237 126.746178 
L 107.28237 128.43375 
L 40.603125 128.43375 
L 40.603125 119.77125 
z
" clip-path="url(#p9cf6e11adb)" style="fill: #fc9940"/>
   </g>
   <g id="patch_12">
    <path d="M 40.603125 108.943125 
L 105.894476 108.943125 
L 105.894476 111.054911 
L 64.800752 111.054911 
L 64.800752 113.06923 
L 103.460634 113.06923 
L 103.460634 115.181016 
L 64.800752 115.181016 
L 64.800752 117.661785 
L 107.28237 117.661785 
L 107.28237 119.77125 
L 40.603125 119.77125 
L 40.603125 108.943125 
z
" clip-path="url(#p9cf6e11adb)" style="fill: #c90a38"/>
   </g>
   <g id="patch_13">
    <path d="M 40.603125 98.115 
L 57.099115 98.115 
L 73.963197 106.107298 
L 90.800013 98.115 
L 107.28237 98.115 
L 83.724461 108.943125 
L 64.161035 108.943125 
L 40.603125 98.115 
z
" clip-path="url(#p9cf6e11adb)" style="fill: #ffcc45"/>
   </g>
   <g id="patch_14">
    <path d="M 107.28237 96.547483 
Q 100.557659 97.331241 93.324859 97.72491 
Q 86.092059 98.115 78.381057 98.115 
Q 60.956584 98.115 50.779854 95.781618 
Q 40.603125 93.448237 40.603125 89.457868 
Q 40.603125 85.420975 50.95918 83.105488 
Q 61.330179 80.79 79.367348 80.79 
Q 86.316216 80.79 92.682276 81.104935 
Q 99.063279 81.416291 104.712036 82.031846 
L 104.712036 85.485394 
Q 98.883953 84.694477 93.115646 84.304388 
Q 87.347338 83.910719 81.549143 83.910719 
Q 70.819493 83.910719 65.006354 85.349399 
Q 59.193215 86.7845 59.193215 89.457868 
Q 59.193215 92.106185 64.797141 93.552022 
Q 70.401067 94.994281 80.71229 94.994281 
Q 83.521725 94.994281 85.927677 94.911969 
Q 88.333629 94.826077 90.246436 94.647137 
L 90.246436 91.404739 
L 79.262741 91.404739 
L 79.262741 88.516642 
L 107.28237 88.516642 
L 107.28237 96.547483 
z
" clip-path="url(#p9cf6e11adb)" style="fill: #f2f038"/>
   </g>
   <g id="patch_15">
    <path d="M 101.722748 58.104843 
L 101.722748 62.966651 
Q 94.768693 62.120264 88.14061 61.692149 
Q 81.530636 61.259113 75.645042 61.259113 
Q 67.83984 61.259113 64.09117 61.844696 
Q 60.360609 62.425357 60.360609 63.655571 
Q 60.360609 64.580693 62.877832 65.097383 
Q 65.395055 65.609152 72.023139 65.978217 
L 81.295212 66.485065 
Q 95.384417 67.25764 101.324339 68.827393 
Q 107.28237 70.392226 107.28237 73.285691 
Q 107.28237 77.079673 98.988211 78.934836 
Q 90.694052 80.79 73.652995 80.79 
Q 65.630479 80.79 57.535524 80.371727 
Q 49.44057 79.958375 41.345615 79.141512 
L 41.345615 74.146841 
Q 49.44057 75.313085 56.992239 75.908509 
Q 64.543908 76.499012 71.570401 76.499012 
Q 78.705551 76.499012 82.49044 75.854379 
Q 86.275329 75.204826 86.275329 74.004136 
Q 86.275329 72.931389 83.703778 72.345807 
Q 81.132226 71.760225 73.435681 71.297664 
L 64.996646 70.790816 
Q 52.319983 70.052687 46.452499 68.438646 
Q 40.603125 66.824604 40.603125 64.088607 
Q 40.603125 60.658769 48.752408 58.813447 
Q 56.901691 56.968125 72.186124 56.968125 
Q 79.158289 56.968125 86.510753 57.253535 
Q 93.863217 57.538945 101.722748 58.104843 
z
" clip-path="url(#p9cf6e11adb)" style="fill: #0a24fa"/>
   </g>
   <g id="patch_16">
    <path d="M 86.791897 51.444992 
L 61.148131 51.444992 
L 57.099115 56.968125 
L 40.603125 56.968125 
L 64.161035 26.649375 
L 83.724461 26.649375 
L 107.28237 56.968125 
L 90.800013 56.968125 
L 86.791897 51.444992 
z
M 65.238046 45.817895 
L 82.661083 45.817895 
L 73.963197 33.757972 
L 65.238046 45.817895 
z
" clip-path="url(#p9cf6e11adb)" style="fill: #fc996b"/>
   </g>
   <g id="patch_17">
    <path d="M 129.064044 159.174857 
L 129.064044 160.496232 
L 135.610457 160.496232 
Q 146.804672 160.496232 152.713152 160.326361 
Q 158.636821 160.15649 158.636821 159.832992 
Q 158.636821 159.511351 152.74353 159.343336 
Q 146.865428 159.174857 135.610457 159.174857 
L 129.064044 159.174857 
z
M 110.791804 158.7525 
L 130.051322 158.7525 
Q 146.197116 158.7525 154.095341 158.823048 
Q 161.993566 158.893131 167.643835 159.06161 
Q 172.625792 159.208274 175.040826 159.39996 
Q 177.47105 159.591181 177.47105 159.832992 
Q 177.47105 160.078516 175.040826 160.270665 
Q 172.625792 160.462815 167.643835 160.609015 
Q 161.948 160.777494 153.97383 160.848042 
Q 145.999661 160.918125 130.051322 160.918125 
L 110.791804 160.918125 
L 110.791804 158.7525 
z
" clip-path="url(#p9cf6e11adb)" style="fill: #fc0d1c"/>
   </g>
   <g id="patch_18">
    <path d="M 110.791804 156.586875 
L 127.287794 156.586875 
L 144.151876 158.185335 
L 160.988693 156.586875 
L 177.47105 156.586875 
L 153.91314 158.7525 
L 134.349714 158.7525 
L 110.791804 156.586875 
z
" clip-path="url(#p9cf6e11adb)" style="fill: #ffcc45"/>
   </g>
   <g id="patch_19">
    <path d="M 111.485751 154.42125 
L 176.777103 154.42125 
L 176.777103 154.843607 
L 135.683378 154.843607 
L 135.683378 155.246471 
L 174.34326 155.246471 
L 174.34326 155.668828 
L 135.683378 155.668828 
L 135.683378 156.586875 
L 111.485751 156.586875 
L 111.485751 154.42125 
z
" clip-path="url(#p9cf6e11adb)" style="fill: #29fc2e"/>
   </g>
   <g id="patch_20">
    <path d="M 177.47105 154.22531 
Q 170.746339 154.32328 163.513538 154.372489 
Q 156.280738 154.42125 148.569736 154.42125 
Q 131.145263 154.42125 120.968534 154.129577 
Q 110.791804 153.837905 110.791804 153.339109 
Q 110.791804 152.834497 121.147859 152.545061 
Q 131.518858 152.255625 149.556027 152.255625 
Q 156.504895 152.255625 162.870955 152.294992 
Q 169.251958 152.333911 174.900716 152.410856 
L 174.900716 152.842549 
Q 169.072633 152.743685 163.304325 152.694923 
Q 157.536017 152.645715 151.737822 152.645715 
Q 141.008172 152.645715 135.195033 152.82555 
Q 129.381894 153.004938 129.381894 153.339109 
Q 129.381894 153.670148 134.98582 153.850878 
Q 140.589746 154.03116 150.900969 154.03116 
Q 153.710404 154.03116 156.116356 154.020871 
Q 158.522308 154.010135 160.435115 153.987767 
L 160.435115 153.582467 
L 149.45142 153.582467 
L 149.45142 153.221455 
L 177.47105 153.221455 
L 177.47105 154.22531 
z
" clip-path="url(#p9cf6e11adb)" style="fill: #f2f038"/>
   </g>
   <g id="patch_21">
    <path d="M 110.791804 150.09 
L 177.47105 150.09 
L 177.47105 150.512357 
L 153.482028 150.512357 
L 153.482028 152.255625 
L 134.827346 152.255625 
L 134.827346 150.512357 
L 110.791804 150.512357 
L 110.791804 150.09 
z
" clip-path="url(#p9cf6e11adb)" style="fill: #2bffff"/>
   </g>
   <g id="patch_22">
    <path d="M 110.791804 145.75875 
L 129.226654 145.75875 
L 144.117419 147.302442 
L 158.994175 145.75875 
L 177.47105 145.75875 
L 152.56439 148.265046 
L 152.56439 150.09 
L 135.712472 150.09 
L 135.712472 148.265046 
L 110.791804 145.75875 
z
" clip-path="url(#p9cf6e11adb)" style="fill: #0a660d"/>
   </g>
   <g id="patch_23">
    <path d="M 145.90954 144.787191 
L 144.603738 144.787191 
Q 128.586828 144.787191 119.68237 144.059093 
Q 110.791804 143.329851 110.791804 142.030248 
Q 110.791804 140.73293 119.668479 139.997974 
Q 128.545153 139.261875 144.131427 139.261875 
Q 159.884399 139.261875 168.677724 139.991116 
Q 177.47105 140.719214 177.47105 142.030248 
Q 177.47105 142.929798 172.803502 143.580171 
Q 168.135955 144.230544 159.370413 144.558588 
L 172.428432 145.75875 
L 156.49487 145.75875 
L 145.90954 144.787191 
z
M 144.131427 140.258581 
Q 136.491097 140.258581 132.281969 140.722643 
Q 128.072842 141.186706 128.072842 142.030248 
Q 128.072842 142.887506 132.184729 143.343568 
Q 136.310507 143.798486 144.131427 143.798486 
Q 151.813432 143.798486 156.022559 143.334423 
Q 160.231686 142.869218 160.231686 142.030248 
Q 160.231686 141.186706 156.022559 140.722643 
Q 151.813432 140.258581 144.131427 140.258581 
z
" clip-path="url(#p9cf6e11adb)" style="fill: #6669c9"/>
   </g>
   <g id="patch_24">
    <path d="M 156.980576 138.078347 
L 131.33681 138.078347 
L 127.287794 139.261875 
L 110.791804 139.261875 
L 134.349714 132.765 
L 153.91314 132.765 
L 177.47105 139.261875 
L 160.988693 139.261875 
L 156.980576 138.078347 
z
M 135.426725 136.87254 
L 152.849762 136.87254 
L 144.151876 134.288271 
L 135.426725 136.87254 
z
" clip-path="url(#p9cf6e11adb)" style="fill: #fc996b"/>
   </g>
   <g id="patch_25">
    <path d="M 110.791804 124.1025 
L 176.083156 124.1025 
L 176.083156 125.791929 
L 134.989431 125.791929 
L 134.989431 127.403384 
L 173.649313 127.403384 
L 173.649313 129.092813 
L 134.989431 129.092813 
L 134.989431 131.077428 
L 177.47105 131.077428 
L 177.47105 132.765 
L 110.791804 132.765 
L 110.791804 124.1025 
z
" clip-path="url(#p9cf6e11adb)" style="fill: #c90a38"/>
   </g>
   <g id="patch_26">
    <path d="M 171.911428 105.541917 
L 171.911428 109.51976 
Q 164.957373 108.827261 158.329289 108.476986 
Q 151.719315 108.122684 145.833722 108.122684 
Q 138.028519 108.122684 134.279849 108.601796 
Q 130.549288 109.076883 130.549288 110.083422 
Q 130.549288 110.84034 133.066511 111.263086 
Q 135.583734 111.681806 142.211818 111.983768 
L 151.483891 112.398462 
Q 165.573096 113.030569 171.513018 114.314913 
Q 177.47105 115.595231 177.47105 117.962611 
Q 177.47105 121.066778 169.17689 122.584639 
Q 160.882731 124.1025 143.841675 124.1025 
Q 135.819158 124.1025 127.724204 123.760277 
Q 119.629249 123.42208 111.534294 122.753737 
L 111.534294 118.667188 
Q 119.629249 119.621387 127.180918 120.108552 
Q 134.732587 120.591691 141.75908 120.591691 
Q 148.89423 120.591691 152.679119 120.064265 
Q 156.464009 119.532812 156.464009 118.55043 
Q 156.464009 117.672728 153.892457 117.193615 
Q 151.320906 116.714502 143.62436 116.336044 
L 135.185325 115.921349 
Q 122.508662 115.317426 116.641179 113.996846 
Q 110.791804 112.676267 110.791804 110.437724 
Q 110.791804 107.631493 118.941087 106.121684 
Q 127.09037 104.611875 142.374804 104.611875 
Q 149.346968 104.611875 156.699432 104.845392 
Q 164.051897 105.078909 171.911428 105.541917 
z
" clip-path="url(#p9cf6e11adb)" style="fill: #0a24fa"/>
   </g>
   <g id="patch_27">
    <path d="M 110.791804 24.48375 
L 132.210179 24.48375 
L 159.274202 79.4366 
L 159.274202 24.48375 
L 177.47105 24.48375 
L 177.47105 104.611875 
L 156.036726 104.611875 
L 128.972703 49.659025 
L 128.972703 104.611875 
L 110.791804 104.611875 
L 110.791804 24.48375 
z
" clip-path="url(#p9cf6e11adb)" style="fill: #366666"/>
   </g>
   <g id="patch_28">
    <path d="M 227.169255 160.523616 
L 201.525489 160.523616 
L 197.476473 160.918125 
L 180.980483 160.918125 
L 204.538393 158.7525 
L 224.101819 158.7525 
L 247.659729 160.918125 
L 231.177372 160.918125 
L 227.169255 160.523616 
z
M 205.615404 160.12168 
L 223.038441 160.12168 
L 214.340556 159.260257 
L 205.615404 160.12168 
z
" clip-path="url(#p9cf6e11adb)" style="fill: #fc996b"/>
   </g>
   <g id="patch_29">
    <path d="M 242.100107 156.690213 
L 242.100107 157.132196 
Q 235.146052 157.055251 228.517968 157.016332 
Q 221.907994 156.976965 216.022401 156.976965 
Q 208.217199 156.976965 204.468528 157.0302 
Q 200.737968 157.082987 200.737968 157.194825 
Q 200.737968 157.278927 203.255191 157.325898 
Q 205.772414 157.372423 212.400497 157.405974 
L 221.67257 157.452051 
Q 235.761775 157.522285 241.701697 157.66499 
Q 247.659729 157.807248 247.659729 158.07029 
Q 247.659729 158.415198 239.36557 158.583849 
Q 231.07141 158.7525 214.030354 158.7525 
Q 206.007837 158.7525 197.912883 158.714475 
Q 189.817928 158.676898 181.722974 158.602637 
L 181.722974 158.148576 
Q 189.817928 158.254599 197.369597 158.308728 
Q 204.921266 158.36241 211.947759 158.36241 
Q 219.082909 158.36241 222.867799 158.303807 
Q 226.652688 158.244757 226.652688 158.135603 
Q 226.652688 158.038081 224.081136 157.984846 
Q 221.509585 157.931611 213.81304 157.88956 
L 205.374004 157.843483 
Q 192.697342 157.776381 186.829858 157.62965 
Q 180.980483 157.482919 180.980483 157.234192 
Q 180.980483 156.922388 189.129767 156.754632 
Q 197.27905 156.586875 212.563483 156.586875 
Q 219.535647 156.586875 226.888112 156.612821 
Q 234.240576 156.638768 242.100107 156.690213 
z
" clip-path="url(#p9cf6e11adb)" style="fill: #0a24fa"/>
   </g>
   <g id="patch_30">
    <path d="M 180.980483 154.42125 
L 202.398859 154.42125 
L 229.462881 155.906462 
L 229.462881 154.42125 
L 247.659729 154.42125 
L 247.659729 156.586875 
L 226.225405 156.586875 
L 199.161383 155.101663 
L 199.161383 156.586875 
L 180.980483 156.586875 
L 180.980483 154.42125 
z
" clip-path="url(#p9cf6e11adb)" style="fill: #366666"/>
   </g>
   <g id="patch_31">
    <path d="M 180.980483 152.255625 
L 199.415334 152.255625 
L 214.306098 153.027471 
L 229.182854 152.255625 
L 247.659729 152.255625 
L 222.75307 153.508773 
L 222.75307 154.42125 
L 205.901151 154.42125 
L 205.901151 153.508773 
L 180.980483 152.255625 
z
" clip-path="url(#p9cf6e11adb)" style="fill: #0a660d"/>
   </g>
   <g id="patch_32">
    <path d="M 181.67443 150.09 
L 246.965782 150.09 
L 246.965782 150.512357 
L 205.872057 150.512357 
L 205.872057 150.915221 
L 244.531939 150.915221 
L 244.531939 151.337578 
L 205.872057 151.337578 
L 205.872057 152.255625 
L 181.67443 152.255625 
L 181.67443 150.09 
z
" clip-path="url(#p9cf6e11adb)" style="fill: #29fc2e"/>
   </g>
   <g id="patch_33">
    <path d="M 199.252723 148.346732 
L 199.252723 149.668107 
L 205.799137 149.668107 
Q 216.993352 149.668107 222.901831 149.498236 
Q 228.8255 149.328365 228.8255 149.004867 
Q 228.8255 148.683226 222.932209 148.515211 
Q 217.054107 148.346732 205.799137 148.346732 
L 199.252723 148.346732 
z
M 180.980483 147.924375 
L 200.240001 147.924375 
Q 216.385796 147.924375 224.284021 147.994923 
Q 232.182246 148.065006 237.832514 148.233485 
Q 242.814472 148.380149 245.229506 148.571835 
Q 247.659729 148.763056 247.659729 149.004867 
Q 247.659729 149.250391 245.229506 149.44254 
Q 242.814472 149.63469 237.832514 149.78089 
Q 232.136679 149.949369 224.16251 150.019917 
Q 216.18834 150.09 200.240001 150.09 
L 180.980483 150.09 
L 180.980483 147.924375 
z
" clip-path="url(#p9cf6e11adb)" style="fill: #fc0d1c"/>
   </g>
   <g id="patch_34">
    <path d="M 202.221293 145.75875 
L 226.418919 145.75875 
L 226.418919 147.924375 
L 202.221293 147.924375 
L 202.221293 145.75875 
z
" clip-path="url(#p9cf6e11adb)" style="fill: #cc993d"/>
   </g>
   <g id="patch_35">
    <path d="M 180.980483 141.4275 
L 247.659729 141.4275 
L 247.659729 142.272214 
L 223.670707 142.272214 
L 223.670707 145.75875 
L 205.016025 145.75875 
L 205.016025 142.272214 
L 180.980483 142.272214 
L 180.980483 141.4275 
z
" clip-path="url(#p9cf6e11adb)" style="fill: #2bffff"/>
   </g>
   <g id="patch_36">
    <path d="M 208.035286 136.60613 
Q 214.019321 136.60613 216.615569 136.346218 
Q 219.211817 136.084449 219.211817 135.486651 
Q 219.211817 134.894423 216.615569 134.64008 
Q 214.019321 134.383881 208.035286 134.383881 
L 200.024912 134.383881 
L 200.024912 136.60613 
L 208.035286 136.60613 
z
M 200.024912 138.148894 
L 200.024912 141.4275 
L 180.980483 141.4275 
L 180.980483 132.765 
L 210.061626 132.765 
Q 224.657605 132.765 231.44901 133.34052 
Q 238.256245 133.914183 238.256245 135.156192 
Q 238.256245 136.013902 234.710151 136.565287 
Q 231.179887 137.116672 224.056036 137.37844 
Q 227.966238 137.482405 231.053241 137.851852 
Q 234.156073 138.219442 237.322229 138.967617 
L 247.659729 141.4275 
L 227.3805 141.4275 
L 218.372786 139.275799 
Q 215.649892 138.626019 212.847844 138.388385 
Q 210.061626 138.148894 205.407377 138.148894 
L 200.024912 138.148894 
z
" clip-path="url(#p9cf6e11adb)" style="fill: #96050a"/>
   </g>
   <g id="patch_37">
    <path d="M 180.980483 124.1025 
L 197.476473 124.1025 
L 214.340556 130.496338 
L 231.177372 124.1025 
L 247.659729 124.1025 
L 224.101819 132.765 
L 204.538393 132.765 
L 180.980483 124.1025 
z
" clip-path="url(#p9cf6e11adb)" style="fill: #ffcc45"/>
   </g>
   <g id="patch_38">
    <path d="M 180.980483 111.10875 
L 246.271835 111.10875 
L 246.271835 113.642893 
L 205.17811 113.642893 
L 205.17811 116.060076 
L 243.837992 116.060076 
L 243.837992 118.594219 
L 205.17811 118.594219 
L 205.17811 121.571142 
L 247.659729 121.571142 
L 247.659729 124.1025 
L 180.980483 124.1025 
L 180.980483 111.10875 
z
" clip-path="url(#p9cf6e11adb)" style="fill: #c90a38"/>
   </g>
   <g id="patch_39">
    <path d="M 216.098219 108.841778 
L 214.792417 108.841778 
Q 198.775507 108.841778 189.87105 107.142883 
Q 180.980483 105.44132 180.980483 102.408912 
Q 180.980483 99.381837 189.857158 97.66694 
Q 198.733833 95.949375 214.320106 95.949375 
Q 230.073078 95.949375 238.866403 97.650937 
Q 247.659729 99.349833 247.659729 102.408912 
Q 247.659729 104.507861 242.992182 106.025399 
Q 238.324634 107.542936 229.559092 108.308373 
L 242.617111 111.10875 
L 226.68355 111.10875 
L 216.098219 108.841778 
z
M 214.320106 98.275022 
Q 206.679776 98.275022 202.470649 99.357834 
Q 198.261521 100.440647 198.261521 102.408912 
Q 198.261521 104.409181 202.373408 105.473324 
Q 206.499186 106.534801 214.320106 106.534801 
Q 222.002111 106.534801 226.211238 105.451988 
Q 230.420366 104.366509 230.420366 102.408912 
Q 230.420366 100.440647 226.211238 99.357834 
Q 222.002111 98.275022 214.320106 98.275022 
z
" clip-path="url(#p9cf6e11adb)" style="fill: #6669c9"/>
   </g>
   <g id="patch_40">
    <path d="M 180.980483 69.961875 
L 205.17811 69.961875 
L 205.17811 90.886658 
L 247.659729 90.886658 
L 247.659729 95.949375 
L 180.980483 95.949375 
L 180.980483 69.961875 
z
" clip-path="url(#p9cf6e11adb)" style="fill: #fc9940"/>
   </g>
   <g id="patch_41">
    <path d="M 180.980483 24.48375 
L 200.650218 24.48375 
L 214.294411 48.821272 
L 228.028537 24.48375 
L 247.659729 24.48375 
L 247.659729 69.961875 
L 233.051963 69.961875 
L 233.051963 36.696371 
L 219.240752 61.219081 
L 209.438003 61.219081 
L 195.626792 36.696371 
L 195.626792 69.961875 
L 180.980483 69.961875 
L 180.980483 24.48375 
z
" clip-path="url(#p9cf6e11adb)" style="fill: #cc99cc"/>
   </g>
   <g id="patch_42">
    <path d="M 251.169163 158.7525 
L 267.665153 158.7525 
L 284.529235 160.35096 
L 301.366051 158.7525 
L 317.848408 158.7525 
L 294.290498 160.918125 
L 274.727072 160.918125 
L 251.169163 158.7525 
z
" clip-path="url(#p9cf6e11adb)" style="fill: #ffcc45"/>
   </g>
   <g id="patch_43">
    <path d="M 251.169163 156.586875 
L 262.699032 156.586875 
L 270.758941 158.160736 
L 278.75885 156.586875 
L 290.348719 156.586875 
L 298.348629 158.160736 
L 306.418537 156.586875 
L 317.848408 156.586875 
L 306.848533 158.7525 
L 292.97869 158.7525 
L 284.508785 157.106235 
L 276.13888 158.7525 
L 262.259037 158.7525 
L 251.169163 156.586875 
z
" clip-path="url(#p9cf6e11adb)" style="fill: #6bc96b"/>
   </g>
   <g id="patch_44">
    <path d="M 272.409972 154.42125 
L 296.607599 154.42125 
L 296.607599 156.586875 
L 272.409972 156.586875 
L 272.409972 154.42125 
z
" clip-path="url(#p9cf6e11adb)" style="fill: #cc993d"/>
   </g>
   <g id="patch_45">
    <path d="M 251.169163 152.255625 
L 269.604013 152.255625 
L 284.494777 153.027471 
L 299.371533 152.255625 
L 317.848408 152.255625 
L 292.941749 153.508773 
L 292.941749 154.42125 
L 276.08983 154.42125 
L 276.08983 153.508773 
L 251.169163 152.255625 
z
" clip-path="url(#p9cf6e11adb)" style="fill: #0a660d"/>
   </g>
   <g id="patch_46">
    <path d="M 251.169163 150.09 
L 270.354796 150.09 
L 270.354796 150.915221 
L 298.662775 150.915221 
L 298.662775 150.09 
L 317.848408 150.09 
L 317.848408 152.255625 
L 298.662775 152.255625 
L 298.662775 151.337578 
L 270.354796 151.337578 
L 270.354796 152.255625 
L 251.169163 152.255625 
L 251.169163 150.09 
z
" clip-path="url(#p9cf6e11adb)" style="fill: #660533"/>
   </g>
   <g id="patch_47">
    <path d="M 251.169163 145.75875 
L 285.828479 145.75875 
Q 301.300147 145.75875 309.565596 146.12634 
Q 317.848408 146.493002 317.848408 147.171558 
Q 317.848408 147.853827 309.565596 148.220489 
Q 301.300147 148.587151 285.828479 148.587151 
L 272.05852 148.587151 
L 272.05852 150.09 
L 251.169163 150.09 
L 251.169163 145.75875 
z
M 272.05852 146.568191 
L 272.05852 147.77771 
L 283.605837 147.77771 
Q 289.683373 147.77771 292.999971 147.619907 
Q 296.316568 147.462103 296.316568 147.171558 
Q 296.316568 146.881942 292.999971 146.725066 
Q 289.683373 146.568191 283.605837 146.568191 
L 272.05852 146.568191 
z
" clip-path="url(#p9cf6e11adb)" style="fill: #1a9cfc"/>
   </g>
   <g id="patch_48">
    <path d="M 251.169163 141.4275 
L 317.848408 141.4275 
L 317.848408 142.272214 
L 293.859387 142.272214 
L 293.859387 145.75875 
L 275.204705 145.75875 
L 275.204705 142.272214 
L 251.169163 142.272214 
L 251.169163 141.4275 
z
" clip-path="url(#p9cf6e11adb)" style="fill: #2bffff"/>
   </g>
   <g id="patch_49">
    <path d="M 251.169163 134.930625 
L 268.740933 134.930625 
L 268.740933 137.301859 
L 294.068822 134.930625 
L 314.474278 134.930625 
L 281.65319 138.007799 
L 317.848408 141.4275 
L 295.85083 141.4275 
L 268.740933 138.868294 
L 268.740933 141.4275 
L 251.169163 141.4275 
L 251.169163 134.930625 
z
" clip-path="url(#p9cf6e11adb)" style="fill: #663308"/>
   </g>
   <g id="patch_50">
    <path d="M 317.848408 134.342806 
Q 311.123697 134.636716 303.890897 134.784341 
Q 296.658097 134.930625 288.947095 134.930625 
Q 271.522621 134.930625 261.345892 134.055607 
Q 251.169163 133.180589 251.169163 131.684201 
Q 251.169163 130.170366 261.525218 129.302058 
Q 271.896216 128.43375 289.933386 128.43375 
Q 296.882254 128.43375 303.248313 128.551851 
Q 309.629317 128.668609 315.278074 128.899442 
L 315.278074 130.194523 
Q 309.449991 129.897929 303.681684 129.751645 
Q 297.913376 129.60402 292.115181 129.60402 
Q 281.385531 129.60402 275.572392 130.143525 
Q 269.759253 130.681688 269.759253 131.684201 
Q 269.759253 132.677319 275.363178 133.219508 
Q 280.967104 133.760355 291.278328 133.760355 
Q 294.087763 133.760355 296.493715 133.729488 
Q 298.899667 133.697279 300.812474 133.630176 
L 300.812474 132.414277 
L 289.828779 132.414277 
L 289.828779 131.331241 
L 317.848408 131.331241 
L 317.848408 134.342806 
z
" clip-path="url(#p9cf6e11adb)" style="fill: #f2f038"/>
   </g>
   <g id="patch_51">
    <path d="M 251.169163 119.77125 
L 270.838898 119.77125 
L 284.48309 124.406968 
L 298.217216 119.77125 
L 317.848408 119.77125 
L 317.848408 128.43375 
L 303.240643 128.43375 
L 303.240643 122.097464 
L 289.429431 126.768456 
L 279.626683 126.768456 
L 265.815471 122.097464 
L 265.815471 128.43375 
L 251.169163 128.43375 
L 251.169163 119.77125 
z
" clip-path="url(#p9cf6e11adb)" style="fill: #cc99cc"/>
   </g>
   <g id="patch_52">
    <path d="M 269.441402 112.798179 
L 269.441402 118.083678 
L 275.987816 118.083678 
Q 287.182031 118.083678 293.090511 117.404193 
Q 299.014179 116.724709 299.014179 115.430717 
Q 299.014179 114.144152 293.120888 113.472094 
Q 287.242786 112.798179 275.987816 112.798179 
L 269.441402 112.798179 
z
M 251.169163 111.10875 
L 270.428681 111.10875 
Q 286.574475 111.10875 294.4727 111.39094 
Q 302.370925 111.671274 308.021194 112.345189 
Q 313.003151 112.931848 315.418185 113.698589 
Q 317.848408 114.463473 317.848408 115.430717 
Q 317.848408 116.412814 315.418185 117.181411 
Q 313.003151 117.950009 308.021194 118.534811 
Q 302.325358 119.208726 294.351189 119.490916 
Q 286.377019 119.77125 270.428681 119.77125 
L 251.169163 119.77125 
L 251.169163 111.10875 
z
" clip-path="url(#p9cf6e11adb)" style="fill: #fc0d1c"/>
   </g>
   <g id="patch_53">
    <path d="M 251.169163 100.280625 
L 316.460514 100.280625 
L 316.460514 102.392411 
L 275.366789 102.392411 
L 275.366789 104.40673 
L 314.026671 104.40673 
L 314.026671 106.518516 
L 275.366789 106.518516 
L 275.366789 108.999285 
L 317.848408 108.999285 
L 317.848408 111.10875 
L 251.169163 111.10875 
L 251.169163 100.280625 
z
" clip-path="url(#p9cf6e11adb)" style="fill: #c90a38"/>
   </g>
   <g id="patch_54">
    <path d="M 297.357935 97.519059 
L 271.714168 97.519059 
L 267.665153 100.280625 
L 251.169163 100.280625 
L 274.727072 85.12125 
L 294.290498 85.12125 
L 317.848408 100.280625 
L 301.366051 100.280625 
L 297.357935 97.519059 
z
M 275.804083 94.70551 
L 293.227121 94.70551 
L 284.529235 88.675548 
L 275.804083 94.70551 
z
" clip-path="url(#p9cf6e11adb)" style="fill: #fc996b"/>
   </g>
   <g id="patch_55">
    <path d="M 312.288786 68.622954 
L 312.288786 72.158815 
Q 305.334731 71.54326 298.706647 71.231904 
Q 292.096673 70.916969 286.21108 70.916969 
Q 278.405878 70.916969 274.657208 71.342847 
Q 270.926647 71.765146 270.926647 72.659847 
Q 270.926647 73.332663 273.44387 73.708438 
Q 275.961093 74.080633 282.589176 74.349044 
L 291.86125 74.717661 
Q 305.950455 75.279533 311.890377 76.421173 
Q 317.848408 77.559233 317.848408 79.663571 
Q 317.848408 82.42283 309.554249 83.77204 
Q 301.26009 85.12125 284.219033 85.12125 
Q 276.196517 85.12125 268.101562 84.817051 
Q 260.006608 84.516432 251.911653 83.92235 
L 251.911653 80.289862 
Q 260.006608 81.138039 267.558277 81.571074 
Q 275.109946 82.000531 282.136439 82.000531 
Q 289.271589 82.000531 293.056478 81.531708 
Q 296.841367 81.059305 296.841367 80.186076 
Q 296.841367 79.405897 294.269816 78.980019 
Q 291.698264 78.554141 284.001719 78.217733 
L 275.562683 77.849116 
Q 262.886021 77.312295 257.018537 76.138447 
Q 251.169163 74.964598 251.169163 72.974782 
Q 251.169163 70.480355 259.318446 69.138302 
Q 267.467729 67.79625 282.752162 67.79625 
Q 289.724327 67.79625 297.076791 68.003821 
Q 304.429255 68.211391 312.288786 68.622954 
z
" clip-path="url(#p9cf6e11adb)" style="fill: #0a24fa"/>
   </g>
   <g id="patch_56">
    <path d="M 286.286899 64.557719 
L 284.981097 64.557719 
Q 268.964186 64.557719 260.059729 62.130725 
Q 251.169163 59.699921 251.169163 55.367909 
Q 251.169163 51.043518 260.045837 48.593664 
Q 268.922512 46.14 284.508785 46.14 
Q 300.261757 46.14 309.055083 48.570804 
Q 317.848408 50.997797 317.848408 55.367909 
Q 317.848408 58.366409 313.180861 60.53432 
Q 308.513314 62.702231 299.747771 63.795711 
L 312.80579 67.79625 
L 296.872229 67.79625 
L 286.286899 64.557719 
z
M 284.508785 49.462352 
Q 276.868455 49.462352 272.659328 51.009227 
Q 268.4502 52.556102 268.4502 55.367909 
Q 268.4502 58.225437 272.562087 59.745642 
Q 276.687866 61.262037 284.508785 61.262037 
Q 292.19079 61.262037 296.399917 59.715162 
Q 300.609045 58.164477 300.609045 55.367909 
Q 300.609045 52.556102 296.399917 51.009227 
Q 292.19079 49.462352 284.508785 49.462352 
z
" clip-path="url(#p9cf6e11adb)" style="fill: #6669c9"/>
   </g>
   <g id="patch_57">
    <path d="M 251.169163 22.318125 
L 272.587538 22.318125 
L 299.651561 38.655459 
L 299.651561 22.318125 
L 317.848408 22.318125 
L 317.848408 46.14 
L 296.414085 46.14 
L 269.350062 29.802666 
L 269.350062 46.14 
L 251.169163 46.14 
L 251.169163 22.318125 
z
" clip-path="url(#p9cf6e11adb)" style="fill: #366666"/>
   </g>
   <g id="patch_58">
    <path d="M 339.630082 159.174857 
L 339.630082 160.496232 
L 346.176495 160.496232 
Q 357.37071 160.496232 363.27919 160.326361 
Q 369.202859 160.15649 369.202859 159.832992 
Q 369.202859 159.511351 363.309568 159.343336 
Q 357.431466 159.174857 346.176495 159.174857 
L 339.630082 159.174857 
z
M 321.357842 158.7525 
L 340.61736 158.7525 
Q 356.763154 158.7525 364.661379 158.823048 
Q 372.559604 158.893131 378.209873 159.06161 
Q 383.19183 159.208274 385.606864 159.39996 
Q 388.037087 159.591181 388.037087 159.832992 
Q 388.037087 160.078516 385.606864 160.270665 
Q 383.19183 160.462815 378.209873 160.609015 
Q 372.514037 160.777494 364.539868 160.848042 
Q 356.565699 160.918125 340.61736 160.918125 
L 321.357842 160.918125 
L 321.357842 158.7525 
z
" clip-path="url(#p9cf6e11adb)" style="fill: #fc0d1c"/>
   </g>
   <g id="patch_59">
    <path d="M 321.357842 156.586875 
L 386.649193 156.586875 
L 386.649193 157.009232 
L 345.555469 157.009232 
L 345.555469 157.412096 
L 384.215351 157.412096 
L 384.215351 157.834453 
L 345.555469 157.834453 
L 345.555469 158.330607 
L 388.037087 158.330607 
L 388.037087 158.7525 
L 321.357842 158.7525 
L 321.357842 156.586875 
z
" clip-path="url(#p9cf6e11adb)" style="fill: #c90a38"/>
   </g>
   <g id="patch_60">
    <path d="M 321.357842 154.42125 
L 337.853832 154.42125 
L 354.717914 156.01971 
L 371.55473 154.42125 
L 388.037087 154.42125 
L 364.479178 156.586875 
L 344.915752 156.586875 
L 321.357842 154.42125 
z
" clip-path="url(#p9cf6e11adb)" style="fill: #ffcc45"/>
   </g>
   <g id="patch_61">
    <path d="M 321.357842 152.255625 
L 340.543475 152.255625 
L 340.543475 153.080846 
L 368.851454 153.080846 
L 368.851454 152.255625 
L 388.037087 152.255625 
L 388.037087 154.42125 
L 368.851454 154.42125 
L 368.851454 153.503203 
L 340.543475 153.503203 
L 340.543475 154.42125 
L 321.357842 154.42125 
L 321.357842 152.255625 
z
" clip-path="url(#p9cf6e11adb)" style="fill: #660533"/>
   </g>
   <g id="patch_62">
    <path d="M 342.598651 150.09 
L 366.796278 150.09 
L 366.796278 152.255625 
L 342.598651 152.255625 
L 342.598651 150.09 
z
" clip-path="url(#p9cf6e11adb)" style="fill: #cc993d"/>
   </g>
   <g id="patch_63">
    <path d="M 356.475578 149.766147 
L 355.169776 149.766147 
Q 339.152866 149.766147 330.248408 149.523448 
Q 321.357842 149.280367 321.357842 148.847166 
Q 321.357842 148.414727 330.234517 148.169741 
Q 339.111191 147.924375 354.697465 147.924375 
Q 370.450436 147.924375 379.243762 148.167455 
Q 388.037087 148.410155 388.037087 148.847166 
Q 388.037087 149.147016 383.36954 149.363807 
Q 378.701993 149.580598 369.93645 149.689946 
L 382.994469 150.09 
L 367.060908 150.09 
L 356.475578 149.766147 
z
M 354.697465 148.25661 
Q 347.057134 148.25661 342.848007 148.411298 
Q 338.63888 148.565985 338.63888 148.847166 
Q 338.63888 149.132919 342.750767 149.284939 
Q 346.876545 149.436579 354.697465 149.436579 
Q 362.379469 149.436579 366.588597 149.281891 
Q 370.797724 149.126823 370.797724 148.847166 
Q 370.797724 148.565985 366.588597 148.411298 
Q 362.379469 148.25661 354.697465 148.25661 
z
" clip-path="url(#p9cf6e11adb)" style="fill: #6669c9"/>
   </g>
   <g id="patch_64">
    <path d="M 388.037087 147.613914 
Q 382.459483 147.767802 376.428279 147.845641 
Q 370.397075 147.924375 363.828271 147.924375 
Q 344.239458 147.924375 332.79865 147.34103 
Q 321.357842 146.757684 321.357842 145.760092 
Q 321.357842 144.758921 332.79865 144.17647 
Q 344.239458 143.593125 363.828271 143.593125 
Q 370.397075 143.593125 376.428279 143.671859 
Q 382.459483 143.749698 388.037087 143.903586 
L 388.037087 144.766973 
Q 382.409083 144.562981 376.94908 144.468143 
Q 371.489076 144.373305 365.457872 144.373305 
Q 354.638665 144.373305 348.43946 144.742816 
Q 342.257056 145.111433 342.257056 145.760092 
Q 342.257056 146.406067 348.43946 146.775578 
Q 354.638665 147.144195 365.457872 147.144195 
Q 371.489076 147.144195 376.94908 147.049357 
Q 382.409083 146.953624 388.037087 146.749632 
L 388.037087 147.613914 
z
" clip-path="url(#p9cf6e11adb)" style="fill: #179999"/>
   </g>
   <g id="patch_65">
    <path d="M 321.357842 139.261875 
L 356.017158 139.261875 
Q 371.488827 139.261875 379.754275 139.629465 
Q 388.037087 139.996127 388.037087 140.674683 
Q 388.037087 141.356952 379.754275 141.723614 
Q 371.488827 142.090276 356.017158 142.090276 
L 342.247199 142.090276 
L 342.247199 143.593125 
L 321.357842 143.593125 
L 321.357842 139.261875 
z
M 342.247199 140.071316 
L 342.247199 141.280835 
L 353.794517 141.280835 
Q 359.872052 141.280835 363.18865 141.123032 
Q 366.505248 140.965228 366.505248 140.674683 
Q 366.505248 140.385067 363.18865 140.228191 
Q 359.872052 140.071316 353.794517 140.071316 
L 342.247199 140.071316 
z
" clip-path="url(#p9cf6e11adb)" style="fill: #1a9cfc"/>
   </g>
   <g id="patch_66">
    <path d="M 321.357842 132.765 
L 345.555469 132.765 
L 345.555469 137.996196 
L 388.037087 137.996196 
L 388.037087 139.261875 
L 321.357842 139.261875 
L 321.357842 132.765 
z
" clip-path="url(#p9cf6e11adb)" style="fill: #fc9940"/>
   </g>
   <g id="patch_67">
    <path d="M 321.357842 126.268125 
L 339.792692 126.268125 
L 354.683456 128.583664 
L 369.560212 126.268125 
L 388.037087 126.268125 
L 363.130428 130.027568 
L 363.130428 132.765 
L 346.278509 132.765 
L 346.278509 130.027568 
L 321.357842 126.268125 
z
" clip-path="url(#p9cf6e11adb)" style="fill: #0a660d"/>
   </g>
   <g id="patch_68">
    <path d="M 321.357842 111.10875 
L 388.037087 111.10875 
L 388.037087 114.06525 
L 364.048066 114.06525 
L 364.048066 126.268125 
L 345.393384 126.268125 
L 345.393384 114.06525 
L 321.357842 114.06525 
L 321.357842 111.10875 
z
" clip-path="url(#p9cf6e11adb)" style="fill: #2bffff"/>
   </g>
   <g id="patch_69">
    <path d="M 367.546614 108.347184 
L 341.902848 108.347184 
L 337.853832 111.10875 
L 321.357842 111.10875 
L 344.915752 95.949375 
L 364.479178 95.949375 
L 388.037087 111.10875 
L 371.55473 111.10875 
L 367.546614 108.347184 
z
M 345.992762 105.533635 
L 363.4158 105.533635 
L 354.717914 99.503673 
L 345.992762 105.533635 
z
" clip-path="url(#p9cf6e11adb)" style="fill: #fc996b"/>
   </g>
   <g id="patch_70">
    <path d="M 322.051789 76.45875 
L 387.34314 76.45875 
L 387.34314 80.259965 
L 346.249415 80.259965 
L 346.249415 83.885739 
L 384.909298 83.885739 
L 384.909298 87.686954 
L 346.249415 87.686954 
L 346.249415 95.949375 
L 322.051789 95.949375 
L 322.051789 76.45875 
z
" clip-path="url(#p9cf6e11adb)" style="fill: #29fc2e"/>
   </g>
   <g id="patch_71">
    <path d="M 382.477465 24.901576 
L 382.477465 35.951139 
Q 375.52341 34.027531 368.895327 33.054543 
Q 362.285353 32.070371 356.399759 32.070371 
Q 348.594557 32.070371 344.845887 33.40124 
Q 341.115326 34.720925 341.115326 37.516867 
Q 341.115326 39.619415 343.632549 40.793711 
Q 346.149772 41.956823 352.777856 42.795606 
L 362.049929 43.947534 
Q 376.139134 45.703386 382.079056 49.271008 
Q 388.037087 52.827446 388.037087 59.403503 
Q 388.037087 68.026188 379.742928 72.242469 
Q 371.448769 76.45875 354.407712 76.45875 
Q 346.385196 76.45875 338.290241 75.50813 
Q 330.195287 74.568693 322.100332 72.712187 
L 322.100332 61.360662 
Q 330.195287 64.011215 337.746956 65.364451 
Q 345.298625 66.706504 352.325118 66.706504 
Q 359.460268 66.706504 363.245157 65.24143 
Q 367.030046 63.765172 367.030046 61.036333 
Q 367.030046 58.598271 364.458495 57.267403 
Q 361.886943 55.936534 354.190398 54.88526 
L 345.751363 53.733332 
Q 333.0747 52.055766 327.207216 48.38749 
Q 321.357842 44.719214 321.357842 38.501039 
Q 321.357842 30.705952 329.507125 26.512038 
Q 337.656408 22.318125 352.940841 22.318125 
Q 359.913006 22.318125 367.26547 22.966784 
Q 374.617934 23.615442 382.477465 24.901576 
z
" clip-path="url(#p9cf6e11adb)" style="fill: #0a24fa"/>
   </g>
   <g id="patch_72">
    <path d="M 391.546521 158.7525 
L 426.205837 158.7525 
Q 441.677506 158.7525 449.942954 158.936295 
Q 458.225767 159.119626 458.225767 159.458904 
Q 458.225767 159.800039 449.942954 159.98337 
Q 441.677506 160.1667 426.205837 160.1667 
L 412.435879 160.1667 
L 412.435879 160.918125 
L 391.546521 160.918125 
L 391.546521 158.7525 
z
M 412.435879 159.15722 
L 412.435879 159.76198 
L 423.983196 159.76198 
Q 430.060731 159.76198 433.377329 159.683078 
Q 436.693927 159.604176 436.693927 159.458904 
Q 436.693927 159.314096 433.377329 159.235658 
Q 430.060731 159.15722 423.983196 159.15722 
L 412.435879 159.15722 
z
" clip-path="url(#p9cf6e11adb)" style="fill: #1a9cfc"/>
   </g>
   <g id="patch_73">
    <path d="M 412.787331 156.586875 
L 436.984957 156.586875 
L 436.984957 158.7525 
L 412.787331 158.7525 
L 412.787331 156.586875 
z
" clip-path="url(#p9cf6e11adb)" style="fill: #cc993d"/>
   </g>
   <g id="patch_74">
    <path d="M 391.546521 154.42125 
L 415.744148 154.42125 
L 415.744148 156.164982 
L 458.225767 156.164982 
L 458.225767 156.586875 
L 391.546521 156.586875 
L 391.546521 154.42125 
z
" clip-path="url(#p9cf6e11adb)" style="fill: #fc9940"/>
   </g>
   <g id="patch_75">
    <path d="M 458.225767 154.22531 
Q 451.501056 154.32328 444.268255 154.372489 
Q 437.035455 154.42125 429.324453 154.42125 
Q 411.89998 154.42125 401.723251 154.129577 
Q 391.546521 153.837905 391.546521 153.339109 
Q 391.546521 152.834497 401.902576 152.545061 
Q 412.273575 152.255625 430.310744 152.255625 
Q 437.259612 152.255625 443.625672 152.294992 
Q 450.006675 152.333911 455.655433 152.410856 
L 455.655433 152.842549 
Q 449.82735 152.743685 444.059042 152.694923 
Q 438.290734 152.645715 432.492539 152.645715 
Q 421.762889 152.645715 415.94975 152.82555 
Q 410.136611 153.004938 410.136611 153.339109 
Q 410.136611 153.670148 415.740537 153.850878 
Q 421.344463 154.03116 431.655686 154.03116 
Q 434.465121 154.03116 436.871073 154.020871 
Q 439.277025 154.010135 441.189832 153.987767 
L 441.189832 153.582467 
L 430.206137 153.582467 
L 430.206137 153.221455 
L 458.225767 153.221455 
L 458.225767 154.22531 
z
" clip-path="url(#p9cf6e11adb)" style="fill: #f2f038"/>
   </g>
   <g id="patch_76">
    <path d="M 392.240468 150.09 
L 457.53182 150.09 
L 457.53182 150.512357 
L 416.438095 150.512357 
L 416.438095 150.915221 
L 455.097977 150.915221 
L 455.097977 151.337578 
L 416.438095 151.337578 
L 416.438095 152.255625 
L 392.240468 152.255625 
L 392.240468 150.09 
z
" clip-path="url(#p9cf6e11adb)" style="fill: #29fc2e"/>
   </g>
   <g id="patch_77">
    <path d="M 409.818761 146.603464 
L 409.818761 149.246214 
L 416.365174 149.246214 
Q 427.559389 149.246214 433.467869 148.906472 
Q 439.391538 148.566729 439.391538 147.919734 
Q 439.391538 147.276451 433.498247 146.940422 
Q 427.620145 146.603464 416.365174 146.603464 
L 409.818761 146.603464 
z
M 391.546521 145.75875 
L 410.806039 145.75875 
Q 426.951833 145.75875 434.850058 145.899845 
Q 442.748283 146.040012 448.398552 146.37697 
Q 453.380509 146.670299 455.795543 147.053669 
Q 458.225767 147.436111 458.225767 147.919734 
Q 458.225767 148.410782 455.795543 148.795081 
Q 453.380509 149.179379 448.398552 149.47178 
Q 442.702717 149.808738 434.728547 149.949833 
Q 426.754378 150.09 410.806039 150.09 
L 391.546521 150.09 
L 391.546521 145.75875 
z
" clip-path="url(#p9cf6e11adb)" style="fill: #fc0d1c"/>
   </g>
   <g id="patch_78">
    <path d="M 391.546521 139.261875 
L 456.837873 139.261875 
L 456.837873 140.528947 
L 415.744148 140.528947 
L 415.744148 141.737538 
L 454.40403 141.737538 
L 454.40403 143.00461 
L 415.744148 143.00461 
L 415.744148 144.493071 
L 458.225767 144.493071 
L 458.225767 145.75875 
L 391.546521 145.75875 
L 391.546521 139.261875 
z
" clip-path="url(#p9cf6e11adb)" style="fill: #c90a38"/>
   </g>
   <g id="patch_79">
    <path d="M 418.601324 135.645847 
Q 424.585359 135.645847 427.181607 135.450913 
Q 429.777855 135.254587 429.777855 134.806238 
Q 429.777855 134.362067 427.181607 134.17131 
Q 424.585359 133.979161 418.601324 133.979161 
L 410.59095 133.979161 
L 410.59095 135.645847 
L 418.601324 135.645847 
z
M 410.59095 136.802921 
L 410.59095 139.261875 
L 391.546521 139.261875 
L 391.546521 132.765 
L 420.627664 132.765 
Q 435.223643 132.765 442.015048 133.19664 
Q 448.822283 133.626887 448.822283 134.558394 
Q 448.822283 135.201676 445.276188 135.615215 
Q 441.745925 136.028754 434.622074 136.22508 
Q 438.532276 136.303054 441.619278 136.580139 
Q 444.722111 136.855831 447.888267 137.416963 
L 458.225767 139.261875 
L 437.946537 139.261875 
L 428.938824 137.648099 
Q 426.215929 137.160764 423.413881 136.982538 
Q 420.627664 136.802921 415.973415 136.802921 
L 410.59095 136.802921 
z
" clip-path="url(#p9cf6e11adb)" style="fill: #96050a"/>
   </g>
   <g id="patch_80">
    <path d="M 391.546521 126.268125 
L 410.732154 126.268125 
L 410.732154 128.743788 
L 439.040133 128.743788 
L 439.040133 126.268125 
L 458.225767 126.268125 
L 458.225767 132.765 
L 439.040133 132.765 
L 439.040133 130.01086 
L 410.732154 130.01086 
L 410.732154 132.765 
L 391.546521 132.765 
L 391.546521 126.268125 
z
" clip-path="url(#p9cf6e11adb)" style="fill: #660533"/>
   </g>
   <g id="patch_81">
    <path d="M 458.225767 125.647202 
Q 452.648163 125.954979 446.616959 126.110658 
Q 440.585755 126.268125 434.01695 126.268125 
Q 414.428137 126.268125 402.987329 125.101434 
Q 391.546521 123.934743 391.546521 121.939559 
Q 391.546521 119.937217 402.987329 118.772316 
Q 414.428137 117.605625 434.01695 117.605625 
Q 440.585755 117.605625 446.616959 117.763092 
Q 452.648163 117.918771 458.225767 118.226548 
L 458.225767 119.953322 
Q 452.597763 119.545338 447.137759 119.355661 
Q 441.677755 119.165984 435.646551 119.165984 
Q 424.827344 119.165984 418.62814 119.905008 
Q 412.445735 120.642242 412.445735 121.939559 
Q 412.445735 123.231508 418.62814 123.970532 
Q 424.827344 124.707766 435.646551 124.707766 
Q 441.677755 124.707766 447.137759 124.518089 
Q 452.597763 124.326623 458.225767 123.918639 
L 458.225767 125.647202 
z
" clip-path="url(#p9cf6e11adb)" style="fill: #179999"/>
   </g>
   <g id="patch_82">
    <path d="M 391.546521 108.943125 
L 408.042511 108.943125 
L 424.906593 115.336963 
L 441.74341 108.943125 
L 458.225767 108.943125 
L 434.667857 117.605625 
L 415.104431 117.605625 
L 391.546521 108.943125 
z
" clip-path="url(#p9cf6e11adb)" style="fill: #ffcc45"/>
   </g>
   <g id="patch_83">
    <path d="M 437.735293 106.576068 
L 412.091527 106.576068 
L 408.042511 108.943125 
L 391.546521 108.943125 
L 415.104431 95.949375 
L 434.667857 95.949375 
L 458.225767 108.943125 
L 441.74341 108.943125 
L 437.735293 106.576068 
z
M 416.181442 104.164455 
L 433.604479 104.164455 
L 424.906593 98.995916 
L 416.181442 104.164455 
z
" clip-path="url(#p9cf6e11adb)" style="fill: #fc996b"/>
   </g>
   <g id="patch_84">
    <path d="M 391.546521 76.45875 
L 412.964896 76.45875 
L 440.028919 89.82566 
L 440.028919 76.45875 
L 458.225767 76.45875 
L 458.225767 95.949375 
L 436.791443 95.949375 
L 409.72742 82.582465 
L 409.72742 95.949375 
L 391.546521 95.949375 
L 391.546521 76.45875 
z
" clip-path="url(#p9cf6e11adb)" style="fill: #366666"/>
   </g>
   <g id="patch_85">
    <path d="M 391.546521 50.47125 
L 458.225767 50.47125 
L 458.225767 55.539537 
L 434.236745 55.539537 
L 434.236745 76.45875 
L 415.582063 76.45875 
L 415.582063 55.539537 
L 391.546521 55.539537 
L 391.546521 50.47125 
z
" clip-path="url(#p9cf6e11adb)" style="fill: #2bffff"/>
   </g>
   <g id="patch_86">
    <path d="M 452.666144 23.661519 
L 452.666144 29.407292 
Q 445.71209 28.407016 439.084006 27.901062 
Q 432.474032 27.389293 426.588439 27.389293 
Q 418.783236 27.389293 415.034566 28.081345 
Q 411.304005 28.767581 411.304005 30.221471 
Q 411.304005 31.314796 413.821228 31.92543 
Q 416.338451 32.530248 422.966535 32.966415 
L 432.238608 33.565418 
Q 446.327813 34.478461 452.267735 36.333624 
Q 458.225767 38.182972 458.225767 41.602521 
Q 458.225767 46.086318 449.931607 48.278784 
Q 441.637448 50.47125 424.596392 50.47125 
Q 416.573875 50.47125 408.478921 49.976927 
Q 400.383966 49.48842 392.289011 48.523037 
L 392.289011 42.620244 
Q 400.383966 43.998532 407.935635 44.702215 
Q 415.487304 45.400082 422.513797 45.400082 
Q 429.648947 45.400082 433.433836 44.638244 
Q 437.218726 43.87059 437.218726 42.451593 
Q 437.218726 41.183801 434.647174 40.491749 
Q 432.075623 39.799698 424.379077 39.253035 
L 415.940042 38.654032 
Q 403.263379 37.781699 397.395896 35.874195 
Q 391.546521 33.966691 391.546521 30.73324 
Q 391.546521 26.679795 399.695804 24.49896 
Q 407.845087 22.318125 423.129521 22.318125 
Q 430.101685 22.318125 437.454149 22.655427 
Q 444.806614 22.99273 452.666144 23.661519 
z
" clip-path="url(#p9cf6e11adb)" style="fill: #0a24fa"/>
   </g>
   <g id="patch_87">
    <path d="M 461.7352 156.586875 
L 480.170051 156.586875 
L 495.060815 158.130567 
L 509.937571 156.586875 
L 528.414446 156.586875 
L 503.507786 159.093171 
L 503.507786 160.918125 
L 486.655868 160.918125 
L 486.655868 159.093171 
L 461.7352 156.586875 
z
" clip-path="url(#p9cf6e11adb)" style="fill: #0a660d"/>
   </g>
   <g id="patch_88">
    <path d="M 482.97601 150.09 
L 507.173636 150.09 
L 507.173636 156.586875 
L 482.97601 156.586875 
L 482.97601 150.09 
z
" clip-path="url(#p9cf6e11adb)" style="fill: #cc993d"/>
   </g>
   <g id="patch_89">
    <path d="M 461.7352 141.4275 
L 478.23119 141.4275 
L 495.095273 147.821338 
L 511.932089 141.4275 
L 528.414446 141.4275 
L 504.856536 150.09 
L 485.29311 150.09 
L 461.7352 141.4275 
z
" clip-path="url(#p9cf6e11adb)" style="fill: #ffcc45"/>
   </g>
   <g id="patch_90">
    <path d="M 462.429147 130.599375 
L 527.720499 130.599375 
L 527.720499 132.711161 
L 486.626774 132.711161 
L 486.626774 134.72548 
L 525.286656 134.72548 
L 525.286656 136.837266 
L 486.626774 136.837266 
L 486.626774 141.4275 
L 462.429147 141.4275 
L 462.429147 130.599375 
z
" clip-path="url(#p9cf6e11adb)" style="fill: #29fc2e"/>
   </g>
   <g id="patch_91">
    <path d="M 461.7352 22.318125 
L 485.932827 22.318125 
L 485.932827 109.504721 
L 528.414446 109.504721 
L 528.414446 130.599375 
L 461.7352 130.599375 
L 461.7352 22.318125 
z
" clip-path="url(#p9cf6e11adb)" style="fill: #fc9940"/>
   </g>
   <g id="patch_92">
    <path d="M 531.92388 158.7525 
L 551.109513 158.7525 
L 551.109513 159.577721 
L 579.417492 159.577721 
L 579.417492 158.7525 
L 598.603125 158.7525 
L 598.603125 160.918125 
L 579.417492 160.918125 
L 579.417492 160.000078 
L 551.109513 160.000078 
L 551.109513 160.918125 
L 531.92388 160.918125 
L 531.92388 158.7525 
z
" clip-path="url(#p9cf6e11adb)" style="fill: #660533"/>
   </g>
   <g id="patch_93">
    <path d="M 531.92388 156.586875 
L 543.453749 156.586875 
L 551.513658 158.160736 
L 559.513567 156.586875 
L 571.103436 156.586875 
L 579.103346 158.160736 
L 587.173254 156.586875 
L 598.603125 156.586875 
L 587.60325 158.7525 
L 573.733406 158.7525 
L 565.263502 157.106235 
L 556.893597 158.7525 
L 543.013754 158.7525 
L 531.92388 156.586875 
z
" clip-path="url(#p9cf6e11adb)" style="fill: #6bc96b"/>
   </g>
   <g id="patch_94">
    <path d="M 531.92388 152.255625 
L 598.603125 152.255625 
L 598.603125 153.100339 
L 574.614103 153.100339 
L 574.614103 156.586875 
L 555.959422 156.586875 
L 555.959422 153.100339 
L 531.92388 153.100339 
L 531.92388 152.255625 
z
" clip-path="url(#p9cf6e11adb)" style="fill: #2bffff"/>
   </g>
   <g id="patch_95">
    <path d="M 531.92388 147.924375 
L 550.35873 147.924375 
L 565.249494 149.468067 
L 580.12625 147.924375 
L 598.603125 147.924375 
L 573.696466 150.430671 
L 573.696466 152.255625 
L 556.844547 152.255625 
L 556.844547 150.430671 
L 531.92388 147.924375 
z
" clip-path="url(#p9cf6e11adb)" style="fill: #0a660d"/>
   </g>
   <g id="patch_96">
    <path d="M 531.92388 143.593125 
L 549.49565 143.593125 
L 549.49565 145.173948 
L 574.823539 143.593125 
L 595.228995 143.593125 
L 562.407907 145.644574 
L 598.603125 147.924375 
L 576.605547 147.924375 
L 549.49565 146.218238 
L 549.49565 147.924375 
L 531.92388 147.924375 
L 531.92388 143.593125 
z
" clip-path="url(#p9cf6e11adb)" style="fill: #663308"/>
   </g>
   <g id="patch_97">
    <path d="M 567.041616 142.621566 
L 565.735814 142.621566 
Q 549.718903 142.621566 540.814446 141.893468 
Q 531.92388 141.164226 531.92388 139.864623 
Q 531.92388 138.567305 540.800554 137.832349 
Q 549.677229 137.09625 565.263502 137.09625 
Q 581.016474 137.09625 589.8098 137.825491 
Q 598.603125 138.553589 598.603125 139.864623 
Q 598.603125 140.764173 593.935578 141.414546 
Q 589.268031 142.064919 580.502488 142.392963 
L 593.560507 143.593125 
L 577.626946 143.593125 
L 567.041616 142.621566 
z
M 565.263502 138.092956 
Q 557.623172 138.092956 553.414045 138.557018 
Q 549.204917 139.021081 549.204917 139.864623 
Q 549.204917 140.721881 553.316804 141.177943 
Q 557.442583 141.632861 565.263502 141.632861 
Q 572.945507 141.632861 577.154634 141.168798 
Q 581.363762 140.703593 581.363762 139.864623 
Q 581.363762 139.021081 577.154634 138.557018 
Q 572.945507 138.092956 565.263502 138.092956 
z
" clip-path="url(#p9cf6e11adb)" style="fill: #6669c9"/>
   </g>
   <g id="patch_98">
    <path d="M 578.112652 135.518212 
L 552.468885 135.518212 
L 548.41987 137.09625 
L 531.92388 137.09625 
L 555.481789 128.43375 
L 575.045215 128.43375 
L 598.603125 137.09625 
L 582.120768 137.09625 
L 578.112652 135.518212 
z
M 556.5588 133.91047 
L 573.981838 133.91047 
L 565.283952 130.464778 
L 556.5588 133.91047 
z
" clip-path="url(#p9cf6e11adb)" style="fill: #fc996b"/>
   </g>
   <g id="patch_99">
    <path d="M 531.92388 117.605625 
L 597.215231 117.605625 
L 597.215231 119.717411 
L 556.121506 119.717411 
L 556.121506 121.73173 
L 594.781388 121.73173 
L 594.781388 123.843516 
L 556.121506 123.843516 
L 556.121506 126.324285 
L 598.603125 126.324285 
L 598.603125 128.43375 
L 531.92388 128.43375 
L 531.92388 117.605625 
z
" clip-path="url(#p9cf6e11adb)" style="fill: #c90a38"/>
   </g>
   <g id="patch_100">
    <path d="M 531.92388 104.611875 
L 548.41987 104.611875 
L 565.283952 114.202633 
L 582.120768 104.611875 
L 598.603125 104.611875 
L 575.045215 117.605625 
L 555.481789 117.605625 
L 531.92388 104.611875 
z
" clip-path="url(#p9cf6e11adb)" style="fill: #ffcc45"/>
   </g>
   <g id="patch_101">
    <path d="M 531.92388 91.618125 
L 553.342255 91.618125 
L 580.406278 100.529398 
L 580.406278 91.618125 
L 598.603125 91.618125 
L 598.603125 104.611875 
L 577.168802 104.611875 
L 550.104779 95.700602 
L 550.104779 104.611875 
L 531.92388 104.611875 
L 531.92388 91.618125 
z
" clip-path="url(#p9cf6e11adb)" style="fill: #366666"/>
   </g>
   <g id="patch_102">
    <path d="M 593.043503 77.182116 
L 593.043503 80.275994 
Q 586.089448 79.737384 579.461364 79.464947 
Q 572.85139 79.189379 566.965797 79.189379 
Q 559.160595 79.189379 555.411925 79.562022 
Q 551.681364 79.931534 551.681364 80.714398 
Q 551.681364 81.303111 554.198587 81.631914 
Q 556.71581 81.957585 563.343893 82.192445 
L 572.615967 82.514985 
Q 586.705172 83.006623 592.645094 84.005557 
Q 598.603125 85.00136 598.603125 86.842656 
Q 598.603125 89.257008 590.308966 90.437566 
Q 582.014807 91.618125 564.97375 91.618125 
Q 556.951234 91.618125 548.856279 91.351951 
Q 540.761325 91.088909 532.66637 90.569087 
L 532.66637 87.39066 
Q 540.761325 88.132815 548.312994 88.511721 
Q 555.864663 88.887496 562.891156 88.887496 
Q 570.026306 88.887496 573.811195 88.477275 
Q 577.596084 88.063923 577.596084 87.299848 
Q 577.596084 86.617191 575.024533 86.244548 
Q 572.452981 85.871905 564.756436 85.577548 
L 556.3174 85.255008 
Q 543.640738 84.78529 537.773254 83.758172 
Q 531.92388 82.731055 531.92388 80.989966 
Q 531.92388 78.807341 540.073163 77.633046 
Q 548.222446 76.45875 563.506879 76.45875 
Q 570.479044 76.45875 577.831508 76.640374 
Q 585.183972 76.821999 593.043503 77.182116 
z
" clip-path="url(#p9cf6e11adb)" style="fill: #0a24fa"/>
   </g>
   <g id="patch_103">
    <path d="M 550.196119 32.877055 
L 550.196119 65.911423 
L 556.742533 65.911423 
Q 567.936748 65.911423 573.845228 61.664644 
Q 579.768896 57.417866 579.768896 49.330421 
Q 579.768896 41.28939 573.875605 37.089024 
Q 567.997503 32.877055 556.742533 32.877055 
L 550.196119 32.877055 
z
M 531.92388 22.318125 
L 551.183397 22.318125 
Q 567.329192 22.318125 575.227417 24.081814 
Q 583.125642 25.833901 588.77591 30.04587 
Q 593.757868 33.712487 596.172902 38.504617 
Q 598.603125 43.285144 598.603125 49.330421 
Q 598.603125 55.468525 596.172902 60.272258 
Q 593.757868 65.075991 588.77591 68.731005 
Q 583.080075 72.942974 575.105906 74.706664 
Q 567.131736 76.45875 551.183397 76.45875 
L 531.92388 76.45875 
L 531.92388 22.318125 
z
" clip-path="url(#p9cf6e11adb)" style="fill: #fc0d1c"/>
   </g>
   <g id="matplotlib.axis_1">
    <g id="xtick_1">
     <g id="line2d_2">
      <defs>
       <path id="m636e1d6714" d="M 0 0 
L 0 3.5 
" style="stroke: #000000; stroke-width: 0.8"/>
      </defs>
      <g>
       <use xlink:href="#m636e1d6714" x="73.942748" y="160.918125" style="stroke: #000000; stroke-width: 0.8"/>
      </g>
     </g>
     <g id="text_1">
      <!-- 98 -->
      <g transform="translate(67.580248 175.516563) scale(0.1 -0.1)">
       <defs>
        <path id="DejaVuSans-39" d="M 703 97 
L 703 672 
Q 941 559 1184 500 
Q 1428 441 1663 441 
Q 2288 441 2617 861 
Q 2947 1281 2994 2138 
Q 2813 1869 2534 1725 
Q 2256 1581 1919 1581 
Q 1219 1581 811 2004 
Q 403 2428 403 3163 
Q 403 3881 828 4315 
Q 1253 4750 1959 4750 
Q 2769 4750 3195 4129 
Q 3622 3509 3622 2328 
Q 3622 1225 3098 567 
Q 2575 -91 1691 -91 
Q 1453 -91 1209 -44 
Q 966 3 703 97 
z
M 1959 2075 
Q 2384 2075 2632 2365 
Q 2881 2656 2881 3163 
Q 2881 3666 2632 3958 
Q 2384 4250 1959 4250 
Q 1534 4250 1286 3958 
Q 1038 3666 1038 3163 
Q 1038 2656 1286 2365 
Q 1534 2075 1959 2075 
z
" transform="scale(0.015625)"/>
        <path id="DejaVuSans-38" d="M 2034 2216 
Q 1584 2216 1326 1975 
Q 1069 1734 1069 1313 
Q 1069 891 1326 650 
Q 1584 409 2034 409 
Q 2484 409 2743 651 
Q 3003 894 3003 1313 
Q 3003 1734 2745 1975 
Q 2488 2216 2034 2216 
z
M 1403 2484 
Q 997 2584 770 2862 
Q 544 3141 544 3541 
Q 544 4100 942 4425 
Q 1341 4750 2034 4750 
Q 2731 4750 3128 4425 
Q 3525 4100 3525 3541 
Q 3525 3141 3298 2862 
Q 3072 2584 2669 2484 
Q 3125 2378 3379 2068 
Q 3634 1759 3634 1313 
Q 3634 634 3220 271 
Q 2806 -91 2034 -91 
Q 1263 -91 848 271 
Q 434 634 434 1313 
Q 434 1759 690 2068 
Q 947 2378 1403 2484 
z
M 1172 3481 
Q 1172 3119 1398 2916 
Q 1625 2713 2034 2713 
Q 2441 2713 2670 2916 
Q 2900 3119 2900 3481 
Q 2900 3844 2670 4047 
Q 2441 4250 2034 4250 
Q 1625 4250 1398 4047 
Q 1172 3844 1172 3481 
z
" transform="scale(0.015625)"/>
       </defs>
       <use xlink:href="#DejaVuSans-39"/>
       <use xlink:href="#DejaVuSans-38" transform="translate(63.623047 0)"/>
      </g>
     </g>
    </g>
    <g id="xtick_2">
     <g id="line2d_3">
      <g>
       <use xlink:href="#m636e1d6714" x="144.131427" y="160.918125" style="stroke: #000000; stroke-width: 0.8"/>
      </g>
     </g>
     <g id="text_2">
      <!-- 814 -->
      <g transform="translate(134.587677 175.516563) scale(0.1 -0.1)">
       <defs>
        <path id="DejaVuSans-31" d="M 794 531 
L 1825 531 
L 1825 4091 
L 703 3866 
L 703 4441 
L 1819 4666 
L 2450 4666 
L 2450 531 
L 3481 531 
L 3481 0 
L 794 0 
L 794 531 
z
" transform="scale(0.015625)"/>
        <path id="DejaVuSans-34" d="M 2419 4116 
L 825 1625 
L 2419 1625 
L 2419 4116 
z
M 2253 4666 
L 3047 4666 
L 3047 1625 
L 3713 1625 
L 3713 1100 
L 3047 1100 
L 3047 0 
L 2419 0 
L 2419 1100 
L 313 1100 
L 313 1709 
L 2253 4666 
z
" transform="scale(0.015625)"/>
       </defs>
       <use xlink:href="#DejaVuSans-38"/>
       <use xlink:href="#DejaVuSans-31" transform="translate(63.623047 0)"/>
       <use xlink:href="#DejaVuSans-34" transform="translate(127.246094 0)"/>
      </g>
     </g>
    </g>
    <g id="xtick_3">
     <g id="line2d_4">
      <g>
       <use xlink:href="#m636e1d6714" x="214.320106" y="160.918125" style="stroke: #000000; stroke-width: 0.8"/>
      </g>
     </g>
     <g id="text_3">
      <!-- 818 -->
      <g transform="translate(204.776356 175.516563) scale(0.1 -0.1)">
       <use xlink:href="#DejaVuSans-38"/>
       <use xlink:href="#DejaVuSans-31" transform="translate(63.623047 0)"/>
       <use xlink:href="#DejaVuSans-38" transform="translate(127.246094 0)"/>
      </g>
     </g>
    </g>
    <g id="xtick_4">
     <g id="line2d_5">
      <g>
       <use xlink:href="#m636e1d6714" x="284.508785" y="160.918125" style="stroke: #000000; stroke-width: 0.8"/>
      </g>
     </g>
     <g id="text_4">
      <!-- 924 -->
      <g transform="translate(274.965035 175.516563) scale(0.1 -0.1)">
       <defs>
        <path id="DejaVuSans-32" d="M 1228 531 
L 3431 531 
L 3431 0 
L 469 0 
L 469 531 
Q 828 903 1448 1529 
Q 2069 2156 2228 2338 
Q 2531 2678 2651 2914 
Q 2772 3150 2772 3378 
Q 2772 3750 2511 3984 
Q 2250 4219 1831 4219 
Q 1534 4219 1204 4116 
Q 875 4013 500 3803 
L 500 4441 
Q 881 4594 1212 4672 
Q 1544 4750 1819 4750 
Q 2544 4750 2975 4387 
Q 3406 4025 3406 3419 
Q 3406 3131 3298 2873 
Q 3191 2616 2906 2266 
Q 2828 2175 2409 1742 
Q 1991 1309 1228 531 
z
" transform="scale(0.015625)"/>
       </defs>
       <use xlink:href="#DejaVuSans-39"/>
       <use xlink:href="#DejaVuSans-32" transform="translate(63.623047 0)"/>
       <use xlink:href="#DejaVuSans-34" transform="translate(127.246094 0)"/>
      </g>
     </g>
    </g>
    <g id="xtick_5">
     <g id="line2d_6">
      <g>
       <use xlink:href="#m636e1d6714" x="354.697465" y="160.918125" style="stroke: #000000; stroke-width: 0.8"/>
      </g>
     </g>
     <g id="text_5">
      <!-- 932 -->
      <g transform="translate(345.153715 175.516563) scale(0.1 -0.1)">
       <defs>
        <path id="DejaVuSans-33" d="M 2597 2516 
Q 3050 2419 3304 2112 
Q 3559 1806 3559 1356 
Q 3559 666 3084 287 
Q 2609 -91 1734 -91 
Q 1441 -91 1130 -33 
Q 819 25 488 141 
L 488 750 
Q 750 597 1062 519 
Q 1375 441 1716 441 
Q 2309 441 2620 675 
Q 2931 909 2931 1356 
Q 2931 1769 2642 2001 
Q 2353 2234 1838 2234 
L 1294 2234 
L 1294 2753 
L 1863 2753 
Q 2328 2753 2575 2939 
Q 2822 3125 2822 3475 
Q 2822 3834 2567 4026 
Q 2313 4219 1838 4219 
Q 1578 4219 1281 4162 
Q 984 4106 628 3988 
L 628 4550 
Q 988 4650 1302 4700 
Q 1616 4750 1894 4750 
Q 2613 4750 3031 4423 
Q 3450 4097 3450 3541 
Q 3450 3153 3228 2886 
Q 3006 2619 2597 2516 
z
" transform="scale(0.015625)"/>
       </defs>
       <use xlink:href="#DejaVuSans-39"/>
       <use xlink:href="#DejaVuSans-33" transform="translate(63.623047 0)"/>
       <use xlink:href="#DejaVuSans-32" transform="translate(127.246094 0)"/>
      </g>
     </g>
    </g>
    <g id="xtick_6">
     <g id="line2d_7">
      <g>
       <use xlink:href="#m636e1d6714" x="424.886144" y="160.918125" style="stroke: #000000; stroke-width: 0.8"/>
      </g>
     </g>
     <g id="text_6">
      <!-- 936 -->
      <g transform="translate(415.342394 175.516563) scale(0.1 -0.1)">
       <defs>
        <path id="DejaVuSans-36" d="M 2113 2584 
Q 1688 2584 1439 2293 
Q 1191 2003 1191 1497 
Q 1191 994 1439 701 
Q 1688 409 2113 409 
Q 2538 409 2786 701 
Q 3034 994 3034 1497 
Q 3034 2003 2786 2293 
Q 2538 2584 2113 2584 
z
M 3366 4563 
L 3366 3988 
Q 3128 4100 2886 4159 
Q 2644 4219 2406 4219 
Q 1781 4219 1451 3797 
Q 1122 3375 1075 2522 
Q 1259 2794 1537 2939 
Q 1816 3084 2150 3084 
Q 2853 3084 3261 2657 
Q 3669 2231 3669 1497 
Q 3669 778 3244 343 
Q 2819 -91 2113 -91 
Q 1303 -91 875 529 
Q 447 1150 447 2328 
Q 447 3434 972 4092 
Q 1497 4750 2381 4750 
Q 2619 4750 2861 4703 
Q 3103 4656 3366 4563 
z
" transform="scale(0.015625)"/>
       </defs>
       <use xlink:href="#DejaVuSans-39"/>
       <use xlink:href="#DejaVuSans-33" transform="translate(63.623047 0)"/>
       <use xlink:href="#DejaVuSans-36" transform="translate(127.246094 0)"/>
      </g>
     </g>
    </g>
    <g id="xtick_7">
     <g id="line2d_8">
      <g>
       <use xlink:href="#m636e1d6714" x="495.074823" y="160.918125" style="stroke: #000000; stroke-width: 0.8"/>
      </g>
     </g>
     <g id="text_7">
      <!-- 944 -->
      <g transform="translate(485.531073 175.516563) scale(0.1 -0.1)">
       <use xlink:href="#DejaVuSans-39"/>
       <use xlink:href="#DejaVuSans-34" transform="translate(63.623047 0)"/>
       <use xlink:href="#DejaVuSans-34" transform="translate(127.246094 0)"/>
      </g>
     </g>
    </g>
    <g id="xtick_8">
     <g id="line2d_9">
      <g>
       <use xlink:href="#m636e1d6714" x="565.263502" y="160.918125" style="stroke: #000000; stroke-width: 0.8"/>
      </g>
     </g>
     <g id="text_8">
      <!-- 991 -->
      <g transform="translate(555.719752 175.516563) scale(0.1 -0.1)">
       <use xlink:href="#DejaVuSans-39"/>
       <use xlink:href="#DejaVuSans-39" transform="translate(63.623047 0)"/>
       <use xlink:href="#DejaVuSans-31" transform="translate(127.246094 0)"/>
      </g>
     </g>
    </g>
    <g id="text_9">
     <!-- position -->
     <g transform="translate(299.798437 189.194688) scale(0.1 -0.1)">
      <defs>
       <path id="DejaVuSans-70" d="M 1159 525 
L 1159 -1331 
L 581 -1331 
L 581 3500 
L 1159 3500 
L 1159 2969 
Q 1341 3281 1617 3432 
Q 1894 3584 2278 3584 
Q 2916 3584 3314 3078 
Q 3713 2572 3713 1747 
Q 3713 922 3314 415 
Q 2916 -91 2278 -91 
Q 1894 -91 1617 61 
Q 1341 213 1159 525 
z
M 3116 1747 
Q 3116 2381 2855 2742 
Q 2594 3103 2138 3103 
Q 1681 3103 1420 2742 
Q 1159 2381 1159 1747 
Q 1159 1113 1420 752 
Q 1681 391 2138 391 
Q 2594 391 2855 752 
Q 3116 1113 3116 1747 
z
" transform="scale(0.015625)"/>
       <path id="DejaVuSans-6f" d="M 1959 3097 
Q 1497 3097 1228 2736 
Q 959 2375 959 1747 
Q 959 1119 1226 758 
Q 1494 397 1959 397 
Q 2419 397 2687 759 
Q 2956 1122 2956 1747 
Q 2956 2369 2687 2733 
Q 2419 3097 1959 3097 
z
M 1959 3584 
Q 2709 3584 3137 3096 
Q 3566 2609 3566 1747 
Q 3566 888 3137 398 
Q 2709 -91 1959 -91 
Q 1206 -91 779 398 
Q 353 888 353 1747 
Q 353 2609 779 3096 
Q 1206 3584 1959 3584 
z
" transform="scale(0.015625)"/>
       <path id="DejaVuSans-73" d="M 2834 3397 
L 2834 2853 
Q 2591 2978 2328 3040 
Q 2066 3103 1784 3103 
Q 1356 3103 1142 2972 
Q 928 2841 928 2578 
Q 928 2378 1081 2264 
Q 1234 2150 1697 2047 
L 1894 2003 
Q 2506 1872 2764 1633 
Q 3022 1394 3022 966 
Q 3022 478 2636 193 
Q 2250 -91 1575 -91 
Q 1294 -91 989 -36 
Q 684 19 347 128 
L 347 722 
Q 666 556 975 473 
Q 1284 391 1588 391 
Q 1994 391 2212 530 
Q 2431 669 2431 922 
Q 2431 1156 2273 1281 
Q 2116 1406 1581 1522 
L 1381 1569 
Q 847 1681 609 1914 
Q 372 2147 372 2553 
Q 372 3047 722 3315 
Q 1072 3584 1716 3584 
Q 2034 3584 2315 3537 
Q 2597 3491 2834 3397 
z
" transform="scale(0.015625)"/>
       <path id="DejaVuSans-69" d="M 603 3500 
L 1178 3500 
L 1178 0 
L 603 0 
L 603 3500 
z
M 603 4863 
L 1178 4863 
L 1178 4134 
L 603 4134 
L 603 4863 
z
" transform="scale(0.015625)"/>
       <path id="DejaVuSans-74" d="M 1172 4494 
L 1172 3500 
L 2356 3500 
L 2356 3053 
L 1172 3053 
L 1172 1153 
Q 1172 725 1289 603 
Q 1406 481 1766 481 
L 2356 481 
L 2356 0 
L 1766 0 
Q 1100 0 847 248 
Q 594 497 594 1153 
L 594 3053 
L 172 3053 
L 172 3500 
L 594 3500 
L 594 4494 
L 1172 4494 
z
" transform="scale(0.015625)"/>
       <path id="DejaVuSans-6e" d="M 3513 2113 
L 3513 0 
L 2938 0 
L 2938 2094 
Q 2938 2591 2744 2837 
Q 2550 3084 2163 3084 
Q 1697 3084 1428 2787 
Q 1159 2491 1159 1978 
L 1159 0 
L 581 0 
L 581 3500 
L 1159 3500 
L 1159 2956 
Q 1366 3272 1645 3428 
Q 1925 3584 2291 3584 
Q 2894 3584 3203 3211 
Q 3513 2838 3513 2113 
z
" transform="scale(0.015625)"/>
      </defs>
      <use xlink:href="#DejaVuSans-70"/>
      <use xlink:href="#DejaVuSans-6f" transform="translate(63.476562 0)"/>
      <use xlink:href="#DejaVuSans-73" transform="translate(124.658203 0)"/>
      <use xlink:href="#DejaVuSans-69" transform="translate(176.757812 0)"/>
      <use xlink:href="#DejaVuSans-74" transform="translate(204.541016 0)"/>
      <use xlink:href="#DejaVuSans-69" transform="translate(243.75 0)"/>
      <use xlink:href="#DejaVuSans-6f" transform="translate(271.533203 0)"/>
      <use xlink:href="#DejaVuSans-6e" transform="translate(332.714844 0)"/>
     </g>
    </g>
   </g>
   <g id="matplotlib.axis_2">
    <g id="ytick_1">
     <g id="line2d_10">
      <defs>
       <path id="m1b751f4fff" d="M 0 0 
L -3.5 0 
" style="stroke: #000000; stroke-width: 0.8"/>
      </defs>
      <g>
       <use xlink:href="#m1b751f4fff" x="40.603125" y="160.918125" style="stroke: #000000; stroke-width: 0.8"/>
      </g>
     </g>
     <g id="text_10">
      <!-- 0 -->
      <g transform="translate(27.240625 164.717344) scale(0.1 -0.1)">
       <defs>
        <path id="DejaVuSans-30" d="M 2034 4250 
Q 1547 4250 1301 3770 
Q 1056 3291 1056 2328 
Q 1056 1369 1301 889 
Q 1547 409 2034 409 
Q 2525 409 2770 889 
Q 3016 1369 3016 2328 
Q 3016 3291 2770 3770 
Q 2525 4250 2034 4250 
z
M 2034 4750 
Q 2819 4750 3233 4129 
Q 3647 3509 3647 2328 
Q 3647 1150 3233 529 
Q 2819 -91 2034 -91 
Q 1250 -91 836 529 
Q 422 1150 422 2328 
Q 422 3509 836 4129 
Q 1250 4750 2034 4750 
z
" transform="scale(0.015625)"/>
       </defs>
       <use xlink:href="#DejaVuSans-30"/>
      </g>
     </g>
    </g>
    <g id="ytick_2">
     <g id="line2d_11">
      <g>
       <use xlink:href="#m1b751f4fff" x="40.603125" y="117.605625" style="stroke: #000000; stroke-width: 0.8"/>
      </g>
     </g>
     <g id="text_11">
      <!-- 20 -->
      <g transform="translate(20.878125 121.404844) scale(0.1 -0.1)">
       <use xlink:href="#DejaVuSans-32"/>
       <use xlink:href="#DejaVuSans-30" transform="translate(63.623047 0)"/>
      </g>
     </g>
    </g>
    <g id="ytick_3">
     <g id="line2d_12">
      <g>
       <use xlink:href="#m1b751f4fff" x="40.603125" y="74.293125" style="stroke: #000000; stroke-width: 0.8"/>
      </g>
     </g>
     <g id="text_12">
      <!-- 40 -->
      <g transform="translate(20.878125 78.092344) scale(0.1 -0.1)">
       <use xlink:href="#DejaVuSans-34"/>
       <use xlink:href="#DejaVuSans-30" transform="translate(63.623047 0)"/>
      </g>
     </g>
    </g>
    <g id="ytick_4">
     <g id="line2d_13">
      <g>
       <use xlink:href="#m1b751f4fff" x="40.603125" y="30.980625" style="stroke: #000000; stroke-width: 0.8"/>
      </g>
     </g>
     <g id="text_13">
      <!-- 60 -->
      <g transform="translate(20.878125 34.779844) scale(0.1 -0.1)">
       <use xlink:href="#DejaVuSans-36"/>
       <use xlink:href="#DejaVuSans-30" transform="translate(63.623047 0)"/>
      </g>
     </g>
    </g>
    <g id="text_14">
     <!-- count # -->
     <g transform="translate(14.798437 111.503281) rotate(-90) scale(0.1 -0.1)">
      <defs>
       <path id="DejaVuSans-63" d="M 3122 3366 
L 3122 2828 
Q 2878 2963 2633 3030 
Q 2388 3097 2138 3097 
Q 1578 3097 1268 2742 
Q 959 2388 959 1747 
Q 959 1106 1268 751 
Q 1578 397 2138 397 
Q 2388 397 2633 464 
Q 2878 531 3122 666 
L 3122 134 
Q 2881 22 2623 -34 
Q 2366 -91 2075 -91 
Q 1284 -91 818 406 
Q 353 903 353 1747 
Q 353 2603 823 3093 
Q 1294 3584 2113 3584 
Q 2378 3584 2631 3529 
Q 2884 3475 3122 3366 
z
" transform="scale(0.015625)"/>
       <path id="DejaVuSans-75" d="M 544 1381 
L 544 3500 
L 1119 3500 
L 1119 1403 
Q 1119 906 1312 657 
Q 1506 409 1894 409 
Q 2359 409 2629 706 
Q 2900 1003 2900 1516 
L 2900 3500 
L 3475 3500 
L 3475 0 
L 2900 0 
L 2900 538 
Q 2691 219 2414 64 
Q 2138 -91 1772 -91 
Q 1169 -91 856 284 
Q 544 659 544 1381 
z
M 1991 3584 
L 1991 3584 
z
" transform="scale(0.015625)"/>
       <path id="DejaVuSans-20" transform="scale(0.015625)"/>
       <path id="DejaVuSans-23" d="M 3272 2816 
L 2363 2816 
L 2100 1772 
L 3016 1772 
L 3272 2816 
z
M 2803 4594 
L 2478 3297 
L 3391 3297 
L 3719 4594 
L 4219 4594 
L 3897 3297 
L 4872 3297 
L 4872 2816 
L 3775 2816 
L 3519 1772 
L 4513 1772 
L 4513 1294 
L 3397 1294 
L 3072 0 
L 2572 0 
L 2894 1294 
L 1978 1294 
L 1656 0 
L 1153 0 
L 1478 1294 
L 494 1294 
L 494 1772 
L 1594 1772 
L 1856 2816 
L 850 2816 
L 850 3297 
L 1978 3297 
L 2297 4594 
L 2803 4594 
z
" transform="scale(0.015625)"/>
      </defs>
      <use xlink:href="#DejaVuSans-63"/>
      <use xlink:href="#DejaVuSans-6f" transform="translate(54.980469 0)"/>
      <use xlink:href="#DejaVuSans-75" transform="translate(116.162109 0)"/>
      <use xlink:href="#DejaVuSans-6e" transform="translate(179.541016 0)"/>
      <use xlink:href="#DejaVuSans-74" transform="translate(242.919922 0)"/>
      <use xlink:href="#DejaVuSans-20" transform="translate(282.128906 0)"/>
      <use xlink:href="#DejaVuSans-23" transform="translate(313.916016 0)"/>
     </g>
    </g>
   </g>
   <g id="patch_104">
    <path d="M 40.603125 160.918125 
L 40.603125 22.318125 
" style="fill: none; stroke: #000000; stroke-width: 0.8; stroke-linejoin: miter; stroke-linecap: square"/>
   </g>
   <g id="patch_105">
    <path d="M 598.603125 160.918125 
L 598.603125 22.318125 
" style="fill: none; stroke: #000000; stroke-width: 0.8; stroke-linejoin: miter; stroke-linecap: square"/>
   </g>
   <g id="patch_106">
    <path d="M 40.603125 160.918125 
L 598.603125 160.918125 
" style="fill: none; stroke: #000000; stroke-width: 0.8; stroke-linejoin: miter; stroke-linecap: square"/>
   </g>
   <g id="patch_107">
    <path d="M 40.603125 22.318125 
L 598.603125 22.318125 
" style="fill: none; stroke: #000000; stroke-width: 0.8; stroke-linejoin: miter; stroke-linecap: square"/>
   </g>
   <g id="text_15">
    <!-- ß-hydroxylation FALSE -->
    <g transform="translate(252.771562 16.318125) scale(0.12 -0.12)">
     <defs>
      <path id="DejaVuSans-df" d="M 581 3553 
Q 581 4178 954 4520 
Q 1328 4863 2009 4863 
Q 2659 4863 3001 4500 
Q 3344 4138 3353 3438 
Q 2881 3413 2618 3233 
Q 2356 3053 2356 2753 
Q 2356 2606 2447 2479 
Q 2538 2353 2741 2222 
L 2919 2106 
Q 3438 1775 3588 1553 
Q 3738 1331 3738 1019 
Q 3738 481 3386 195 
Q 3034 -91 2375 -91 
Q 2175 -91 1962 -52 
Q 1750 -13 1522 63 
L 1522 575 
Q 1772 481 1990 436 
Q 2209 391 2413 391 
Q 2775 391 2962 539 
Q 3150 688 3150 972 
Q 3150 1169 3058 1300 
Q 2966 1431 2650 1625 
L 2363 1797 
Q 2063 1981 1927 2192 
Q 1791 2403 1791 2688 
Q 1791 3084 2052 3353 
Q 2313 3622 2784 3713 
Q 2759 4034 2554 4209 
Q 2350 4384 1997 4384 
Q 1591 4384 1378 4167 
Q 1166 3950 1166 3541 
L 1166 0 
L 581 0 
L 581 3553 
z
" transform="scale(0.015625)"/>
      <path id="DejaVuSans-2d" d="M 313 2009 
L 1997 2009 
L 1997 1497 
L 313 1497 
L 313 2009 
z
" transform="scale(0.015625)"/>
      <path id="DejaVuSans-68" d="M 3513 2113 
L 3513 0 
L 2938 0 
L 2938 2094 
Q 2938 2591 2744 2837 
Q 2550 3084 2163 3084 
Q 1697 3084 1428 2787 
Q 1159 2491 1159 1978 
L 1159 0 
L 581 0 
L 581 4863 
L 1159 4863 
L 1159 2956 
Q 1366 3272 1645 3428 
Q 1925 3584 2291 3584 
Q 2894 3584 3203 3211 
Q 3513 2838 3513 2113 
z
" transform="scale(0.015625)"/>
      <path id="DejaVuSans-79" d="M 2059 -325 
Q 1816 -950 1584 -1140 
Q 1353 -1331 966 -1331 
L 506 -1331 
L 506 -850 
L 844 -850 
Q 1081 -850 1212 -737 
Q 1344 -625 1503 -206 
L 1606 56 
L 191 3500 
L 800 3500 
L 1894 763 
L 2988 3500 
L 3597 3500 
L 2059 -325 
z
" transform="scale(0.015625)"/>
      <path id="DejaVuSans-64" d="M 2906 2969 
L 2906 4863 
L 3481 4863 
L 3481 0 
L 2906 0 
L 2906 525 
Q 2725 213 2448 61 
Q 2172 -91 1784 -91 
Q 1150 -91 751 415 
Q 353 922 353 1747 
Q 353 2572 751 3078 
Q 1150 3584 1784 3584 
Q 2172 3584 2448 3432 
Q 2725 3281 2906 2969 
z
M 947 1747 
Q 947 1113 1208 752 
Q 1469 391 1925 391 
Q 2381 391 2643 752 
Q 2906 1113 2906 1747 
Q 2906 2381 2643 2742 
Q 2381 3103 1925 3103 
Q 1469 3103 1208 2742 
Q 947 2381 947 1747 
z
" transform="scale(0.015625)"/>
      <path id="DejaVuSans-72" d="M 2631 2963 
Q 2534 3019 2420 3045 
Q 2306 3072 2169 3072 
Q 1681 3072 1420 2755 
Q 1159 2438 1159 1844 
L 1159 0 
L 581 0 
L 581 3500 
L 1159 3500 
L 1159 2956 
Q 1341 3275 1631 3429 
Q 1922 3584 2338 3584 
Q 2397 3584 2469 3576 
Q 2541 3569 2628 3553 
L 2631 2963 
z
" transform="scale(0.015625)"/>
      <path id="DejaVuSans-78" d="M 3513 3500 
L 2247 1797 
L 3578 0 
L 2900 0 
L 1881 1375 
L 863 0 
L 184 0 
L 1544 1831 
L 300 3500 
L 978 3500 
L 1906 2253 
L 2834 3500 
L 3513 3500 
z
" transform="scale(0.015625)"/>
      <path id="DejaVuSans-6c" d="M 603 4863 
L 1178 4863 
L 1178 0 
L 603 0 
L 603 4863 
z
" transform="scale(0.015625)"/>
      <path id="DejaVuSans-61" d="M 2194 1759 
Q 1497 1759 1228 1600 
Q 959 1441 959 1056 
Q 959 750 1161 570 
Q 1363 391 1709 391 
Q 2188 391 2477 730 
Q 2766 1069 2766 1631 
L 2766 1759 
L 2194 1759 
z
M 3341 1997 
L 3341 0 
L 2766 0 
L 2766 531 
Q 2569 213 2275 61 
Q 1981 -91 1556 -91 
Q 1019 -91 701 211 
Q 384 513 384 1019 
Q 384 1609 779 1909 
Q 1175 2209 1959 2209 
L 2766 2209 
L 2766 2266 
Q 2766 2663 2505 2880 
Q 2244 3097 1772 3097 
Q 1472 3097 1187 3025 
Q 903 2953 641 2809 
L 641 3341 
Q 956 3463 1253 3523 
Q 1550 3584 1831 3584 
Q 2591 3584 2966 3190 
Q 3341 2797 3341 1997 
z
" transform="scale(0.015625)"/>
      <path id="DejaVuSans-46" d="M 628 4666 
L 3309 4666 
L 3309 4134 
L 1259 4134 
L 1259 2759 
L 3109 2759 
L 3109 2228 
L 1259 2228 
L 1259 0 
L 628 0 
L 628 4666 
z
" transform="scale(0.015625)"/>
      <path id="DejaVuSans-41" d="M 2188 4044 
L 1331 1722 
L 3047 1722 
L 2188 4044 
z
M 1831 4666 
L 2547 4666 
L 4325 0 
L 3669 0 
L 3244 1197 
L 1141 1197 
L 716 0 
L 50 0 
L 1831 4666 
z
" transform="scale(0.015625)"/>
      <path id="DejaVuSans-4c" d="M 628 4666 
L 1259 4666 
L 1259 531 
L 3531 531 
L 3531 0 
L 628 0 
L 628 4666 
z
" transform="scale(0.015625)"/>
      <path id="DejaVuSans-53" d="M 3425 4513 
L 3425 3897 
Q 3066 4069 2747 4153 
Q 2428 4238 2131 4238 
Q 1616 4238 1336 4038 
Q 1056 3838 1056 3469 
Q 1056 3159 1242 3001 
Q 1428 2844 1947 2747 
L 2328 2669 
Q 3034 2534 3370 2195 
Q 3706 1856 3706 1288 
Q 3706 609 3251 259 
Q 2797 -91 1919 -91 
Q 1588 -91 1214 -16 
Q 841 59 441 206 
L 441 856 
Q 825 641 1194 531 
Q 1563 422 1919 422 
Q 2459 422 2753 634 
Q 3047 847 3047 1241 
Q 3047 1584 2836 1778 
Q 2625 1972 2144 2069 
L 1759 2144 
Q 1053 2284 737 2584 
Q 422 2884 422 3419 
Q 422 4038 858 4394 
Q 1294 4750 2059 4750 
Q 2388 4750 2728 4690 
Q 3069 4631 3425 4513 
z
" transform="scale(0.015625)"/>
      <path id="DejaVuSans-45" d="M 628 4666 
L 3578 4666 
L 3578 4134 
L 1259 4134 
L 1259 2753 
L 3481 2753 
L 3481 2222 
L 1259 2222 
L 1259 531 
L 3634 531 
L 3634 0 
L 628 0 
L 628 4666 
z
" transform="scale(0.015625)"/>
     </defs>
     <use xlink:href="#DejaVuSans-df"/>
     <use xlink:href="#DejaVuSans-2d" transform="translate(64.863281 0)"/>
     <use xlink:href="#DejaVuSans-68" transform="translate(100.947266 0)"/>
     <use xlink:href="#DejaVuSans-79" transform="translate(164.326172 0)"/>
     <use xlink:href="#DejaVuSans-64" transform="translate(223.505859 0)"/>
     <use xlink:href="#DejaVuSans-72" transform="translate(286.982422 0)"/>
     <use xlink:href="#DejaVuSans-6f" transform="translate(325.845703 0)"/>
     <use xlink:href="#DejaVuSans-78" transform="translate(383.902344 0)"/>
     <use xlink:href="#DejaVuSans-79" transform="translate(443.082031 0)"/>
     <use xlink:href="#DejaVuSans-6c" transform="translate(502.261719 0)"/>
     <use xlink:href="#DejaVuSans-61" transform="translate(530.044922 0)"/>
     <use xlink:href="#DejaVuSans-74" transform="translate(591.324219 0)"/>
     <use xlink:href="#DejaVuSans-69" transform="translate(630.533203 0)"/>
     <use xlink:href="#DejaVuSans-6f" transform="translate(658.316406 0)"/>
     <use xlink:href="#DejaVuSans-6e" transform="translate(719.498047 0)"/>
     <use xlink:href="#DejaVuSans-20" transform="translate(782.876953 0)"/>
     <use xlink:href="#DejaVuSans-46" transform="translate(814.664062 0)"/>
     <use xlink:href="#DejaVuSans-41" transform="translate(863.058594 0)"/>
     <use xlink:href="#DejaVuSans-4c" transform="translate(931.466797 0)"/>
     <use xlink:href="#DejaVuSans-53" transform="translate(987.179688 0)"/>
     <use xlink:href="#DejaVuSans-45" transform="translate(1050.65625 0)"/>
    </g>
   </g>
  </g>
 </g>
 <defs>
  <clipPath id="p9cf6e11adb">
   <rect x="40.603125" y="22.318125" width="558" height="138.6"/>
  </clipPath>
 </defs>
</svg>
