<?xml version="1.0" encoding="utf-8" standalone="no"?>
<!DOCTYPE svg PUBLIC "-//W3C//DTD SVG 1.1//EN"
  "http://www.w3.org/Graphics/SVG/1.1/DTD/svg11.dtd">
<svg xmlns:xlink="http://www.w3.org/1999/xlink" width="605.803125pt" height="198.474375pt" viewBox="0 0 605.803125 198.474375" xmlns="http://www.w3.org/2000/svg" version="1.1">
 <metadata>
  <rdf:RDF xmlns:dc="http://purl.org/dc/elements/1.1/" xmlns:cc="http://creativecommons.org/ns#" xmlns:rdf="http://www.w3.org/1999/02/22-rdf-syntax-ns#">
   <cc:Work>
    <dc:type rdf:resource="http://purl.org/dc/dcmitype/StillImage"/>
    <dc:date>2026-07-03T02:44:43.330940</dc:date>
    <dc:format>image/svg+xml</dc:format>
    <dc:creator>
     <cc:Agent>
      <dc:title>Matplotlib v3.10.9, https://matplotlib.org/</dc:title>
     </cc:Agent>
    </dc:creator>
   </cc:Work>
  </rdf:RDF>
 </metadata>
 <defs>
  <style type="text/css">*{stroke-linejoin: round; stroke-linecap: butt}</style>
 </defs>
 <g id="figure_1">
  <g id="patch_1">
   <path d="M 0 198.474375 
L 605.803125 198.474375 
L 605.803125 0 
L 0 0 
z
" style="fill: #ffffff"/>
  </g>
  <g id="axes_1">
   <g id="patch_2">
    <path d="M 40.603125 160.918125 
L 598.603125 160.918125 
L 598.603125 22.318125 
L 40.603125 22.318125 
z
" style="fill: #ffffff"/>
   </g>
   <g id="line2d_1">
    <path d="M 40.603125 160.918125 
L 598.603125 160.918125 
" clip-path="url(#p8b0a375837)" style="fill: none; stroke: #000000; stroke-width: 0.5; stroke-linecap: square"/>
   </g>
   <g id="patch_3">
    <path d="M 40.603125 158.351458 
L 62.0215 158.351458 
L 89.085523 160.11171 
L 89.085523 158.351458 
L 107.28237 158.351458 
L 107.28237 160.918125 
L 85.848047 160.918125 
L 58.784024 159.157874 
L 58.784024 160.918125 
L 40.603125 160.918125 
L 40.603125 158.351458 
z
" clip-path="url(#p8b0a375837)" style="fill: #366666"/>
   </g>
   <g id="patch_4">
    <path d="M 40.603125 155.784792 
L 64.800752 155.784792 
L 64.800752 157.851437 
L 107.28237 157.851437 
L 107.28237 158.351458 
L 40.603125 158.351458 
L 40.603125 155.784792 
z
" clip-path="url(#p8b0a375837)" style="fill: #fc9940"/>
   </g>
   <g id="patch_5">
    <path d="M 58.875365 153.718697 
L 58.875365 155.28477 
L 65.421778 155.28477 
Q 76.615993 155.28477 82.524473 155.083441 
Q 88.448142 154.882113 88.448142 154.498708 
Q 88.448142 154.117503 82.554851 153.918375 
Q 76.676749 153.718697 65.421778 153.718697 
L 58.875365 153.718697 
z
M 40.603125 153.218125 
L 59.862643 153.218125 
Q 76.008437 153.218125 83.906662 153.301737 
Q 91.804887 153.384799 97.455156 153.584477 
Q 102.437113 153.758302 104.852147 153.985485 
Q 107.28237 154.212117 107.28237 154.498708 
Q 107.28237 154.7897 104.852147 155.017432 
Q 102.437113 155.245165 97.455156 155.418439 
Q 91.75932 155.618118 83.785151 155.70173 
Q 75.810982 155.784792 59.862643 155.784792 
L 40.603125 155.784792 
L 40.603125 153.218125 
z
" clip-path="url(#p8b0a375837)" style="fill: #fc0d1c"/>
   </g>
   <g id="patch_6">
    <path d="M 40.603125 148.084792 
L 60.27286 148.084792 
L 73.917052 150.831884 
L 87.651178 148.084792 
L 107.28237 148.084792 
L 107.28237 153.218125 
L 92.674605 153.218125 
L 92.674605 149.463289 
L 78.863393 152.231284 
L 69.060645 152.231284 
L 55.249433 149.463289 
L 55.249433 153.218125 
L 40.603125 153.218125 
L 40.603125 148.084792 
z
" clip-path="url(#p8b0a375837)" style="fill: #cc99cc"/>
   </g>
   <g id="patch_7">
    <path d="M 40.603125 142.951458 
L 105.894476 142.951458 
L 105.894476 143.952601 
L 64.800752 143.952601 
L 64.800752 144.907538 
L 103.460634 144.907538 
L 103.460634 145.908681 
L 64.800752 145.908681 
L 64.800752 147.084749 
L 107.28237 147.084749 
L 107.28237 148.084792 
L 40.603125 148.084792 
L 40.603125 142.951458 
z
" clip-path="url(#p8b0a375837)" style="fill: #c90a38"/>
   </g>
   <g id="patch_8">
    <path d="M 75.720861 142.183806 
L 74.415059 142.183806 
Q 58.398149 142.183806 49.493691 141.608519 
Q 40.603125 141.032329 40.603125 140.005481 
Q 40.603125 138.98044 49.4798 138.399734 
Q 58.356474 137.818125 73.942748 137.818125 
Q 89.695719 137.818125 98.489045 138.394315 
Q 107.28237 138.969603 107.28237 140.005481 
Q 107.28237 140.716237 102.614823 141.230112 
Q 97.947276 141.743987 89.181733 142.003182 
L 102.239752 142.951458 
L 86.306191 142.951458 
L 75.720861 142.183806 
z
M 73.942748 138.605646 
Q 66.302417 138.605646 62.09329 138.972312 
Q 57.884163 139.338979 57.884163 140.005481 
Q 57.884163 140.682821 61.99605 141.043166 
Q 66.121828 141.402608 73.942748 141.402608 
Q 81.624752 141.402608 85.83388 141.035941 
Q 90.043007 140.668371 90.043007 140.005481 
Q 90.043007 139.338979 85.83388 138.972312 
Q 81.624752 138.605646 73.942748 138.605646 
z
" clip-path="url(#p8b0a375837)" style="fill: #6669c9"/>
   </g>
   <g id="patch_9">
    <path d="M 101.722748 132.929741 
L 101.722748 133.977403 
Q 94.768693 133.795017 88.14061 133.702763 
Q 81.530636 133.609449 75.645042 133.609449 
Q 67.83984 133.609449 64.09117 133.735635 
Q 60.360609 133.860761 60.360609 134.125858 
Q 60.360609 134.32521 62.877832 134.436551 
Q 65.395055 134.546831 72.023139 134.62636 
L 81.295212 134.73558 
Q 95.384417 134.902061 101.324339 135.240324 
Q 107.28237 135.577527 107.28237 136.201035 
Q 107.28237 137.018593 98.988211 137.418359 
Q 90.694052 137.818125 73.652995 137.818125 
Q 65.630479 137.818125 57.535524 137.727992 
Q 49.44057 137.63892 41.345615 137.462895 
L 41.345615 136.386603 
Q 49.44057 136.637914 56.992239 136.766221 
Q 64.543908 136.893468 71.570401 136.893468 
Q 78.705551 136.893468 82.49044 136.754557 
Q 86.275329 136.614586 86.275329 136.355851 
Q 86.275329 136.124687 83.703778 135.998501 
Q 81.132226 135.872315 73.435681 135.772639 
L 64.996646 135.663419 
Q 52.319983 135.504361 46.452499 135.156554 
Q 40.603125 134.808747 40.603125 134.219172 
Q 40.603125 133.480082 48.752408 133.082437 
Q 56.901691 132.684792 72.186124 132.684792 
Q 79.158289 132.684792 86.510753 132.746294 
Q 93.863217 132.807797 101.722748 132.929741 
z
" clip-path="url(#p8b0a375837)" style="fill: #0a24fa"/>
   </g>
   <g id="patch_10">
    <path d="M 40.603125 127.551458 
L 107.28237 127.551458 
L 107.28237 128.552601 
L 83.293349 128.552601 
L 83.293349 132.684792 
L 64.638667 132.684792 
L 64.638667 128.552601 
L 40.603125 128.552601 
L 40.603125 127.551458 
z
" clip-path="url(#p8b0a375837)" style="fill: #2bffff"/>
   </g>
   <g id="patch_11">
    <path d="M 107.28237 126.999527 
Q 101.704766 127.273107 95.673562 127.411487 
Q 89.642358 127.551458 83.073554 127.551458 
Q 63.484741 127.551458 52.043933 126.5144 
Q 40.603125 125.477341 40.603125 123.703844 
Q 40.603125 121.923985 52.043933 120.888517 
Q 63.484741 119.851458 83.073554 119.851458 
Q 89.642358 119.851458 95.673562 119.991429 
Q 101.704766 120.12981 107.28237 120.40339 
L 107.28237 121.9383 
Q 101.654366 121.575648 96.194363 121.407046 
Q 90.734359 121.238444 84.703155 121.238444 
Q 73.883948 121.238444 67.684743 121.895354 
Q 61.502339 122.550673 61.502339 123.703844 
Q 61.502339 124.852243 67.684743 125.509153 
Q 73.883948 126.164472 84.703155 126.164472 
Q 90.734359 126.164472 96.194363 125.995871 
Q 101.654366 125.825679 107.28237 125.463026 
L 107.28237 126.999527 
z
" clip-path="url(#p8b0a375837)" style="fill: #179999"/>
   </g>
   <g id="patch_12">
    <path d="M 40.603125 112.151458 
L 57.099115 112.151458 
L 73.963197 117.83487 
L 90.800013 112.151458 
L 107.28237 112.151458 
L 83.724461 119.851458 
L 64.161035 119.851458 
L 40.603125 112.151458 
z
" clip-path="url(#p8b0a375837)" style="fill: #ffcc45"/>
   </g>
   <g id="patch_13">
    <path d="M 86.791897 109.813624 
L 61.148131 109.813624 
L 57.099115 112.151458 
L 40.603125 112.151458 
L 64.161035 99.318125 
L 83.724461 99.318125 
L 107.28237 112.151458 
L 90.800013 112.151458 
L 86.791897 109.813624 
z
M 65.238046 107.431784 
L 82.661083 107.431784 
L 73.963197 102.327055 
L 65.238046 107.431784 
z
" clip-path="url(#p8b0a375837)" style="fill: #fc996b"/>
   </g>
   <g id="patch_14">
    <path d="M 107.28237 92.583607 
Q 100.557659 95.950866 93.324859 97.642183 
Q 86.092059 99.318125 78.381057 99.318125 
Q 60.956584 99.318125 50.779854 89.293227 
Q 40.603125 79.268328 40.603125 62.124522 
Q 40.603125 44.780832 50.95918 34.832812 
Q 61.330179 24.884792 79.367348 24.884792 
Q 86.316216 24.884792 92.682276 26.237845 
Q 99.063279 27.575524 104.712036 30.220129 
L 104.712036 45.057593 
Q 98.883953 41.659583 93.115646 39.983642 
Q 87.347338 38.292325 81.549143 38.292325 
Q 70.819493 38.292325 65.006354 44.47332 
Q 59.193215 50.63894 59.193215 62.124522 
Q 59.193215 73.502474 64.797141 79.714221 
Q 70.401067 85.910592 80.71229 85.910592 
Q 83.521725 85.910592 85.927677 85.556953 
Q 88.333629 85.187938 90.246436 84.419158 
L 90.246436 70.488854 
L 79.262741 70.488854 
L 79.262741 58.080736 
L 107.28237 58.080736 
L 107.28237 92.583607 
z
" clip-path="url(#p8b0a375837)" style="fill: #f2f038"/>
   </g>
   <g id="patch_15">
    <path d="M 145.90954 159.766647 
L 144.603738 159.766647 
Q 128.586828 159.766647 119.68237 158.903716 
Q 110.791804 158.03943 110.791804 156.499159 
Q 110.791804 154.961598 119.668479 154.090539 
Q 128.545153 153.218125 144.131427 153.218125 
Q 159.884399 153.218125 168.677724 154.082411 
Q 177.47105 154.945342 177.47105 156.499159 
Q 177.47105 157.565292 172.803502 158.336105 
Q 168.135955 159.106918 159.370413 159.495711 
L 172.428432 160.918125 
L 156.49487 160.918125 
L 145.90954 159.766647 
z
M 144.131427 154.399406 
Q 136.491097 154.399406 132.281969 154.949406 
Q 128.072842 155.499406 128.072842 156.499159 
Q 128.072842 157.515169 132.184729 158.055687 
Q 136.310507 158.594849 144.131427 158.594849 
Q 151.813432 158.594849 156.022559 158.044849 
Q 160.231686 157.493494 160.231686 156.499159 
Q 160.231686 155.499406 156.022559 154.949406 
Q 151.813432 154.399406 144.131427 154.399406 
z
" clip-path="url(#p8b0a375837)" style="fill: #6669c9"/>
   </g>
   <g id="patch_16">
    <path d="M 110.791804 140.384792 
L 176.083156 140.384792 
L 176.083156 142.887649 
L 134.989431 142.887649 
L 134.989431 145.27499 
L 173.649313 145.27499 
L 173.649313 147.777848 
L 134.989431 147.777848 
L 134.989431 150.718018 
L 177.47105 150.718018 
L 177.47105 153.218125 
L 110.791804 153.218125 
L 110.791804 140.384792 
z
" clip-path="url(#p8b0a375837)" style="fill: #c90a38"/>
   </g>
   <g id="patch_17">
    <path d="M 110.791804 104.451458 
L 132.210179 104.451458 
L 159.274202 129.094979 
L 159.274202 104.451458 
L 177.47105 104.451458 
L 177.47105 140.384792 
L 156.036726 140.384792 
L 128.972703 115.741271 
L 128.972703 140.384792 
L 110.791804 140.384792 
L 110.791804 104.451458 
z
" clip-path="url(#p8b0a375837)" style="fill: #366666"/>
   </g>
   <g id="patch_18">
    <path d="M 171.911428 28.681507 
L 171.911428 44.920273 
Q 164.957373 42.093282 158.329289 40.66335 
Q 151.719315 39.216982 145.833722 39.216982 
Q 138.028519 39.216982 134.279849 41.172866 
Q 130.549288 43.112314 130.549288 47.221313 
Q 130.549288 50.311281 133.066511 52.03706 
Q 135.583734 53.746404 142.211818 54.979104 
L 151.483891 56.672012 
Q 165.573096 59.252464 171.513018 64.495547 
Q 177.47105 69.722194 177.47105 79.386561 
Q 177.47105 92.058716 169.17689 98.255087 
Q 160.882731 104.451458 143.841675 104.451458 
Q 135.819158 104.451458 127.724204 103.054398 
Q 119.629249 101.673775 111.534294 98.945399 
L 111.534294 82.262861 
Q 119.629249 86.158192 127.180918 88.146948 
Q 134.732587 90.119268 141.75908 90.119268 
Q 148.89423 90.119268 152.679119 87.966152 
Q 156.464009 85.796601 156.464009 81.786217 
Q 156.464009 78.203169 153.892457 76.247286 
Q 151.320906 74.291402 143.62436 72.746418 
L 135.185325 71.05351 
Q 122.508662 68.588111 116.641179 63.197103 
Q 110.791804 57.806096 110.791804 48.667681 
Q 110.791804 37.21179 118.941087 31.048291 
Q 127.09037 24.884792 142.374804 24.884792 
Q 149.346968 24.884792 156.699432 25.83808 
Q 164.051897 26.791367 171.911428 28.681507 
z
" clip-path="url(#p8b0a375837)" style="fill: #0a24fa"/>
   </g>
   <g id="patch_19">
    <path d="M 208.035286 158.061017 
Q 214.019321 158.061017 216.615569 157.906995 
Q 219.211817 157.751873 219.211817 157.397622 
Q 219.211817 157.046672 216.615569 156.89595 
Q 214.019321 156.744129 208.035286 156.744129 
L 200.024912 156.744129 
L 200.024912 158.061017 
L 208.035286 158.061017 
z
M 200.024912 158.975247 
L 200.024912 160.918125 
L 180.980483 160.918125 
L 180.980483 155.784792 
L 210.061626 155.784792 
Q 224.657605 155.784792 231.44901 156.12584 
Q 238.256245 156.465789 238.256245 157.201794 
Q 238.256245 157.710067 234.710151 158.036813 
Q 231.179887 158.36356 224.056036 158.518682 
Q 227.966238 158.580291 231.053241 158.799222 
Q 234.156073 159.017053 237.322229 159.460417 
L 247.659729 160.918125 
L 227.3805 160.918125 
L 218.372786 159.643043 
Q 215.649892 159.257988 212.847844 159.117168 
Q 210.061626 158.975247 205.407377 158.975247 
L 200.024912 158.975247 
z
" clip-path="url(#p8b0a375837)" style="fill: #96050a"/>
   </g>
   <g id="patch_20">
    <path d="M 180.980483 148.084792 
L 200.650218 148.084792 
L 214.294411 152.20543 
L 228.028537 148.084792 
L 247.659729 148.084792 
L 247.659729 155.784792 
L 233.051963 155.784792 
L 233.051963 150.152537 
L 219.240752 154.30453 
L 209.438003 154.30453 
L 195.626792 150.152537 
L 195.626792 155.784792 
L 180.980483 155.784792 
L 180.980483 148.084792 
z
" clip-path="url(#p8b0a375837)" style="fill: #cc99cc"/>
   </g>
   <g id="patch_21">
    <path d="M 180.980483 140.384792 
L 197.476473 140.384792 
L 214.340556 146.068204 
L 231.177372 140.384792 
L 247.659729 140.384792 
L 224.101819 148.084792 
L 204.538393 148.084792 
L 180.980483 140.384792 
z
" clip-path="url(#p8b0a375837)" style="fill: #ffcc45"/>
   </g>
   <g id="patch_22">
    <path d="M 202.221293 132.684792 
L 226.418919 132.684792 
L 226.418919 140.384792 
L 202.221293 140.384792 
L 202.221293 132.684792 
z
" clip-path="url(#p8b0a375837)" style="fill: #cc993d"/>
   </g>
   <g id="patch_23">
    <path d="M 216.098219 130.765662 
L 214.792417 130.765662 
Q 198.775507 130.765662 189.87105 129.327444 
Q 180.980483 127.886967 180.980483 125.319849 
Q 180.980483 122.757247 189.857158 121.305481 
Q 198.733833 119.851458 214.320106 119.851458 
Q 230.073078 119.851458 238.866403 121.291935 
Q 247.659729 122.730153 247.659729 125.319849 
Q 247.659729 127.096737 242.992182 128.381425 
Q 238.324634 129.666114 229.559092 130.314102 
L 242.617111 132.684792 
L 226.68355 132.684792 
L 216.098219 130.765662 
z
M 214.320106 121.82026 
Q 206.679776 121.82026 202.470649 122.736926 
Q 198.261521 123.653593 198.261521 125.319849 
Q 198.261521 127.013199 202.373408 127.914061 
Q 206.499186 128.812665 214.320106 128.812665 
Q 222.002111 128.812665 226.211238 127.895999 
Q 230.420366 126.977074 230.420366 125.319849 
Q 230.420366 123.653593 226.211238 122.736926 
Q 222.002111 121.82026 214.320106 121.82026 
z
" clip-path="url(#p8b0a375837)" style="fill: #6669c9"/>
   </g>
   <g id="patch_24">
    <path d="M 180.980483 107.018125 
L 205.17811 107.018125 
L 205.17811 117.351351 
L 247.659729 117.351351 
L 247.659729 119.851458 
L 180.980483 119.851458 
L 180.980483 107.018125 
z
" clip-path="url(#p8b0a375837)" style="fill: #fc9940"/>
   </g>
   <g id="patch_25">
    <path d="M 180.980483 24.884792 
L 246.271835 24.884792 
L 246.271835 40.90308 
L 205.17811 40.90308 
L 205.17811 56.182063 
L 243.837992 56.182063 
L 243.837992 72.200351 
L 205.17811 72.200351 
L 205.17811 91.017439 
L 247.659729 91.017439 
L 247.659729 107.018125 
L 180.980483 107.018125 
L 180.980483 24.884792 
z
" clip-path="url(#p8b0a375837)" style="fill: #c90a38"/>
   </g>
   <g id="patch_26">
    <path d="M 251.169163 158.351458 
L 275.366789 158.351458 
L 275.366789 160.418104 
L 317.848408 160.418104 
L 317.848408 160.918125 
L 251.169163 160.918125 
L 251.169163 158.351458 
z
" clip-path="url(#p8b0a375837)" style="fill: #fc9940"/>
   </g>
   <g id="patch_27">
    <path d="M 269.441402 156.285363 
L 269.441402 157.851437 
L 275.987816 157.851437 
Q 287.182031 157.851437 293.090511 157.650108 
Q 299.014179 157.448779 299.014179 157.065375 
Q 299.014179 156.68417 293.120888 156.485042 
Q 287.242786 156.285363 275.987816 156.285363 
L 269.441402 156.285363 
z
M 251.169163 155.784792 
L 270.428681 155.784792 
Q 286.574475 155.784792 294.4727 155.868404 
Q 302.370925 155.951465 308.021194 156.151144 
Q 313.003151 156.324969 315.418185 156.552151 
Q 317.848408 156.778784 317.848408 157.065375 
Q 317.848408 157.356366 315.418185 157.584099 
Q 313.003151 157.811831 308.021194 157.985106 
Q 302.325358 158.184785 294.351189 158.268396 
Q 286.377019 158.351458 270.428681 158.351458 
L 251.169163 158.351458 
L 251.169163 155.784792 
z
" clip-path="url(#p8b0a375837)" style="fill: #fc0d1c"/>
   </g>
   <g id="patch_28">
    <path d="M 317.848408 155.552567 
Q 311.123697 155.668679 303.890897 155.727001 
Q 296.658097 155.784792 288.947095 155.784792 
Q 271.522621 155.784792 261.345892 155.439106 
Q 251.169163 155.093419 251.169163 154.502254 
Q 251.169163 153.904195 261.525218 153.56116 
Q 271.896216 153.218125 289.933386 153.218125 
Q 296.882254 153.218125 303.248313 153.264782 
Q 309.629317 153.310909 315.278074 153.402102 
L 315.278074 153.913739 
Q 309.449991 153.796566 303.681684 153.738775 
Q 297.913376 153.680454 292.115181 153.680454 
Q 281.385531 153.680454 275.572392 153.893592 
Q 269.759253 154.106199 269.759253 154.502254 
Q 269.759253 154.894597 275.363178 155.108795 
Q 280.967104 155.322463 291.278328 155.322463 
Q 294.087763 155.322463 296.493715 155.310268 
Q 298.899667 155.297544 300.812474 155.271034 
L 300.812474 154.790679 
L 289.828779 154.790679 
L 289.828779 154.362813 
L 317.848408 154.362813 
L 317.848408 155.552567 
z
" clip-path="url(#p8b0a375837)" style="fill: #f2f038"/>
   </g>
   <g id="patch_29">
    <path d="M 251.169163 150.651458 
L 270.354796 150.651458 
L 270.354796 151.629498 
L 298.662775 151.629498 
L 298.662775 150.651458 
L 317.848408 150.651458 
L 317.848408 153.218125 
L 298.662775 153.218125 
L 298.662775 152.13007 
L 270.354796 152.13007 
L 270.354796 153.218125 
L 251.169163 153.218125 
L 251.169163 150.651458 
z
" clip-path="url(#p8b0a375837)" style="fill: #660533"/>
   </g>
   <g id="patch_30">
    <path d="M 251.169163 148.084792 
L 262.699032 148.084792 
L 270.758941 149.950108 
L 278.75885 148.084792 
L 290.348719 148.084792 
L 298.348629 149.950108 
L 306.418537 148.084792 
L 317.848408 148.084792 
L 306.848533 150.651458 
L 292.97869 150.651458 
L 284.508785 148.70033 
L 276.13888 150.651458 
L 262.259037 150.651458 
L 251.169163 148.084792 
z
" clip-path="url(#p8b0a375837)" style="fill: #6bc96b"/>
   </g>
   <g id="patch_31">
    <path d="M 278.223966 146.656238 
Q 284.208001 146.656238 286.804248 146.579227 
Q 289.400496 146.501666 289.400496 146.32454 
Q 289.400496 146.149065 286.804248 146.073704 
Q 284.208001 145.997794 278.223966 145.997794 
L 270.213591 145.997794 
L 270.213591 146.656238 
L 278.223966 146.656238 
z
M 270.213591 147.113353 
L 270.213591 148.084792 
L 251.169163 148.084792 
L 251.169163 145.518125 
L 280.250306 145.518125 
Q 294.846285 145.518125 301.637689 145.688649 
Q 308.444925 145.858624 308.444925 146.226626 
Q 308.444925 146.480763 304.89883 146.644136 
Q 301.368566 146.807509 294.244715 146.88507 
Q 298.154918 146.915875 301.24192 147.02534 
Q 304.344753 147.134256 307.510909 147.355938 
L 317.848408 148.084792 
L 297.569179 148.084792 
L 288.561465 147.447251 
Q 285.838571 147.254723 283.036523 147.184313 
Q 280.250306 147.113353 275.596056 147.113353 
L 270.213591 147.113353 
z
" clip-path="url(#p8b0a375837)" style="fill: #96050a"/>
   </g>
   <g id="patch_32">
    <path d="M 297.357935 144.582991 
L 271.714168 144.582991 
L 267.665153 145.518125 
L 251.169163 145.518125 
L 274.727072 140.384792 
L 294.290498 140.384792 
L 317.848408 145.518125 
L 301.366051 145.518125 
L 297.357935 144.582991 
z
M 275.804083 143.630255 
L 293.227121 143.630255 
L 284.529235 141.588364 
L 275.804083 143.630255 
z
" clip-path="url(#p8b0a375837)" style="fill: #fc996b"/>
   </g>
   <g id="patch_33">
    <path d="M 251.169163 135.251458 
L 270.838898 135.251458 
L 284.48309 137.998551 
L 298.217216 135.251458 
L 317.848408 135.251458 
L 317.848408 140.384792 
L 303.240643 140.384792 
L 303.240643 136.629955 
L 289.429431 139.397951 
L 279.626683 139.397951 
L 265.815471 136.629955 
L 265.815471 140.384792 
L 251.169163 140.384792 
L 251.169163 135.251458 
z
" clip-path="url(#p8b0a375837)" style="fill: #cc99cc"/>
   </g>
   <g id="patch_34">
    <path d="M 251.169163 127.551458 
L 272.587538 127.551458 
L 299.651561 132.832213 
L 299.651561 127.551458 
L 317.848408 127.551458 
L 317.848408 135.251458 
L 296.414085 135.251458 
L 269.350062 129.970704 
L 269.350062 135.251458 
L 251.169163 135.251458 
L 251.169163 127.551458 
z
" clip-path="url(#p8b0a375837)" style="fill: #366666"/>
   </g>
   <g id="patch_35">
    <path d="M 251.169163 119.851458 
L 269.604013 119.851458 
L 284.494777 122.5958 
L 299.371533 119.851458 
L 317.848408 119.851458 
L 292.941749 124.307095 
L 292.941749 127.551458 
L 276.08983 127.551458 
L 276.08983 124.307095 
L 251.169163 119.851458 
z
" clip-path="url(#p8b0a375837)" style="fill: #0a660d"/>
   </g>
   <g id="patch_36">
    <path d="M 312.288786 110.07469 
L 312.288786 112.170015 
Q 305.334731 111.805242 298.706647 111.620735 
Q 292.096673 111.434107 286.21108 111.434107 
Q 278.405878 111.434107 274.657208 111.686479 
Q 270.926647 111.93673 270.926647 112.466923 
Q 270.926647 112.865629 273.44387 113.08831 
Q 275.961093 113.308871 282.589176 113.467929 
L 291.86125 113.686368 
Q 305.950455 114.01933 311.890377 114.695857 
Q 317.848408 115.370263 317.848408 116.617278 
Q 317.848408 118.252395 309.554249 119.051927 
Q 301.26009 119.851458 284.219033 119.851458 
Q 276.196517 119.851458 268.101562 119.671193 
Q 260.006608 119.493048 251.911653 119.140999 
L 251.911653 116.988414 
Q 260.006608 117.491037 267.558277 117.747651 
Q 275.109946 118.002143 282.136439 118.002143 
Q 289.271589 118.002143 293.056478 117.724322 
Q 296.841367 117.44438 296.841367 116.926911 
Q 296.841367 116.464582 294.269816 116.21221 
Q 291.698264 115.959838 284.001719 115.760485 
L 275.562683 115.542046 
Q 262.886021 115.22393 257.018537 114.528316 
Q 251.169163 113.832702 251.169163 112.653552 
Q 251.169163 111.175372 259.318446 110.380082 
Q 267.467729 109.584792 282.752162 109.584792 
Q 289.724327 109.584792 297.076791 109.707797 
Q 304.429255 109.830801 312.288786 110.07469 
z
" clip-path="url(#p8b0a375837)" style="fill: #0a24fa"/>
   </g>
   <g id="patch_37">
    <path d="M 251.169163 96.751458 
L 317.848408 96.751458 
L 317.848408 99.254316 
L 293.859387 99.254316 
L 293.859387 109.584792 
L 275.204705 109.584792 
L 275.204705 99.254316 
L 251.169163 99.254316 
L 251.169163 96.751458 
z
" clip-path="url(#p8b0a375837)" style="fill: #2bffff"/>
   </g>
   <g id="patch_38">
    <path d="M 251.169163 78.784792 
L 285.828479 78.784792 
Q 301.300147 78.784792 309.565596 80.309609 
Q 317.848408 81.830577 317.848408 84.645329 
Q 317.848408 87.475483 309.565596 88.99645 
Q 301.300147 90.517418 285.828479 90.517418 
L 272.05852 90.517418 
L 272.05852 96.751458 
L 251.169163 96.751458 
L 251.169163 78.784792 
z
M 272.05852 82.142471 
L 272.05852 87.159738 
L 283.605837 87.159738 
Q 289.683373 87.159738 292.999971 86.505145 
Q 296.316568 85.850551 296.316568 84.645329 
Q 296.316568 83.443957 292.999971 82.793214 
Q 289.683373 82.142471 283.605837 82.142471 
L 272.05852 82.142471 
z
" clip-path="url(#p8b0a375837)" style="fill: #1a9cfc"/>
   </g>
   <g id="patch_39">
    <path d="M 251.169163 24.884792 
L 268.740933 24.884792 
L 268.740933 44.557252 
L 294.068822 24.884792 
L 314.474278 24.884792 
L 281.65319 50.413939 
L 317.848408 78.784792 
L 295.85083 78.784792 
L 268.740933 57.552859 
L 268.740933 78.784792 
L 251.169163 78.784792 
L 251.169163 24.884792 
z
" clip-path="url(#p8b0a375837)" style="fill: #663308"/>
   </g>
   <g id="patch_40">
    <path d="M 321.357842 158.351458 
L 345.555469 158.351458 
L 345.555469 160.418104 
L 388.037087 160.418104 
L 388.037087 160.918125 
L 321.357842 160.918125 
L 321.357842 158.351458 
z
" clip-path="url(#p8b0a375837)" style="fill: #fc9940"/>
   </g>
   <g id="patch_41">
    <path d="M 388.037087 158.119234 
Q 381.312376 158.235346 374.079576 158.293667 
Q 366.846776 158.351458 359.135774 158.351458 
Q 341.711301 158.351458 331.534571 158.005772 
Q 321.357842 157.660086 321.357842 157.06892 
Q 321.357842 156.470862 331.713897 156.127827 
Q 342.084896 155.784792 360.122065 155.784792 
Q 367.070933 155.784792 373.436993 155.831449 
Q 379.817996 155.877576 385.466753 155.968769 
L 385.466753 156.480406 
Q 379.63867 156.363233 373.870363 156.305442 
Q 368.102055 156.24712 362.30386 156.24712 
Q 351.57421 156.24712 345.761071 156.460258 
Q 339.947932 156.672866 339.947932 157.06892 
Q 339.947932 157.461263 345.551858 157.675462 
Q 351.155784 157.88913 361.467007 157.88913 
Q 364.276442 157.88913 366.682394 157.876935 
Q 369.088346 157.864211 371.001153 157.837701 
L 371.001153 157.357346 
L 360.017458 157.357346 
L 360.017458 156.929479 
L 388.037087 156.929479 
L 388.037087 158.119234 
z
" clip-path="url(#p8b0a375837)" style="fill: #f2f038"/>
   </g>
   <g id="patch_42">
    <path d="M 367.546614 154.849658 
L 341.902848 154.849658 
L 337.853832 155.784792 
L 321.357842 155.784792 
L 344.915752 150.651458 
L 364.479178 150.651458 
L 388.037087 155.784792 
L 371.55473 155.784792 
L 367.546614 154.849658 
z
M 345.992762 153.896922 
L 363.4158 153.896922 
L 354.717914 151.85503 
L 345.992762 153.896922 
z
" clip-path="url(#p8b0a375837)" style="fill: #fc996b"/>
   </g>
   <g id="patch_43">
    <path d="M 339.630082 146.519268 
L 339.630082 149.651415 
L 346.176495 149.651415 
Q 357.37071 149.651415 363.27919 149.248758 
Q 369.202859 148.8461 369.202859 148.079291 
Q 369.202859 147.316882 363.309568 146.918625 
Q 357.431466 146.519268 346.176495 146.519268 
L 339.630082 146.519268 
z
M 321.357842 145.518125 
L 340.61736 145.518125 
Q 356.763154 145.518125 364.661379 145.685349 
Q 372.559604 145.851473 378.209873 146.25083 
Q 383.19183 146.598479 385.606864 147.052844 
Q 388.037087 147.506109 388.037087 148.079291 
Q 388.037087 148.661274 385.606864 149.116739 
Q 383.19183 149.572204 378.209873 149.918754 
Q 372.514037 150.318111 364.539868 150.485335 
Q 356.565699 150.651458 340.61736 150.651458 
L 321.357842 150.651458 
L 321.357842 145.518125 
z
" clip-path="url(#p8b0a375837)" style="fill: #fc0d1c"/>
   </g>
   <g id="patch_44">
    <path d="M 321.357842 140.384792 
L 342.776217 140.384792 
L 369.84024 143.905295 
L 369.84024 140.384792 
L 388.037087 140.384792 
L 388.037087 145.518125 
L 366.602764 145.518125 
L 339.538741 141.997622 
L 339.538741 145.518125 
L 321.357842 145.518125 
L 321.357842 140.384792 
z
" clip-path="url(#p8b0a375837)" style="fill: #366666"/>
   </g>
   <g id="patch_45">
    <path d="M 321.357842 135.251458 
L 339.792692 135.251458 
L 354.683456 137.08102 
L 369.560212 135.251458 
L 388.037087 135.251458 
L 363.130428 138.221883 
L 363.130428 140.384792 
L 346.278509 140.384792 
L 346.278509 138.221883 
L 321.357842 135.251458 
z
" clip-path="url(#p8b0a375837)" style="fill: #0a660d"/>
   </g>
   <g id="patch_46">
    <path d="M 321.357842 127.551458 
L 340.543475 127.551458 
L 340.543475 130.485577 
L 368.851454 130.485577 
L 368.851454 127.551458 
L 388.037087 127.551458 
L 388.037087 135.251458 
L 368.851454 135.251458 
L 368.851454 131.987292 
L 340.543475 131.987292 
L 340.543475 135.251458 
L 321.357842 135.251458 
L 321.357842 127.551458 
z
" clip-path="url(#p8b0a375837)" style="fill: #660533"/>
   </g>
   <g id="patch_47">
    <path d="M 321.357842 117.284792 
L 388.037087 117.284792 
L 388.037087 119.287078 
L 364.048066 119.287078 
L 364.048066 127.551458 
L 345.393384 127.551458 
L 345.393384 119.287078 
L 321.357842 119.287078 
L 321.357842 117.284792 
z
" clip-path="url(#p8b0a375837)" style="fill: #2bffff"/>
   </g>
   <g id="patch_48">
    <path d="M 322.051789 96.751458 
L 387.34314 96.751458 
L 387.34314 100.75603 
L 346.249415 100.75603 
L 346.249415 104.575776 
L 384.909298 104.575776 
L 384.909298 108.580348 
L 346.249415 108.580348 
L 346.249415 117.284792 
L 322.051789 117.284792 
L 322.051789 96.751458 
z
" clip-path="url(#p8b0a375837)" style="fill: #29fc2e"/>
   </g>
   <g id="patch_49">
    <path d="M 382.477465 30.758275 
L 382.477465 44.901717 
Q 375.52341 42.439498 368.895327 41.194073 
Q 362.285353 39.934334 356.399759 39.934334 
Q 348.594557 39.934334 344.845887 41.637845 
Q 341.115326 43.327042 341.115326 46.905848 
Q 341.115326 49.59711 343.632549 51.100209 
Q 346.149772 52.588992 352.777856 53.662634 
L 362.049929 55.137102 
Q 376.139134 57.384592 382.079056 61.951148 
Q 388.037087 66.50339 388.037087 74.920742 
Q 388.037087 85.957779 379.742928 91.354619 
Q 371.448769 96.751458 354.407712 96.751458 
Q 346.385196 96.751458 338.290241 95.534664 
Q 330.195287 94.332185 322.100332 91.955858 
L 322.100332 77.425906 
Q 330.195287 80.818614 337.746956 82.550756 
Q 345.298625 84.268583 352.325118 84.268583 
Q 359.460268 84.268583 363.245157 82.393289 
Q 367.030046 80.503679 367.030046 77.010764 
Q 367.030046 73.890045 364.458495 72.186534 
Q 361.886943 70.483022 354.190398 69.137391 
L 345.751363 67.662923 
Q 333.0747 65.515639 327.207216 60.820246 
Q 321.357842 56.124852 321.357842 48.165588 
Q 321.357842 38.187876 329.507125 32.819667 
Q 337.656408 27.451458 352.940841 27.451458 
Q 359.913006 27.451458 367.26547 28.281741 
Q 374.617934 29.112024 382.477465 30.758275 
z
" clip-path="url(#p8b0a375837)" style="fill: #0a24fa"/>
   </g>
   <g id="patch_50">
    <path d="M 458.225767 160.6859 
Q 451.501056 160.802013 444.268255 160.860334 
Q 437.035455 160.918125 429.324453 160.918125 
Q 411.89998 160.918125 401.723251 160.572439 
Q 391.546521 160.226753 391.546521 159.635587 
Q 391.546521 159.037529 401.902576 158.694494 
Q 412.273575 158.351458 430.310744 158.351458 
Q 437.259612 158.351458 443.625672 158.398115 
Q 450.006675 158.444242 455.655433 158.535435 
L 455.655433 159.047072 
Q 449.82735 158.929899 444.059042 158.872108 
Q 438.290734 158.813787 432.492539 158.813787 
Q 421.762889 158.813787 415.94975 159.026925 
Q 410.136611 159.239532 410.136611 159.635587 
Q 410.136611 160.02793 415.740537 160.242128 
Q 421.344463 160.455796 431.655686 160.455796 
Q 434.465121 160.455796 436.871073 160.443602 
Q 439.277025 160.430877 441.189832 160.404368 
L 441.189832 159.924012 
L 430.206137 159.924012 
L 430.206137 159.496146 
L 458.225767 159.496146 
L 458.225767 160.6859 
z
" clip-path="url(#p8b0a375837)" style="fill: #f2f038"/>
   </g>
   <g id="patch_51">
    <path d="M 391.546521 155.784792 
L 426.205837 155.784792 
Q 441.677506 155.784792 449.942954 156.002623 
Q 458.225767 156.219904 458.225767 156.622011 
Q 458.225767 157.026319 449.942954 157.2436 
Q 441.677506 157.460881 426.205837 157.460881 
L 412.435879 157.460881 
L 412.435879 158.351458 
L 391.546521 158.351458 
L 391.546521 155.784792 
z
M 412.435879 156.26446 
L 412.435879 156.981213 
L 423.983196 156.981213 
Q 430.060731 156.981213 433.377329 156.887699 
Q 436.693927 156.794186 436.693927 156.622011 
Q 436.693927 156.450387 433.377329 156.357423 
Q 430.060731 156.26446 423.983196 156.26446 
L 412.435879 156.26446 
z
" clip-path="url(#p8b0a375837)" style="fill: #1a9cfc"/>
   </g>
   <g id="patch_52">
    <path d="M 391.546521 150.651458 
L 410.732154 150.651458 
L 410.732154 152.607538 
L 439.040133 152.607538 
L 439.040133 150.651458 
L 458.225767 150.651458 
L 458.225767 155.784792 
L 439.040133 155.784792 
L 439.040133 153.608681 
L 410.732154 153.608681 
L 410.732154 155.784792 
L 391.546521 155.784792 
L 391.546521 150.651458 
z
" clip-path="url(#p8b0a375837)" style="fill: #660533"/>
   </g>
   <g id="patch_53">
    <path d="M 391.546521 142.951458 
L 458.225767 142.951458 
L 458.225767 144.453173 
L 434.236745 144.453173 
L 434.236745 150.651458 
L 415.582063 150.651458 
L 415.582063 144.453173 
L 391.546521 144.453173 
L 391.546521 142.951458 
z
" clip-path="url(#p8b0a375837)" style="fill: #2bffff"/>
   </g>
   <g id="patch_54">
    <path d="M 458.225767 142.399527 
Q 452.648163 142.673107 446.616959 142.811487 
Q 440.585755 142.951458 434.01695 142.951458 
Q 414.428137 142.951458 402.987329 141.9144 
Q 391.546521 140.877341 391.546521 139.103844 
Q 391.546521 137.323985 402.987329 136.288517 
Q 414.428137 135.251458 434.01695 135.251458 
Q 440.585755 135.251458 446.616959 135.391429 
Q 452.648163 135.52981 458.225767 135.80339 
L 458.225767 137.3383 
Q 452.597763 136.975648 447.137759 136.807046 
Q 441.677755 136.638444 435.646551 136.638444 
Q 424.827344 136.638444 418.62814 137.295354 
Q 412.445735 137.950673 412.445735 139.103844 
Q 412.445735 140.252243 418.62814 140.909153 
Q 424.827344 141.564472 435.646551 141.564472 
Q 441.677755 141.564472 447.137759 141.395871 
Q 452.597763 141.225679 458.225767 140.863026 
L 458.225767 142.399527 
z
" clip-path="url(#p8b0a375837)" style="fill: #179999"/>
   </g>
   <g id="patch_55">
    <path d="M 452.666144 113.253731 
L 452.666144 117.968211 
Q 445.71209 117.147472 439.084006 116.73233 
Q 432.474032 116.312417 426.588439 116.312417 
Q 418.783236 116.312417 415.034566 116.880254 
Q 411.304005 117.44332 411.304005 118.636255 
Q 411.304005 119.533342 413.821228 120.034375 
Q 416.338451 120.530636 422.966535 120.888517 
L 432.238608 121.380006 
Q 446.327813 122.12917 452.267735 123.651355 
Q 458.225767 125.168769 458.225767 127.974553 
Q 458.225767 131.653565 449.931607 133.452512 
Q 441.637448 135.251458 424.596392 135.251458 
Q 416.573875 135.251458 408.478921 134.84586 
Q 400.383966 134.445034 392.289011 133.652925 
L 392.289011 128.809607 
Q 400.383966 129.94051 407.935635 130.517891 
Q 415.487304 131.0905 422.513797 131.0905 
Q 429.648947 131.0905 433.433836 130.465402 
Q 437.218726 129.835532 437.218726 128.671227 
Q 437.218726 127.630987 434.647174 127.06315 
Q 432.075623 126.495313 424.379077 126.046769 
L 415.940042 125.55528 
Q 403.263379 124.839519 397.395896 123.274387 
Q 391.546521 121.709256 391.546521 119.056168 
Q 391.546521 115.730264 399.695804 113.940861 
Q 407.845087 112.151458 423.129521 112.151458 
Q 430.101685 112.151458 437.454149 112.428219 
Q 444.806614 112.70498 452.666144 113.253731 
z
" clip-path="url(#p8b0a375837)" style="fill: #0a24fa"/>
   </g>
   <g id="patch_56">
    <path d="M 391.546521 24.884792 
L 412.964896 24.884792 
L 440.028919 84.733341 
L 440.028919 24.884792 
L 458.225767 24.884792 
L 458.225767 112.151458 
L 436.791443 112.151458 
L 409.72742 52.302909 
L 409.72742 112.151458 
L 391.546521 112.151458 
L 391.546521 24.884792 
z
" clip-path="url(#p8b0a375837)" style="fill: #366666"/>
   </g>
   <g id="patch_57">
    <path d="M 528.414446 160.734148 
Q 522.836842 160.825341 516.805638 160.871468 
Q 510.774434 160.918125 504.205629 160.918125 
Q 484.616816 160.918125 473.176008 160.572439 
Q 461.7352 160.226753 461.7352 159.635587 
Q 461.7352 159.0423 473.176008 158.697144 
Q 484.616816 158.351458 504.205629 158.351458 
Q 510.774434 158.351458 516.805638 158.398115 
Q 522.836842 158.444242 528.414446 158.535435 
L 528.414446 159.047072 
Q 522.786442 158.926188 517.326438 158.869988 
Q 511.866435 158.813787 505.83523 158.813787 
Q 495.016023 158.813787 488.816819 159.032757 
Q 482.634415 159.251197 482.634415 159.635587 
Q 482.634415 160.018387 488.816819 160.237357 
Q 495.016023 160.455796 505.83523 160.455796 
Q 511.866435 160.455796 517.326438 160.399596 
Q 522.786442 160.342865 528.414446 160.221981 
L 528.414446 160.734148 
z
" clip-path="url(#p8b0a375837)" style="fill: #179999"/>
   </g>
   <g id="patch_58">
    <path d="M 482.97601 153.218125 
L 507.173636 153.218125 
L 507.173636 158.351458 
L 482.97601 158.351458 
L 482.97601 153.218125 
z
" clip-path="url(#p8b0a375837)" style="fill: #cc993d"/>
   </g>
   <g id="patch_59">
    <path d="M 461.7352 145.518125 
L 478.23119 145.518125 
L 495.095273 151.201537 
L 511.932089 145.518125 
L 528.414446 145.518125 
L 504.856536 153.218125 
L 485.29311 153.218125 
L 461.7352 145.518125 
z
" clip-path="url(#p8b0a375837)" style="fill: #ffcc45"/>
   </g>
   <g id="patch_60">
    <path d="M 461.7352 135.251458 
L 481.404935 135.251458 
L 495.049128 140.745643 
L 508.783254 135.251458 
L 528.414446 135.251458 
L 528.414446 145.518125 
L 513.80668 145.518125 
L 513.80668 138.008452 
L 499.995469 143.544443 
L 490.19272 143.544443 
L 476.381509 138.008452 
L 476.381509 145.518125 
L 461.7352 145.518125 
L 461.7352 135.251458 
z
" clip-path="url(#p8b0a375837)" style="fill: #cc99cc"/>
   </g>
   <g id="patch_61">
    <path d="M 462.429147 117.284792 
L 527.720499 117.284792 
L 527.720499 120.788792 
L 486.626774 120.788792 
L 486.626774 124.13107 
L 525.286656 124.13107 
L 525.286656 127.63507 
L 486.626774 127.63507 
L 486.626774 135.251458 
L 462.429147 135.251458 
L 462.429147 117.284792 
z
" clip-path="url(#p8b0a375837)" style="fill: #29fc2e"/>
   </g>
   <g id="patch_62">
    <path d="M 461.7352 22.318125 
L 485.932827 22.318125 
L 485.932827 98.783999 
L 528.414446 98.783999 
L 528.414446 117.284792 
L 461.7352 117.284792 
L 461.7352 22.318125 
z
" clip-path="url(#p8b0a375837)" style="fill: #fc9940"/>
   </g>
   <g id="patch_63">
    <path d="M 593.043503 158.473933 
L 593.043503 158.997764 
Q 586.089448 158.906571 579.461364 158.860444 
Q 572.85139 158.813787 566.965797 158.813787 
Q 559.160595 158.813787 555.411925 158.87688 
Q 551.681364 158.939443 551.681364 159.071991 
Q 551.681364 159.171668 554.198587 159.227338 
Q 556.71581 159.282478 563.343893 159.322243 
L 572.615967 159.376853 
Q 586.705172 159.460093 592.645094 159.629225 
Q 598.603125 159.797826 598.603125 160.10958 
Q 598.603125 160.518359 590.308966 160.718242 
Q 582.014807 160.918125 564.97375 160.918125 
Q 556.951234 160.918125 548.856279 160.873059 
Q 540.761325 160.828522 532.66637 160.74051 
L 532.66637 160.202364 
Q 540.761325 160.32802 548.312994 160.392173 
Q 555.864663 160.455796 562.891156 160.455796 
Q 570.026306 160.455796 573.811195 160.386341 
Q 577.596084 160.316355 577.596084 160.186988 
Q 577.596084 160.071406 575.024533 160.008313 
Q 572.452981 159.94522 564.756436 159.895382 
L 556.3174 159.840772 
Q 543.640738 159.761243 537.773254 159.587339 
Q 531.92388 159.413436 531.92388 159.118648 
Q 531.92388 158.749103 540.073163 158.550281 
Q 548.222446 158.351458 563.506879 158.351458 
Q 570.479044 158.351458 577.831508 158.38221 
Q 585.183972 158.412961 593.043503 158.473933 
z
" clip-path="url(#p8b0a375837)" style="fill: #0a24fa"/>
   </g>
   <g id="patch_64">
    <path d="M 558.978683 156.922904 
Q 564.962718 156.922904 567.558965 156.845893 
Q 570.155213 156.768332 570.155213 156.591207 
Q 570.155213 156.415732 567.558965 156.340371 
Q 564.962718 156.26446 558.978683 156.26446 
L 550.968308 156.26446 
L 550.968308 156.922904 
L 558.978683 156.922904 
z
M 550.968308 157.38002 
L 550.968308 158.351458 
L 531.92388 158.351458 
L 531.92388 155.784792 
L 561.005023 155.784792 
Q 575.601002 155.784792 582.392406 155.955316 
Q 589.199642 156.12529 589.199642 156.493293 
Q 589.199642 156.747429 585.653547 156.910803 
Q 582.123283 157.074176 574.999432 157.151737 
Q 578.909635 157.182541 581.996637 157.292007 
Q 585.09947 157.400923 588.265626 157.622604 
L 598.603125 158.351458 
L 578.323896 158.351458 
L 569.316182 157.713917 
Q 566.593288 157.52139 563.79124 157.45098 
Q 561.005023 157.38002 556.350773 157.38002 
L 550.968308 157.38002 
z
" clip-path="url(#p8b0a375837)" style="fill: #96050a"/>
   </g>
   <g id="patch_65">
    <path d="M 567.041616 155.400966 
L 565.735814 155.400966 
Q 549.718903 155.400966 540.814446 155.113322 
Q 531.92388 154.825227 531.92388 154.311803 
Q 531.92388 153.799283 540.800554 153.50893 
Q 549.677229 153.218125 565.263502 153.218125 
Q 581.016474 153.218125 589.8098 153.50622 
Q 598.603125 153.793864 598.603125 154.311803 
Q 598.603125 154.667181 593.935578 154.924118 
Q 589.268031 155.181056 580.502488 155.310654 
L 593.560507 155.784792 
L 577.626946 155.784792 
L 567.041616 155.400966 
z
M 565.263502 153.611885 
Q 557.623172 153.611885 553.414045 153.795219 
Q 549.204917 153.978552 549.204917 154.311803 
Q 549.204917 154.650473 553.316804 154.830646 
Q 557.442583 155.010366 565.263502 155.010366 
Q 572.945507 155.010366 577.154634 154.827033 
Q 581.363762 154.643248 581.363762 154.311803 
Q 581.363762 153.978552 577.154634 153.795219 
Q 572.945507 153.611885 565.263502 153.611885 
z
" clip-path="url(#p8b0a375837)" style="fill: #6669c9"/>
   </g>
   <g id="patch_66">
    <path d="M 578.112652 152.750558 
L 552.468885 152.750558 
L 548.41987 153.218125 
L 531.92388 153.218125 
L 555.481789 150.651458 
L 575.045215 150.651458 
L 598.603125 153.218125 
L 582.120768 153.218125 
L 578.112652 152.750558 
z
M 556.5588 152.27419 
L 573.981838 152.27419 
L 565.283952 151.253244 
L 556.5588 152.27419 
z
" clip-path="url(#p8b0a375837)" style="fill: #fc996b"/>
   </g>
   <g id="patch_67">
    <path d="M 531.92388 148.084792 
L 550.35873 148.084792 
L 565.249494 148.999572 
L 580.12625 148.084792 
L 598.603125 148.084792 
L 573.696466 149.570004 
L 573.696466 150.651458 
L 556.844547 150.651458 
L 556.844547 149.570004 
L 531.92388 148.084792 
z
" clip-path="url(#p8b0a375837)" style="fill: #0a660d"/>
   </g>
   <g id="patch_68">
    <path d="M 531.92388 142.951458 
L 597.215231 142.951458 
L 597.215231 143.952601 
L 556.121506 143.952601 
L 556.121506 144.907538 
L 594.781388 144.907538 
L 594.781388 145.908681 
L 556.121506 145.908681 
L 556.121506 147.084749 
L 598.603125 147.084749 
L 598.603125 148.084792 
L 531.92388 148.084792 
L 531.92388 142.951458 
z
" clip-path="url(#p8b0a375837)" style="fill: #c90a38"/>
   </g>
   <g id="patch_69">
    <path d="M 531.92388 137.818125 
L 598.603125 137.818125 
L 598.603125 138.819268 
L 574.614103 138.819268 
L 574.614103 142.951458 
L 555.959422 142.951458 
L 555.959422 138.819268 
L 531.92388 138.819268 
L 531.92388 137.818125 
z
" clip-path="url(#p8b0a375837)" style="fill: #2bffff"/>
   </g>
   <g id="patch_70">
    <path d="M 531.92388 122.418125 
L 553.342255 122.418125 
L 580.406278 132.979634 
L 580.406278 122.418125 
L 598.603125 122.418125 
L 598.603125 137.818125 
L 577.168802 137.818125 
L 550.104779 127.256616 
L 550.104779 137.818125 
L 531.92388 137.818125 
L 531.92388 122.418125 
z
" clip-path="url(#p8b0a375837)" style="fill: #366666"/>
   </g>
   <g id="patch_71">
    <path d="M 553.164689 101.884792 
L 577.362316 101.884792 
L 577.362316 122.418125 
L 553.164689 122.418125 
L 553.164689 101.884792 
z
" clip-path="url(#p8b0a375837)" style="fill: #cc993d"/>
   </g>
   <g id="patch_72">
    <path d="M 531.92388 68.518125 
L 548.41987 68.518125 
L 565.283952 93.146243 
L 582.120768 68.518125 
L 598.603125 68.518125 
L 575.045215 101.884792 
L 555.481789 101.884792 
L 531.92388 68.518125 
z
" clip-path="url(#p8b0a375837)" style="fill: #ffcc45"/>
   </g>
   <g id="patch_73">
    <path d="M 550.196119 33.394507 
L 550.196119 60.017761 
L 556.742533 60.017761 
Q 567.936748 60.017761 573.845228 56.595172 
Q 579.768896 53.172583 579.768896 46.654702 
Q 579.768896 40.174226 573.875605 36.789042 
Q 567.997503 33.394507 556.742533 33.394507 
L 550.196119 33.394507 
z
M 531.92388 24.884792 
L 551.183397 24.884792 
Q 567.329192 24.884792 575.227417 26.306195 
Q 583.125642 27.718246 588.77591 31.112781 
Q 593.757868 34.067804 596.172902 37.929905 
Q 598.603125 41.782656 598.603125 46.654702 
Q 598.603125 51.601558 596.172902 55.473011 
Q 593.757868 59.344464 588.77591 62.290135 
Q 583.080075 65.68467 575.105906 67.106073 
Q 567.131736 68.518125 551.183397 68.518125 
L 531.92388 68.518125 
L 531.92388 24.884792 
z
" clip-path="url(#p8b0a375837)" style="fill: #fc0d1c"/>
   </g>
   <g id="matplotlib.axis_1">
    <g id="xtick_1">
     <g id="line2d_2">
      <defs>
       <path id="m56ef0c683c" d="M 0 0 
L 0 3.5 
" style="stroke: #000000; stroke-width: 0.8"/>
      </defs>
      <g>
       <use xlink:href="#m56ef0c683c" x="73.942748" y="160.918125" style="stroke: #000000; stroke-width: 0.8"/>
      </g>
     </g>
     <g id="text_1">
      <!-- 98 -->
      <g transform="translate(67.580248 175.516563) scale(0.1 -0.1)">
       <defs>
        <path id="DejaVuSans-39" d="M 703 97 
L 703 672 
Q 941 559 1184 500 
Q 1428 441 1663 441 
Q 2288 441 2617 861 
Q 2947 1281 2994 2138 
Q 2813 1869 2534 1725 
Q 2256 1581 1919 1581 
Q 1219 1581 811 2004 
Q 403 2428 403 3163 
Q 403 3881 828 4315 
Q 1253 4750 1959 4750 
Q 2769 4750 3195 4129 
Q 3622 3509 3622 2328 
Q 3622 1225 3098 567 
Q 2575 -91 1691 -91 
Q 1453 -91 1209 -44 
Q 966 3 703 97 
z
M 1959 2075 
Q 2384 2075 2632 2365 
Q 2881 2656 2881 3163 
Q 2881 3666 2632 3958 
Q 2384 4250 1959 4250 
Q 1534 4250 1286 3958 
Q 1038 3666 1038 3163 
Q 1038 2656 1286 2365 
Q 1534 2075 1959 2075 
z
" transform="scale(0.015625)"/>
        <path id="DejaVuSans-38" d="M 2034 2216 
Q 1584 2216 1326 1975 
Q 1069 1734 1069 1313 
Q 1069 891 1326 650 
Q 1584 409 2034 409 
Q 2484 409 2743 651 
Q 3003 894 3003 1313 
Q 3003 1734 2745 1975 
Q 2488 2216 2034 2216 
z
M 1403 2484 
Q 997 2584 770 2862 
Q 544 3141 544 3541 
Q 544 4100 942 4425 
Q 1341 4750 2034 4750 
Q 2731 4750 3128 4425 
Q 3525 4100 3525 3541 
Q 3525 3141 3298 2862 
Q 3072 2584 2669 2484 
Q 3125 2378 3379 2068 
Q 3634 1759 3634 1313 
Q 3634 634 3220 271 
Q 2806 -91 2034 -91 
Q 1263 -91 848 271 
Q 434 634 434 1313 
Q 434 1759 690 2068 
Q 947 2378 1403 2484 
z
M 1172 3481 
Q 1172 3119 1398 2916 
Q 1625 2713 2034 2713 
Q 2441 2713 2670 2916 
Q 2900 3119 2900 3481 
Q 2900 3844 2670 4047 
Q 2441 4250 2034 4250 
Q 1625 4250 1398 4047 
Q 1172 3844 1172 3481 
z
" transform="scale(0.015625)"/>
       </defs>
       <use xlink:href="#DejaVuSans-39"/>
       <use xlink:href="#DejaVuSans-38" transform="translate(63.623047 0)"/>
      </g>
     </g>
    </g>
    <g id="xtick_2">
     <g id="line2d_3">
      <g>
       <use xlink:href="#m56ef0c683c" x="144.131427" y="160.918125" style="stroke: #000000; stroke-width: 0.8"/>
      </g>
     </g>
     <g id="text_2">
      <!-- 814 -->
      <g transform="translate(134.587677 175.516563) scale(0.1 -0.1)">
       <defs>
        <path id="DejaVuSans-31" d="M 794 531 
L 1825 531 
L 1825 4091 
L 703 3866 
L 703 4441 
L 1819 4666 
L 2450 4666 
L 2450 531 
L 3481 531 
L 3481 0 
L 794 0 
L 794 531 
z
" transform="scale(0.015625)"/>
        <path id="DejaVuSans-34" d="M 2419 4116 
L 825 1625 
L 2419 1625 
L 2419 4116 
z
M 2253 4666 
L 3047 4666 
L 3047 1625 
L 3713 1625 
L 3713 1100 
L 3047 1100 
L 3047 0 
L 2419 0 
L 2419 1100 
L 313 1100 
L 313 1709 
L 2253 4666 
z
" transform="scale(0.015625)"/>
       </defs>
       <use xlink:href="#DejaVuSans-38"/>
       <use xlink:href="#DejaVuSans-31" transform="translate(63.623047 0)"/>
       <use xlink:href="#DejaVuSans-34" transform="translate(127.246094 0)"/>
      </g>
     </g>
    </g>
    <g id="xtick_3">
     <g id="line2d_4">
      <g>
       <use xlink:href="#m56ef0c683c" x="214.320106" y="160.918125" style="stroke: #000000; stroke-width: 0.8"/>
      </g>
     </g>
     <g id="text_3">
      <!-- 818 -->
      <g transform="translate(204.776356 175.516563) scale(0.1 -0.1)">
       <use xlink:href="#DejaVuSans-38"/>
       <use xlink:href="#DejaVuSans-31" transform="translate(63.623047 0)"/>
       <use xlink:href="#DejaVuSans-38" transform="translate(127.246094 0)"/>
      </g>
     </g>
    </g>
    <g id="xtick_4">
     <g id="line2d_5">
      <g>
       <use xlink:href="#m56ef0c683c" x="284.508785" y="160.918125" style="stroke: #000000; stroke-width: 0.8"/>
      </g>
     </g>
     <g id="text_4">
      <!-- 924 -->
      <g transform="translate(274.965035 175.516563) scale(0.1 -0.1)">
       <defs>
        <path id="DejaVuSans-32" d="M 1228 531 
L 3431 531 
L 3431 0 
L 469 0 
L 469 531 
Q 828 903 1448 1529 
Q 2069 2156 2228 2338 
Q 2531 2678 2651 2914 
Q 2772 3150 2772 3378 
Q 2772 3750 2511 3984 
Q 2250 4219 1831 4219 
Q 1534 4219 1204 4116 
Q 875 4013 500 3803 
L 500 4441 
Q 881 4594 1212 4672 
Q 1544 4750 1819 4750 
Q 2544 4750 2975 4387 
Q 3406 4025 3406 3419 
Q 3406 3131 3298 2873 
Q 3191 2616 2906 2266 
Q 2828 2175 2409 1742 
Q 1991 1309 1228 531 
z
" transform="scale(0.015625)"/>
       </defs>
       <use xlink:href="#DejaVuSans-39"/>
       <use xlink:href="#DejaVuSans-32" transform="translate(63.623047 0)"/>
       <use xlink:href="#DejaVuSans-34" transform="translate(127.246094 0)"/>
      </g>
     </g>
    </g>
    <g id="xtick_5">
     <g id="line2d_6">
      <g>
       <use xlink:href="#m56ef0c683c" x="354.697465" y="160.918125" style="stroke: #000000; stroke-width: 0.8"/>
      </g>
     </g>
     <g id="text_5">
      <!-- 932 -->
      <g transform="translate(345.153715 175.516563) scale(0.1 -0.1)">
       <defs>
        <path id="DejaVuSans-33" d="M 2597 2516 
Q 3050 2419 3304 2112 
Q 3559 1806 3559 1356 
Q 3559 666 3084 287 
Q 2609 -91 1734 -91 
Q 1441 -91 1130 -33 
Q 819 25 488 141 
L 488 750 
Q 750 597 1062 519 
Q 1375 441 1716 441 
Q 2309 441 2620 675 
Q 2931 909 2931 1356 
Q 2931 1769 2642 2001 
Q 2353 2234 1838 2234 
L 1294 2234 
L 1294 2753 
L 1863 2753 
Q 2328 2753 2575 2939 
Q 2822 3125 2822 3475 
Q 2822 3834 2567 4026 
Q 2313 4219 1838 4219 
Q 1578 4219 1281 4162 
Q 984 4106 628 3988 
L 628 4550 
Q 988 4650 1302 4700 
Q 1616 4750 1894 4750 
Q 2613 4750 3031 4423 
Q 3450 4097 3450 3541 
Q 3450 3153 3228 2886 
Q 3006 2619 2597 2516 
z
" transform="scale(0.015625)"/>
       </defs>
       <use xlink:href="#DejaVuSans-39"/>
       <use xlink:href="#DejaVuSans-33" transform="translate(63.623047 0)"/>
       <use xlink:href="#DejaVuSans-32" transform="translate(127.246094 0)"/>
      </g>
     </g>
    </g>
    <g id="xtick_6">
     <g id="line2d_7">
      <g>
       <use xlink:href="#m56ef0c683c" x="424.886144" y="160.918125" style="stroke: #000000; stroke-width: 0.8"/>
      </g>
     </g>
     <g id="text_6">
      <!-- 936 -->
      <g transform="translate(415.342394 175.516563) scale(0.1 -0.1)">
       <defs>
        <path id="DejaVuSans-36" d="M 2113 2584 
Q 1688 2584 1439 2293 
Q 1191 2003 1191 1497 
Q 1191 994 1439 701 
Q 1688 409 2113 409 
Q 2538 409 2786 701 
Q 3034 994 3034 1497 
Q 3034 2003 2786 2293 
Q 2538 2584 2113 2584 
z
M 3366 4563 
L 3366 3988 
Q 3128 4100 2886 4159 
Q 2644 4219 2406 4219 
Q 1781 4219 1451 3797 
Q 1122 3375 1075 2522 
Q 1259 2794 1537 2939 
Q 1816 3084 2150 3084 
Q 2853 3084 3261 2657 
Q 3669 2231 3669 1497 
Q 3669 778 3244 343 
Q 2819 -91 2113 -91 
Q 1303 -91 875 529 
Q 447 1150 447 2328 
Q 447 3434 972 4092 
Q 1497 4750 2381 4750 
Q 2619 4750 2861 4703 
Q 3103 4656 3366 4563 
z
" transform="scale(0.015625)"/>
       </defs>
       <use xlink:href="#DejaVuSans-39"/>
       <use xlink:href="#DejaVuSans-33" transform="translate(63.623047 0)"/>
       <use xlink:href="#DejaVuSans-36" transform="translate(127.246094 0)"/>
      </g>
     </g>
    </g>
    <g id="xtick_7">
     <g id="line2d_8">
      <g>
       <use xlink:href="#m56ef0c683c" x="495.074823" y="160.918125" style="stroke: #000000; stroke-width: 0.8"/>
      </g>
     </g>
     <g id="text_7">
      <!-- 944 -->
      <g transform="translate(485.531073 175.516563) scale(0.1 -0.1)">
       <use xlink:href="#DejaVuSans-39"/>
       <use xlink:href="#DejaVuSans-34" transform="translate(63.623047 0)"/>
       <use xlink:href="#DejaVuSans-34" transform="translate(127.246094 0)"/>
      </g>
     </g>
    </g>
    <g id="xtick_8">
     <g id="line2d_9">
      <g>
       <use xlink:href="#m56ef0c683c" x="565.263502" y="160.918125" style="stroke: #000000; stroke-width: 0.8"/>
      </g>
     </g>
     <g id="text_8">
      <!-- 991 -->
      <g transform="translate(555.719752 175.516563) scale(0.1 -0.1)">
       <use xlink:href="#DejaVuSans-39"/>
       <use xlink:href="#DejaVuSans-39" transform="translate(63.623047 0)"/>
       <use xlink:href="#DejaVuSans-31" transform="translate(127.246094 0)"/>
      </g>
     </g>
    </g>
    <g id="text_9">
     <!-- position -->
     <g transform="translate(299.798437 189.194688) scale(0.1 -0.1)">
      <defs>
       <path id="DejaVuSans-70" d="M 1159 525 
L 1159 -1331 
L 581 -1331 
L 581 3500 
L 1159 3500 
L 1159 2969 
Q 1341 3281 1617 3432 
Q 1894 3584 2278 3584 
Q 2916 3584 3314 3078 
Q 3713 2572 3713 1747 
Q 3713 922 3314 415 
Q 2916 -91 2278 -91 
Q 1894 -91 1617 61 
Q 1341 213 1159 525 
z
M 3116 1747 
Q 3116 2381 2855 2742 
Q 2594 3103 2138 3103 
Q 1681 3103 1420 2742 
Q 1159 2381 1159 1747 
Q 1159 1113 1420 752 
Q 1681 391 2138 391 
Q 2594 391 2855 752 
Q 3116 1113 3116 1747 
z
" transform="scale(0.015625)"/>
       <path id="DejaVuSans-6f" d="M 1959 3097 
Q 1497 3097 1228 2736 
Q 959 2375 959 1747 
Q 959 1119 1226 758 
Q 1494 397 1959 397 
Q 2419 397 2687 759 
Q 2956 1122 2956 1747 
Q 2956 2369 2687 2733 
Q 2419 3097 1959 3097 
z
M 1959 3584 
Q 2709 3584 3137 3096 
Q 3566 2609 3566 1747 
Q 3566 888 3137 398 
Q 2709 -91 1959 -91 
Q 1206 -91 779 398 
Q 353 888 353 1747 
Q 353 2609 779 3096 
Q 1206 3584 1959 3584 
z
" transform="scale(0.015625)"/>
       <path id="DejaVuSans-73" d="M 2834 3397 
L 2834 2853 
Q 2591 2978 2328 3040 
Q 2066 3103 1784 3103 
Q 1356 3103 1142 2972 
Q 928 2841 928 2578 
Q 928 2378 1081 2264 
Q 1234 2150 1697 2047 
L 1894 2003 
Q 2506 1872 2764 1633 
Q 3022 1394 3022 966 
Q 3022 478 2636 193 
Q 2250 -91 1575 -91 
Q 1294 -91 989 -36 
Q 684 19 347 128 
L 347 722 
Q 666 556 975 473 
Q 1284 391 1588 391 
Q 1994 391 2212 530 
Q 2431 669 2431 922 
Q 2431 1156 2273 1281 
Q 2116 1406 1581 1522 
L 1381 1569 
Q 847 1681 609 1914 
Q 372 2147 372 2553 
Q 372 3047 722 3315 
Q 1072 3584 1716 3584 
Q 2034 3584 2315 3537 
Q 2597 3491 2834 3397 
z
" transform="scale(0.015625)"/>
       <path id="DejaVuSans-69" d="M 603 3500 
L 1178 3500 
L 1178 0 
L 603 0 
L 603 3500 
z
M 603 4863 
L 1178 4863 
L 1178 4134 
L 603 4134 
L 603 4863 
z
" transform="scale(0.015625)"/>
       <path id="DejaVuSans-74" d="M 1172 4494 
L 1172 3500 
L 2356 3500 
L 2356 3053 
L 1172 3053 
L 1172 1153 
Q 1172 725 1289 603 
Q 1406 481 1766 481 
L 2356 481 
L 2356 0 
L 1766 0 
Q 1100 0 847 248 
Q 594 497 594 1153 
L 594 3053 
L 172 3053 
L 172 3500 
L 594 3500 
L 594 4494 
L 1172 4494 
z
" transform="scale(0.015625)"/>
       <path id="DejaVuSans-6e" d="M 3513 2113 
L 3513 0 
L 2938 0 
L 2938 2094 
Q 2938 2591 2744 2837 
Q 2550 3084 2163 3084 
Q 1697 3084 1428 2787 
Q 1159 2491 1159 1978 
L 1159 0 
L 581 0 
L 581 3500 
L 1159 3500 
L 1159 2956 
Q 1366 3272 1645 3428 
Q 1925 3584 2291 3584 
Q 2894 3584 3203 3211 
Q 3513 2838 3513 2113 
z
" transform="scale(0.015625)"/>
      </defs>
      <use xlink:href="#DejaVuSans-70"/>
      <use xlink:href="#DejaVuSans-6f" transform="translate(63.476562 0)"/>
      <use xlink:href="#DejaVuSans-73" transform="translate(124.658203 0)"/>
      <use xlink:href="#DejaVuSans-69" transform="translate(176.757812 0)"/>
      <use xlink:href="#DejaVuSans-74" transform="translate(204.541016 0)"/>
      <use xlink:href="#DejaVuSans-69" transform="translate(243.75 0)"/>
      <use xlink:href="#DejaVuSans-6f" transform="translate(271.533203 0)"/>
      <use xlink:href="#DejaVuSans-6e" transform="translate(332.714844 0)"/>
     </g>
    </g>
   </g>
   <g id="matplotlib.axis_2">
    <g id="ytick_1">
     <g id="line2d_10">
      <defs>
       <path id="m3c3f66493b" d="M 0 0 
L -3.5 0 
" style="stroke: #000000; stroke-width: 0.8"/>
      </defs>
      <g>
       <use xlink:href="#m3c3f66493b" x="40.603125" y="160.918125" style="stroke: #000000; stroke-width: 0.8"/>
      </g>
     </g>
     <g id="text_10">
      <!-- 0 -->
      <g transform="translate(27.240625 164.717344) scale(0.1 -0.1)">
       <defs>
        <path id="DejaVuSans-30" d="M 2034 4250 
Q 1547 4250 1301 3770 
Q 1056 3291 1056 2328 
Q 1056 1369 1301 889 
Q 1547 409 2034 409 
Q 2525 409 2770 889 
Q 3016 1369 3016 2328 
Q 3016 3291 2770 3770 
Q 2525 4250 2034 4250 
z
M 2034 4750 
Q 2819 4750 3233 4129 
Q 3647 3509 3647 2328 
Q 3647 1150 3233 529 
Q 2819 -91 2034 -91 
Q 1250 -91 836 529 
Q 422 1150 422 2328 
Q 422 3509 836 4129 
Q 1250 4750 2034 4750 
z
" transform="scale(0.015625)"/>
       </defs>
       <use xlink:href="#DejaVuSans-30"/>
      </g>
     </g>
    </g>
    <g id="ytick_2">
     <g id="line2d_11">
      <g>
       <use xlink:href="#m3c3f66493b" x="40.603125" y="135.251458" style="stroke: #000000; stroke-width: 0.8"/>
      </g>
     </g>
     <g id="text_11">
      <!-- 10 -->
      <g transform="translate(20.878125 139.050677) scale(0.1 -0.1)">
       <use xlink:href="#DejaVuSans-31"/>
       <use xlink:href="#DejaVuSans-30" transform="translate(63.623047 0)"/>
      </g>
     </g>
    </g>
    <g id="ytick_3">
     <g id="line2d_12">
      <g>
       <use xlink:href="#m3c3f66493b" x="40.603125" y="109.584792" style="stroke: #000000; stroke-width: 0.8"/>
      </g>
     </g>
     <g id="text_12">
      <!-- 20 -->
      <g transform="translate(20.878125 113.38401) scale(0.1 -0.1)">
       <use xlink:href="#DejaVuSans-32"/>
       <use xlink:href="#DejaVuSans-30" transform="translate(63.623047 0)"/>
      </g>
     </g>
    </g>
    <g id="ytick_4">
     <g id="line2d_13">
      <g>
       <use xlink:href="#m3c3f66493b" x="40.603125" y="83.918125" style="stroke: #000000; stroke-width: 0.8"/>
      </g>
     </g>
     <g id="text_13">
      <!-- 30 -->
      <g transform="translate(20.878125 87.717344) scale(0.1 -0.1)">
       <use xlink:href="#DejaVuSans-33"/>
       <use xlink:href="#DejaVuSans-30" transform="translate(63.623047 0)"/>
      </g>
     </g>
    </g>
    <g id="ytick_5">
     <g id="line2d_14">
      <g>
       <use xlink:href="#m3c3f66493b" x="40.603125" y="58.251458" style="stroke: #000000; stroke-width: 0.8"/>
      </g>
     </g>
     <g id="text_14">
      <!-- 40 -->
      <g transform="translate(20.878125 62.050677) scale(0.1 -0.1)">
       <use xlink:href="#DejaVuSans-34"/>
       <use xlink:href="#DejaVuSans-30" transform="translate(63.623047 0)"/>
      </g>
     </g>
    </g>
    <g id="ytick_6">
     <g id="line2d_15">
      <g>
       <use xlink:href="#m3c3f66493b" x="40.603125" y="32.584792" style="stroke: #000000; stroke-width: 0.8"/>
      </g>
     </g>
     <g id="text_15">
      <!-- 50 -->
      <g transform="translate(20.878125 36.38401) scale(0.1 -0.1)">
       <defs>
        <path id="DejaVuSans-35" d="M 691 4666 
L 3169 4666 
L 3169 4134 
L 1269 4134 
L 1269 2991 
Q 1406 3038 1543 3061 
Q 1681 3084 1819 3084 
Q 2600 3084 3056 2656 
Q 3513 2228 3513 1497 
Q 3513 744 3044 326 
Q 2575 -91 1722 -91 
Q 1428 -91 1123 -41 
Q 819 9 494 109 
L 494 744 
Q 775 591 1075 516 
Q 1375 441 1709 441 
Q 2250 441 2565 725 
Q 2881 1009 2881 1497 
Q 2881 1984 2565 2268 
Q 2250 2553 1709 2553 
Q 1456 2553 1204 2497 
Q 953 2441 691 2322 
L 691 4666 
z
" transform="scale(0.015625)"/>
       </defs>
       <use xlink:href="#DejaVuSans-35"/>
       <use xlink:href="#DejaVuSans-30" transform="translate(63.623047 0)"/>
      </g>
     </g>
    </g>
    <g id="text_16">
     <!-- count # -->
     <g transform="translate(14.798437 111.503281) rotate(-90) scale(0.1 -0.1)">
      <defs>
       <path id="DejaVuSans-63" d="M 3122 3366 
L 3122 2828 
Q 2878 2963 2633 3030 
Q 2388 3097 2138 3097 
Q 1578 3097 1268 2742 
Q 959 2388 959 1747 
Q 959 1106 1268 751 
Q 1578 397 2138 397 
Q 2388 397 2633 464 
Q 2878 531 3122 666 
L 3122 134 
Q 2881 22 2623 -34 
Q 2366 -91 2075 -91 
Q 1284 -91 818 406 
Q 353 903 353 1747 
Q 353 2603 823 3093 
Q 1294 3584 2113 3584 
Q 2378 3584 2631 3529 
Q 2884 3475 3122 3366 
z
" transform="scale(0.015625)"/>
       <path id="DejaVuSans-75" d="M 544 1381 
L 544 3500 
L 1119 3500 
L 1119 1403 
Q 1119 906 1312 657 
Q 1506 409 1894 409 
Q 2359 409 2629 706 
Q 2900 1003 2900 1516 
L 2900 3500 
L 3475 3500 
L 3475 0 
L 2900 0 
L 2900 538 
Q 2691 219 2414 64 
Q 2138 -91 1772 -91 
Q 1169 -91 856 284 
Q 544 659 544 1381 
z
M 1991 3584 
L 1991 3584 
z
" transform="scale(0.015625)"/>
       <path id="DejaVuSans-20" transform="scale(0.015625)"/>
       <path id="DejaVuSans-23" d="M 3272 2816 
L 2363 2816 
L 2100 1772 
L 3016 1772 
L 3272 2816 
z
M 2803 4594 
L 2478 3297 
L 3391 3297 
L 3719 4594 
L 4219 4594 
L 3897 3297 
L 4872 3297 
L 4872 2816 
L 3775 2816 
L 3519 1772 
L 4513 1772 
L 4513 1294 
L 3397 1294 
L 3072 0 
L 2572 0 
L 2894 1294 
L 1978 1294 
L 1656 0 
L 1153 0 
L 1478 1294 
L 494 1294 
L 494 1772 
L 1594 1772 
L 1856 2816 
L 850 2816 
L 850 3297 
L 1978 3297 
L 2297 4594 
L 2803 4594 
z
" transform="scale(0.015625)"/>
      </defs>
      <use xlink:href="#DejaVuSans-63"/>
      <use xlink:href="#DejaVuSans-6f" transform="translate(54.980469 0)"/>
      <use xlink:href="#DejaVuSans-75" transform="translate(116.162109 0)"/>
      <use xlink:href="#DejaVuSans-6e" transform="translate(179.541016 0)"/>
      <use xlink:href="#DejaVuSans-74" transform="translate(242.919922 0)"/>
      <use xlink:href="#DejaVuSans-20" transform="translate(282.128906 0)"/>
      <use xlink:href="#DejaVuSans-23" transform="translate(313.916016 0)"/>
     </g>
    </g>
   </g>
   <g id="patch_74">
    <path d="M 40.603125 160.918125 
L 40.603125 22.318125 
" style="fill: none; stroke: #000000; stroke-width: 0.8; stroke-linejoin: miter; stroke-linecap: square"/>
   </g>
   <g id="patch_75">
    <path d="M 598.603125 160.918125 
L 598.603125 22.318125 
" style="fill: none; stroke: #000000; stroke-width: 0.8; stroke-linejoin: miter; stroke-linecap: square"/>
   </g>
   <g id="patch_76">
    <path d="M 40.603125 160.918125 
L 598.603125 160.918125 
" style="fill: none; stroke: #000000; stroke-width: 0.8; stroke-linejoin: miter; stroke-linecap: square"/>
   </g>
   <g id="patch_77">
    <path d="M 40.603125 22.318125 
L 598.603125 22.318125 
" style="fill: none; stroke: #000000; stroke-width: 0.8; stroke-linejoin: miter; stroke-linecap: square"/>
   </g>
   <g id="text_17">
    <!-- ß-hydroxylation TRUE -->
    <g transform="translate(254.706562 16.318125) scale(0.12 -0.12)">
     <defs>
      <path id="DejaVuSans-df" d="M 581 3553 
Q 581 4178 954 4520 
Q 1328 4863 2009 4863 
Q 2659 4863 3001 4500 
Q 3344 4138 3353 3438 
Q 2881 3413 2618 3233 
Q 2356 3053 2356 2753 
Q 2356 2606 2447 2479 
Q 2538 2353 2741 2222 
L 2919 2106 
Q 3438 1775 3588 1553 
Q 3738 1331 3738 1019 
Q 3738 481 3386 195 
Q 3034 -91 2375 -91 
Q 2175 -91 1962 -52 
Q 1750 -13 1522 63 
L 1522 575 
Q 1772 481 1990 436 
Q 2209 391 2413 391 
Q 2775 391 2962 539 
Q 3150 688 3150 972 
Q 3150 1169 3058 1300 
Q 2966 1431 2650 1625 
L 2363 1797 
Q 2063 1981 1927 2192 
Q 1791 2403 1791 2688 
Q 1791 3084 2052 3353 
Q 2313 3622 2784 3713 
Q 2759 4034 2554 4209 
Q 2350 4384 1997 4384 
Q 1591 4384 1378 4167 
Q 1166 3950 1166 3541 
L 1166 0 
L 581 0 
L 581 3553 
z
" transform="scale(0.015625)"/>
      <path id="DejaVuSans-2d" d="M 313 2009 
L 1997 2009 
L 1997 1497 
L 313 1497 
L 313 2009 
z
" transform="scale(0.015625)"/>
      <path id="DejaVuSans-68" d="M 3513 2113 
L 3513 0 
L 2938 0 
L 2938 2094 
Q 2938 2591 2744 2837 
Q 2550 3084 2163 3084 
Q 1697 3084 1428 2787 
Q 1159 2491 1159 1978 
L 1159 0 
L 581 0 
L 581 4863 
L 1159 4863 
L 1159 2956 
Q 1366 3272 1645 3428 
Q 1925 3584 2291 3584 
Q 2894 3584 3203 3211 
Q 3513 2838 3513 2113 
z
" transform="scale(0.015625)"/>
      <path id="DejaVuSans-79" d="M 2059 -325 
Q 1816 -950 1584 -1140 
Q 1353 -1331 966 -1331 
L 506 -1331 
L 506 -850 
L 844 -850 
Q 1081 -850 1212 -737 
Q 1344 -625 1503 -206 
L 1606 56 
L 191 3500 
L 800 3500 
L 1894 763 
L 2988 3500 
L 3597 3500 
L 2059 -325 
z
" transform="scale(0.015625)"/>
      <path id="DejaVuSans-64" d="M 2906 2969 
L 2906 4863 
L 3481 4863 
L 3481 0 
L 2906 0 
L 2906 525 
Q 2725 213 2448 61 
Q 2172 -91 1784 -91 
Q 1150 -91 751 415 
Q 353 922 353 1747 
Q 353 2572 751 3078 
Q 1150 3584 1784 3584 
Q 2172 3584 2448 3432 
Q 2725 3281 2906 2969 
z
M 947 1747 
Q 947 1113 1208 752 
Q 1469 391 1925 391 
Q 2381 391 2643 752 
Q 2906 1113 2906 1747 
Q 2906 2381 2643 2742 
Q 2381 3103 1925 3103 
Q 1469 3103 1208 2742 
Q 947 2381 947 1747 
z
" transform="scale(0.015625)"/>
      <path id="DejaVuSans-72" d="M 2631 2963 
Q 2534 3019 2420 3045 
Q 2306 3072 2169 3072 
Q 1681 3072 1420 2755 
Q 1159 2438 1159 1844 
L 1159 0 
L 581 0 
L 581 3500 
L 1159 3500 
L 1159 2956 
Q 1341 3275 1631 3429 
Q 1922 3584 2338 3584 
Q 2397 3584 2469 3576 
Q 2541 3569 2628 3553 
L 2631 2963 
z
" transform="scale(0.015625)"/>
      <path id="DejaVuSans-78" d="M 3513 3500 
L 2247 1797 
L 3578 0 
L 2900 0 
L 1881 1375 
L 863 0 
L 184 0 
L 1544 1831 
L 300 3500 
L 978 3500 
L 1906 2253 
L 2834 3500 
L 3513 3500 
z
" transform="scale(0.015625)"/>
      <path id="DejaVuSans-6c" d="M 603 4863 
L 1178 4863 
L 1178 0 
L 603 0 
L 603 4863 
z
" transform="scale(0.015625)"/>
      <path id="DejaVuSans-61" d="M 2194 1759 
Q 1497 1759 1228 1600 
Q 959 1441 959 1056 
Q 959 750 1161 570 
Q 1363 391 1709 391 
Q 2188 391 2477 730 
Q 2766 1069 2766 1631 
L 2766 1759 
L 2194 1759 
z
M 3341 1997 
L 3341 0 
L 2766 0 
L 2766 531 
Q 2569 213 2275 61 
Q 1981 -91 1556 -91 
Q 1019 -91 701 211 
Q 384 513 384 1019 
Q 384 1609 779 1909 
Q 1175 2209 1959 2209 
L 2766 2209 
L 2766 2266 
Q 2766 2663 2505 2880 
Q 2244 3097 1772 3097 
Q 1472 3097 1187 3025 
Q 903 2953 641 2809 
L 641 3341 
Q 956 3463 1253 3523 
Q 1550 3584 1831 3584 
Q 2591 3584 2966 3190 
Q 3341 2797 3341 1997 
z
" transform="scale(0.015625)"/>
      <path id="DejaVuSans-54" d="M -19 4666 
L 3928 4666 
L 3928 4134 
L 2272 4134 
L 2272 0 
L 1638 0 
L 1638 4134 
L -19 4134 
L -19 4666 
z
" transform="scale(0.015625)"/>
      <path id="DejaVuSans-52" d="M 2841 2188 
Q 3044 2119 3236 1894 
Q 3428 1669 3622 1275 
L 4263 0 
L 3584 0 
L 2988 1197 
Q 2756 1666 2539 1819 
Q 2322 1972 1947 1972 
L 1259 1972 
L 1259 0 
L 628 0 
L 628 4666 
L 2053 4666 
Q 2853 4666 3247 4331 
Q 3641 3997 3641 3322 
Q 3641 2881 3436 2590 
Q 3231 2300 2841 2188 
z
M 1259 4147 
L 1259 2491 
L 2053 2491 
Q 2509 2491 2742 2702 
Q 2975 2913 2975 3322 
Q 2975 3731 2742 3939 
Q 2509 4147 2053 4147 
L 1259 4147 
z
" transform="scale(0.015625)"/>
      <path id="DejaVuSans-55" d="M 556 4666 
L 1191 4666 
L 1191 1831 
Q 1191 1081 1462 751 
Q 1734 422 2344 422 
Q 2950 422 3222 751 
Q 3494 1081 3494 1831 
L 3494 4666 
L 4128 4666 
L 4128 1753 
Q 4128 841 3676 375 
Q 3225 -91 2344 -91 
Q 1459 -91 1007 375 
Q 556 841 556 1753 
L 556 4666 
z
" transform="scale(0.015625)"/>
      <path id="DejaVuSans-45" d="M 628 4666 
L 3578 4666 
L 3578 4134 
L 1259 4134 
L 1259 2753 
L 3481 2753 
L 3481 2222 
L 1259 2222 
L 1259 531 
L 3634 531 
L 3634 0 
L 628 0 
L 628 4666 
z
" transform="scale(0.015625)"/>
     </defs>
     <use xlink:href="#DejaVuSans-df"/>
     <use xlink:href="#DejaVuSans-2d" transform="translate(64.863281 0)"/>
     <use xlink:href="#DejaVuSans-68" transform="translate(100.947266 0)"/>
     <use xlink:href="#DejaVuSans-79" transform="translate(164.326172 0)"/>
     <use xlink:href="#DejaVuSans-64" transform="translate(223.505859 0)"/>
     <use xlink:href="#DejaVuSans-72" transform="translate(286.982422 0)"/>
     <use xlink:href="#DejaVuSans-6f" transform="translate(325.845703 0)"/>
     <use xlink:href="#DejaVuSans-78" transform="translate(383.902344 0)"/>
     <use xlink:href="#DejaVuSans-79" transform="translate(443.082031 0)"/>
     <use xlink:href="#DejaVuSans-6c" transform="translate(502.261719 0)"/>
     <use xlink:href="#DejaVuSans-61" transform="translate(530.044922 0)"/>
     <use xlink:href="#DejaVuSans-74" transform="translate(591.324219 0)"/>
     <use xlink:href="#DejaVuSans-69" transform="translate(630.533203 0)"/>
     <use xlink:href="#DejaVuSans-6f" transform="translate(658.316406 0)"/>
     <use xlink:href="#DejaVuSans-6e" transform="translate(719.498047 0)"/>
     <use xlink:href="#DejaVuSans-20" transform="translate(782.876953 0)"/>
     <use xlink:href="#DejaVuSans-54" transform="translate(814.664062 0)"/>
     <use xlink:href="#DejaVuSans-52" transform="translate(875.748047 0)"/>
     <use xlink:href="#DejaVuSans-55" transform="translate(945.230469 0)"/>
     <use xlink:href="#DejaVuSans-45" transform="translate(1018.423828 0)"/>
    </g>
   </g>
  </g>
 </g>
 <defs>
  <clipPath id="p8b0a375837">
   <rect x="40.603125" y="22.318125" width="558" height="138.6"/>
  </clipPath>
 </defs>
</svg>
